STARTFONT 2.3
FONT -FontForge-Bungee Shade-Book-R-Normal--8-80-72-72-P-69-ISO10646-1
SIZE 8 72 72  4
FONTBOUNDINGBOX 21 21 -5 -8
COMMENT "Generated by fontforge, http://fontforge.sourceforge.net"
COMMENT "Copyright 2008 The Bungee Project Authors (david@djr.com)"
STARTPROPERTIES 40
FOUNDRY "FontForge"
FAMILY_NAME "Bungee Shade"
WEIGHT_NAME "Book"
SLANT "R"
SETWIDTH_NAME "Normal"
ADD_STYLE_NAME ""
PIXEL_SIZE 8
POINT_SIZE 80
RESOLUTION_X 72
RESOLUTION_Y 72
SPACING "P"
AVERAGE_WIDTH 69
CHARSET_REGISTRY "ISO10646"
CHARSET_ENCODING "1"
FONTNAME_REGISTRY ""
CHARSET_COLLECTIONS "ISO8859-2 ISO8859-9 ISO8859-4 ISO10646-1"
BITS_PER_PIXEL 4
FONT_NAME "BungeeShade-Regular"
FACE_NAME "Bungee Shade"
COPYRIGHT "Copyright 2008 The Bungee Project Authors (david@djr.com)"
FONT_VERSION "1.000;PS 1.0;hotconv 1.0.72;makeotf.lib2.5.5900"
FONT_ASCENT 7
FONT_DESCENT 1
UNDERLINE_POSITION 0
UNDERLINE_THICKNESS 0
X_HEIGHT 5
CAP_HEIGHT 5
RAW_ASCENT 860
RAW_DESCENT 140
NORM_SPACE 3
RELATIVE_WEIGHT 40
RELATIVE_SETWIDTH 50
SUPERSCRIPT_X 0
SUPERSCRIPT_Y 2
SUPERSCRIPT_SIZE 4
SUBSCRIPT_X 0
SUBSCRIPT_Y 0
SUBSCRIPT_SIZE 4
AVG_LOWERCASE_WIDTH 66
AVG_UPPERCASE_WIDTH 67
ENDPROPERTIES
CHARS 1065
STARTCHAR space
ENCODING 32
SWIDTH 325 0
DWIDTH 3 0
BBX 1 1 0 0
BITMAP
00
ENDCHAR
STARTCHAR exclam
ENCODING 33
SWIDTH 524 0
DWIDTH 4 0
BBX 4 7 0 -1
BITMAP
1612
8911
7A11
7B01
6C73
5901
7FC3
ENDCHAR
STARTCHAR quotedbl
ENCODING 34
SWIDTH 746 0
DWIDTH 6 0
BBX 6 4 0 2
BITMAP
451612
C51911
C61A11
BFBFD3
ENDCHAR
STARTCHAR numbersign
ENCODING 35
SWIDTH 850 0
DWIDTH 7 0
BBX 7 7 0 -1
BITMAP
02524110
19325120
99333330
7A143320
B4212110
DB1D1400
6F8FB100
ENDCHAR
STARTCHAR dollar
ENCODING 36
SWIDTH 750 0
DWIDTH 6 0
BBX 6 9 0 -2
BITMAP
002110
011112
451211
B516A2
CA2111
6DB811
851212
BC8041
05FB10
ENDCHAR
STARTCHAR percent
ENCODING 37
SWIDTH 1131 0
DWIDTH 9 0
BBX 9 7 0 -1
BITMAP
0333822000
A581A12000
D521621110
D824451220
7ECD282830
001C0C4320
004F8CFB10
ENDCHAR
STARTCHAR ampersand
ENCODING 38
SWIDTH 866 0
DWIDTH 7 0
BBX 7 7 0 -1
BITMAP
02111100
2B111000
5C225110
54107110
C41A9120
D9111210
6EFEC500
ENDCHAR
STARTCHAR quotesingle
ENCODING 39
SWIDTH 456 0
DWIDTH 4 0
BBX 4 4 0 2
BITMAP
3511
B611
B711
AFA1
ENDCHAR
STARTCHAR parenleft
ENCODING 40
SWIDTH 529 0
DWIDTH 4 0
BBX 5 8 0 -1
BITMAP
011100
352310
B41300
C41100
C41100
C51200
CA2110
5DE600
ENDCHAR
STARTCHAR parenright
ENCODING 41
SWIDTH 529 0
DWIDTH 4 0
BBX 5 8 0 -1
BITMAP
021100
A41200
CF2210
0F2210
0F2210
0E2200
742300
CE8000
ENDCHAR
STARTCHAR asterisk
ENCODING 42
SWIDTH 818 0
DWIDTH 7 0
BBX 7 6 0 0
BITMAP
00732000
16431210
8B533610
4B341200
1EAC8100
04351000
ENDCHAR
STARTCHAR plus
ENCODING 43
SWIDTH 834 0
DWIDTH 7 0
BBX 7 6 0 0
BITMAP
00321000
03821110
77121110
9FF25900
01F11000
00EC1000
ENDCHAR
STARTCHAR comma
ENCODING 44
SWIDTH 484 0
DWIDTH 4 0
BBX 4 5 0 -2
BITMAP
0211
8521
BA41
9711
9E60
ENDCHAR
STARTCHAR hyphen
ENCODING 45
SWIDTH 520 0
DWIDTH 4 0
BBX 5 3 0 1
BITMAP
121100
B41110
DFE600
ENDCHAR
STARTCHAR period
ENCODING 46
SWIDTH 484 0
DWIDTH 4 0
BBX 4 4 0 -1
BITMAP
0211
8511
B601
BFB1
ENDCHAR
STARTCHAR slash
ENCODING 47
SWIDTH 487 0
DWIDTH 4 0
BBX 4 8 0 -1
BITMAP
0121
0D11
2C11
5A11
7711
A511
C320
DE50
ENDCHAR
STARTCHAR zero
ENCODING 48
SWIDTH 827 0
DWIDTH 7 0
BBX 7 7 0 -1
BITMAP
02233200
56100110
B61C6110
B61B7110
B61A6110
AC312310
2CFEA100
ENDCHAR
STARTCHAR one
ENCODING 49
SWIDTH 701 0
DWIDTH 6 0
BBX 6 7 0 -1
BITMAP
261110
992110
7E7110
097110
074111
A51211
CFEEB1
ENDCHAR
STARTCHAR two
ENCODING 50
SWIDTH 739 0
DWIDTH 6 0
BBX 6 7 0 -1
BITMAP
161111
881111
8FC611
131141
A41731
D42111
DEEEC2
ENDCHAR
STARTCHAR three
ENCODING 51
SWIDTH 737 0
DWIDTH 6 0
BBX 6 7 0 -1
BITMAP
241110
B51111
CD8321
1C0122
2EB911
751122
CFED70
ENDCHAR
STARTCHAR four
ENCODING 52
SWIDTH 809 0
DWIDTH 6 0
BBX 7 7 0 -1
BITMAP
25144110
A61B4110
A6183110
A7111110
AB100110
4EFF4010
000DE600
ENDCHAR
STARTCHAR five
ENCODING 53
SWIDTH 747 0
DWIDTH 6 0
BBX 6 7 0 -1
BITMAP
251111
A71111
A71681
A71111
AC9811
751112
BFED80
ENDCHAR
STARTCHAR six
ENCODING 54
SWIDTH 793 0
DWIDTH 6 0
BBX 7 7 0 -1
BITMAP
02232200
56179300
B6211110
B62B3110
B6110110
AC312200
3CFE8000
ENDCHAR
STARTCHAR seven
ENCODING 55
SWIDTH 727 0
DWIDTH 6 0
BBX 6 7 0 -1
BITMAP
341112
D41111
DFF911
031111
2C1240
4C0100
4FD300
ENDCHAR
STARTCHAR eight
ENCODING 56
SWIDTH 811 0
DWIDTH 6 0
BBX 7 7 0 -1
BITMAP
01223200
3A193200
6A223200
55100110
B51C6110
CB322200
4DFE9100
ENDCHAR
STARTCHAR nine
ENCODING 57
SWIDTH 793 0
DWIDTH 6 0
BBX 7 7 0 -1
BITMAP
02223200
55100210
C51C2110
C8122110
8FA91110
1C011200
3FED8000
ENDCHAR
STARTCHAR colon
ENCODING 58
SWIDTH 484 0
DWIDTH 4 0
BBX 4 7 0 -1
BITMAP
0211
9501
B732
9B82
9511
B601
BFB1
ENDCHAR
STARTCHAR semicolon
ENCODING 59
SWIDTH 484 0
DWIDTH 4 0
BBX 4 7 0 -2
BITMAP
1311
B732
AB83
8521
BA41
9711
9E60
ENDCHAR
STARTCHAR less
ENCODING 60
SWIDTH 814 0
DWIDTH 7 0
BBX 6 7 0 -1
BITMAP
000012
002121
171254
892461
8E6211
19DFC6
000361
ENDCHAR
STARTCHAR equal
ENCODING 61
SWIDTH 834 0
DWIDTH 7 0
BBX 7 5 0 0
BITMAP
02111100
8B666620
5A888510
77111110
9EEEE900
ENDCHAR
STARTCHAR greater
ENCODING 62
SWIDTH 814 0
DWIDTH 7 0
BBX 7 7 0 -1
BITMAP
01200000
16244200
7D852100
4DB71210
03015800
6CAEB100
6A620000
ENDCHAR
STARTCHAR question
ENCODING 63
SWIDTH 756 0
DWIDTH 6 0
BBX 6 7 0 -1
BITMAP
341112
C41121
CFA711
1C1112
2F6890
1E0110
2FE600
ENDCHAR
STARTCHAR at
ENCODING 64
SWIDTH 967 0
DWIDTH 8 0
BBX 8 8 0 -1
BITMAP
00211110
159FFE61
98522291
B772B181
B7729181
B8A64551
9D278820
19C98300
ENDCHAR
STARTCHAR A
ENCODING 65
SWIDTH 830 0
DWIDTH 7 0
BBX 7 7 0 -1
BITMAP
00211100
07021100
18193110
76143010
B5100110
C51D8110
BF99FA10
ENDCHAR
STARTCHAR B
ENCODING 66
SWIDTH 825 0
DWIDTH 7 0
BBX 7 7 0 -1
BITMAP
26111100
97112100
A71A4200
A7212210
A71B8110
A7111210
9FEEC500
ENDCHAR
STARTCHAR C
ENCODING 67
SWIDTH 728 0
DWIDTH 6 0
BBX 6 7 0 -1
BITMAP
021112
561111
A61BC1
B61100
B61111
AC2111
3DFEC2
ENDCHAR
STARTCHAR D
ENCODING 68
SWIDTH 846 0
DWIDTH 7 0
BBX 7 7 0 -1
BITMAP
26111110
97111110
A7197110
A7199110
A7154110
A7111210
9FEEB200
ENDCHAR
STARTCHAR E
ENCODING 69
SWIDTH 754 0
DWIDTH 6 0
BBX 6 7 0 -1
BITMAP
261112
971111
A717A3
A72331
A71661
A71111
9FEED3
ENDCHAR
STARTCHAR F
ENCODING 70
SWIDTH 718 0
DWIDTH 6 0
BBX 6 7 0 -1
BITMAP
261112
971111
A719C2
A72111
A71A70
A70100
9F9000
ENDCHAR
STARTCHAR G
ENCODING 71
SWIDTH 808 0
DWIDTH 6 0
BBX 7 7 0 -1
BITMAP
02111200
56111100
B6157110
B6185110
B6163110
AC211110
3DFEE700
ENDCHAR
STARTCHAR H
ENCODING 72
SWIDTH 859 0
DWIDTH 7 0
BBX 7 7 0 -1
BITMAP
26126110
97189110
A7155110
A7211210
A71B9110
A7099010
9F97FB10
ENDCHAR
STARTCHAR I
ENCODING 73
SWIDTH 705 0
DWIDTH 6 0
BBX 6 7 0 -1
BITMAP
351111
B72231
8E6150
0A6110
073111
951211
BFEEA1
ENDCHAR
STARTCHAR J
ENCODING 74
SWIDTH 788 0
DWIDTH 6 0
BBX 6 7 0 -1
BITMAP
000722
000F22
022F22
A41F22
D41711
CB3122
3CFD70
ENDCHAR
STARTCHAR K
ENCODING 75
SWIDTH 846 0
DWIDTH 7 0
BBX 7 7 0 -1
BITMAP
26124110
971A2200
A7141200
A7212110
A7198110
A7099010
9F98FB10
ENDCHAR
STARTCHAR L
ENCODING 76
SWIDTH 795 0
DWIDTH 6 0
BBX 7 7 0 -1
BITMAP
26110000
97110000
A7112110
A7186110
A7163110
A7111110
9FEEE700
ENDCHAR
STARTCHAR M
ENCODING 77
SWIDTH 949 0
DWIDTH 8 0
BBX 8 7 0 -1
BITMAP
26111211
97218111
A7113111
A7121211
A71AA511
A712C511
9F91BF80
ENDCHAR
STARTCHAR N
ENCODING 78
SWIDTH 853 0
DWIDTH 7 0
BBX 7 7 0 -1
BITMAP
26116110
97228110
A7111110
A7141110
A71B5210
A70A9010
9F98FA10
ENDCHAR
STARTCHAR O
ENCODING 79
SWIDTH 837 0
DWIDTH 7 0
BBX 7 7 0 -1
BITMAP
02233210
56100110
B61B7110
B61A8110
B6197110
AC312310
2CFEA200
ENDCHAR
STARTCHAR P
ENCODING 80
SWIDTH 782 0
DWIDTH 6 0
BBX 7 7 0 -1
BITMAP
26111200
97121010
A71B5110
A7232300
A71AA100
A7010000
9F800000
ENDCHAR
STARTCHAR Q
ENCODING 81
SWIDTH 837 0
DWIDTH 7 0
BBX 7 8 0 -2
BITMAP
02233200
46100110
A61B7110
B61A8110
B6197110
BB122210
5FE03400
03ED3000
ENDCHAR
STARTCHAR R
ENCODING 82
SWIDTH 843 0
DWIDTH 7 0
BBX 7 7 0 -1
BITMAP
26111200
97112010
A7182200
A7212110
A71BA110
A707B010
9F96FB20
ENDCHAR
STARTCHAR S
ENCODING 83
SWIDTH 750 0
DWIDTH 6 0
BBX 6 7 0 -1
BITMAP
021112
651111
B51691
CA2111
6DB811
851112
BFED70
ENDCHAR
STARTCHAR T
ENCODING 84
SWIDTH 756 0
DWIDTH 6 0
BBX 6 7 0 -1
BITMAP
431112
E31211
EF9174
089110
089110
089010
07FB20
ENDCHAR
STARTCHAR U
ENCODING 85
SWIDTH 846 0
DWIDTH 7 0
BBX 7 7 0 -1
BITMAP
25126110
A7199110
A7199110
A7199110
A7165110
9C312310
2BFEA200
ENDCHAR
STARTCHAR V
ENCODING 86
SWIDTH 830 0
DWIDTH 7 0
BBX 7 7 0 -1
BITMAP
35136110
B51A8110
C51A7110
B8195110
8D132100
3F411100
0BFE8000
ENDCHAR
STARTCHAR W
ENCODING 87
SWIDTH 931 0
DWIDTH 7 0
BBX 8 7 0 -1
BITMAP
35112411
B611B511
B6138511
B6121211
B8113121
8D14A110
3FD8FB10
ENDCHAR
STARTCHAR X
ENCODING 88
SWIDTH 837 0
DWIDTH 7 0
BBX 7 7 0 -1
BITMAP
25125120
A6197110
AB121110
4F322100
28264110
A60B8010
AF88FA10
ENDCHAR
STARTCHAR Y
ENCODING 89
SWIDTH 805 0
DWIDTH 6 0
BBX 7 7 0 -1
BITMAP
44146210
C41B6110
C6152110
AE221100
2EB11000
06C01000
04FC2000
ENDCHAR
STARTCHAR Z
ENCODING 90
SWIDTH 760 0
DWIDTH 6 0
BBX 6 7 0 -1
BITMAP
251112
A71121
AFD221
033220
251111
B41111
CFEED4
ENDCHAR
STARTCHAR bracketleft
ENCODING 91
SWIDTH 529 0
DWIDTH 4 0
BBX 5 8 0 -1
BITMAP
021100
A42410
C41300
C41100
C41100
C41200
C51110
BEE600
ENDCHAR
STARTCHAR backslash
ENCODING 92
SWIDTH 487 0
DWIDTH 4 0
BBX 4 8 0 -1
BITMAP
1210
D421
D611
A811
8B11
6D11
3F11
1EE5
ENDCHAR
STARTCHAR bracketright
ENCODING 93
SWIDTH 529 0
DWIDTH 4 0
BBX 5 8 0 -1
BITMAP
021100
A41210
CF2210
0F2210
0F2210
0F2210
741110
CEE600
ENDCHAR
STARTCHAR asciicircum
ENCODING 94
SWIDTH 814 0
DWIDTH 7 0
BBX 7 5 0 1
BITMAP
01432000
0C241100
3A1B3100
851E6110
BE5AE800
ENDCHAR
STARTCHAR underscore
ENCODING 95
SWIDTH 834 0
DWIDTH 7 0
BBX 7 3 0 -2
BITMAP
03111110
87111110
9EEEE900
ENDCHAR
STARTCHAR grave
ENCODING 96
SWIDTH 600 0
DWIDTH 5 0
BBX 5 3 0 5
BITMAP
231110
D85320
7BCC20
ENDCHAR
STARTCHAR a
ENCODING 97
SWIDTH 830 0
DWIDTH 7 0
BBX 7 7 0 -1
BITMAP
00211100
07021100
18193110
76143010
B5100110
C51D8110
BF99FA10
ENDCHAR
STARTCHAR b
ENCODING 98
SWIDTH 825 0
DWIDTH 7 0
BBX 7 7 0 -1
BITMAP
26111100
97112100
A71A4200
A7212210
A71B8110
A7111210
9FEEC500
ENDCHAR
STARTCHAR c
ENCODING 99
SWIDTH 728 0
DWIDTH 6 0
BBX 6 7 0 -1
BITMAP
021112
561111
A61BC1
B61100
B61111
AC2111
3DFEC2
ENDCHAR
STARTCHAR d
ENCODING 100
SWIDTH 846 0
DWIDTH 7 0
BBX 7 7 0 -1
BITMAP
26111110
97111110
A7197110
A7199110
A7154110
A7111210
9FEEB200
ENDCHAR
STARTCHAR e
ENCODING 101
SWIDTH 754 0
DWIDTH 6 0
BBX 6 7 0 -1
BITMAP
261112
971111
A717A3
A72331
A71661
A71111
9FEED3
ENDCHAR
STARTCHAR f
ENCODING 102
SWIDTH 718 0
DWIDTH 6 0
BBX 6 7 0 -1
BITMAP
261112
971111
A719C2
A72111
A71A70
A70100
9F9000
ENDCHAR
STARTCHAR g
ENCODING 103
SWIDTH 808 0
DWIDTH 6 0
BBX 7 7 0 -1
BITMAP
02111200
56111100
B6157110
B6185110
B6163110
AC211110
3DFEE700
ENDCHAR
STARTCHAR h
ENCODING 104
SWIDTH 859 0
DWIDTH 7 0
BBX 7 7 0 -1
BITMAP
26126110
97189110
A7155110
A7211210
A71B9110
A7099010
9F97FB10
ENDCHAR
STARTCHAR i
ENCODING 105
SWIDTH 705 0
DWIDTH 6 0
BBX 6 7 0 -1
BITMAP
351111
B72231
8E6150
0A6110
073111
951211
BFEEA1
ENDCHAR
STARTCHAR j
ENCODING 106
SWIDTH 788 0
DWIDTH 6 0
BBX 6 7 0 -1
BITMAP
000722
000F22
022F22
A41F22
D41711
CB3122
3CFD70
ENDCHAR
STARTCHAR k
ENCODING 107
SWIDTH 846 0
DWIDTH 7 0
BBX 7 7 0 -1
BITMAP
26124110
971A2200
A7141200
A7212110
A7198110
A7099010
9F98FB10
ENDCHAR
STARTCHAR l
ENCODING 108
SWIDTH 795 0
DWIDTH 6 0
BBX 7 7 0 -1
BITMAP
26110000
97110000
A7112110
A7186110
A7163110
A7111110
9FEEE700
ENDCHAR
STARTCHAR m
ENCODING 109
SWIDTH 949 0
DWIDTH 8 0
BBX 8 7 0 -1
BITMAP
26111211
97218111
A7113111
A7121211
A71AA511
A712C511
9F91BF80
ENDCHAR
STARTCHAR n
ENCODING 110
SWIDTH 853 0
DWIDTH 7 0
BBX 7 7 0 -1
BITMAP
26116110
97228110
A7111110
A7141110
A71B5210
A70A9010
9F98FA10
ENDCHAR
STARTCHAR o
ENCODING 111
SWIDTH 837 0
DWIDTH 7 0
BBX 7 7 0 -1
BITMAP
02233210
56100110
B61B7110
B61A8110
B6197110
AC312310
2CFEA200
ENDCHAR
STARTCHAR p
ENCODING 112
SWIDTH 782 0
DWIDTH 6 0
BBX 7 7 0 -1
BITMAP
26111200
97121010
A71B5110
A7232300
A71AA100
A7010000
9F800000
ENDCHAR
STARTCHAR q
ENCODING 113
SWIDTH 837 0
DWIDTH 7 0
BBX 7 8 0 -2
BITMAP
02233200
46100110
A61B7110
B61A8110
B6197110
BB122210
5FE03400
03ED3000
ENDCHAR
STARTCHAR r
ENCODING 114
SWIDTH 843 0
DWIDTH 7 0
BBX 7 7 0 -1
BITMAP
26111200
97112010
A7182200
A7212110
A71BA110
A707B010
9F96FB20
ENDCHAR
STARTCHAR s
ENCODING 115
SWIDTH 750 0
DWIDTH 6 0
BBX 6 7 0 -1
BITMAP
021112
651111
B51691
CA2111
6DB811
851112
BFED70
ENDCHAR
STARTCHAR t
ENCODING 116
SWIDTH 756 0
DWIDTH 6 0
BBX 6 7 0 -1
BITMAP
431112
E31211
EF9174
089110
089110
089010
07FB20
ENDCHAR
STARTCHAR u
ENCODING 117
SWIDTH 846 0
DWIDTH 7 0
BBX 7 7 0 -1
BITMAP
25126110
A7199110
A7199110
A7199110
A7165110
9C312310
2BFEA200
ENDCHAR
STARTCHAR v
ENCODING 118
SWIDTH 830 0
DWIDTH 7 0
BBX 7 7 0 -1
BITMAP
35136110
B51A8110
C51A7110
B8195110
8D132100
3F411100
0BFE8000
ENDCHAR
STARTCHAR w
ENCODING 119
SWIDTH 931 0
DWIDTH 7 0
BBX 8 7 0 -1
BITMAP
35112411
B611B511
B6138511
B6121211
B8113121
8D14A110
3FD8FB10
ENDCHAR
STARTCHAR x
ENCODING 120
SWIDTH 837 0
DWIDTH 7 0
BBX 7 7 0 -1
BITMAP
25125120
A6197110
AB121110
4F322100
28264110
A60B8010
AF88FA10
ENDCHAR
STARTCHAR y
ENCODING 121
SWIDTH 805 0
DWIDTH 6 0
BBX 7 7 0 -1
BITMAP
44146210
C41B6110
C6152110
AE221100
2EB11000
06C01000
04FC2000
ENDCHAR
STARTCHAR z
ENCODING 122
SWIDTH 760 0
DWIDTH 6 0
BBX 6 7 0 -1
BITMAP
251112
A71121
AFD221
033220
251111
B41111
CFEED4
ENDCHAR
STARTCHAR braceleft
ENCODING 123
SWIDTH 555 0
DWIDTH 4 0
BBX 5 8 0 -1
BITMAP
001110
171310
791200
922200
F71100
991110
7E4110
2CE900
ENDCHAR
STARTCHAR bar
ENCODING 124
SWIDTH 447 0
DWIDTH 4 0
BBX 4 8 0 -1
BITMAP
0311
8711
A711
A711
A711
A711
A711
9E90
ENDCHAR
STARTCHAR braceright
ENCODING 125
SWIDTH 555 0
DWIDTH 4 0
BBX 5 8 0 -1
BITMAP
021100
A42100
CF2100
1F3110
0D4120
0F2100
752300
CD8000
ENDCHAR
STARTCHAR asciitilde
ENCODING 126
SWIDTH 834 0
DWIDTH 7 0
BBX 7 4 0 1
BITMAP
01111110
47111110
9CBA8500
44576100
ENDCHAR
STARTCHAR uni00A0
ENCODING 160
SWIDTH 325 0
DWIDTH 3 0
BBX 1 1 0 0
BITMAP
00
ENDCHAR
STARTCHAR exclamdown
ENCODING 161
SWIDTH 523 0
DWIDTH 4 0
BBX 4 7 0 -1
BITMAP
1612
7901
7D83
5A11
7A11
7901
7FC2
ENDCHAR
STARTCHAR cent
ENCODING 162
SWIDTH 728 0
DWIDTH 6 0
BBX 6 8 0 -1
BITMAP
002110
039121
471001
A61BC2
B61111
B91211
5FD032
03ED20
ENDCHAR
STARTCHAR sterling
ENCODING 163
SWIDTH 795 0
DWIDTH 6 0
BBX 7 7 0 -1
BITMAP
02111100
27111100
96178000
C1113110
F6175110
A7111110
9FEEE700
ENDCHAR
STARTCHAR currency
ENCODING 164
SWIDTH 921 0
DWIDTH 7 0
BBX 8 8 0 -1
BITMAP
00100010
04211431
9C221210
4F35C110
0F35B110
08111221
9C8EDC20
37003700
ENDCHAR
STARTCHAR yen
ENCODING 165
SWIDTH 803 0
DWIDTH 6 0
BBX 7 7 0 -1
BITMAP
44135110
C41B6110
C9152210
8D210200
3B121100
6FD05400
04FC2000
ENDCHAR
STARTCHAR brokenbar
ENCODING 166
SWIDTH 447 0
DWIDTH 4 0
BBX 4 8 0 -1
BITMAP
0211
8711
A711
A821
7B61
9711
A711
9E91
ENDCHAR
STARTCHAR section
ENCODING 167
SWIDTH 750 0
DWIDTH 6 0
BBX 6 7 0 -1
BITMAP
023222
562572
B52111
B90412
8D8612
561122
AFED60
ENDCHAR
STARTCHAR dieresis
ENCODING 168
SWIDTH 600 0
DWIDTH 5 0
BBX 6 3 -1 5
BITMAP
011221
0D1531
1EDEE4
ENDCHAR
STARTCHAR copyright
ENCODING 169
SWIDTH 967 0
DWIDTH 8 0
BBX 8 8 0 -1
BITMAP
00211110
169DBB71
986113A1
B791CCA1
B79126A1
B8B21391
9D6CC921
1AC87400
ENDCHAR
STARTCHAR ordfeminine
ENCODING 170
SWIDTH 620 0
DWIDTH 5 0
BBX 5 7 0 -1
BITMAP
052210
574420
A41120
D47720
EA7850
B31110
DEED30
ENDCHAR
STARTCHAR guillemotleft
ENCODING 171
SWIDTH 912 0
DWIDTH 7 0
BBX 7 6 0 -1
BITMAP
01112120
34224220
B5284240
CC40A410
4BF9CF70
00100000
ENDCHAR
STARTCHAR logicalnot
ENCODING 172
SWIDTH 834 0
DWIDTH 7 0
BBX 7 5 0 0
BITMAP
03222210
77111110
9FFFA110
0007A010
0006F900
ENDCHAR
STARTCHAR uni00AD
ENCODING 173
SWIDTH 520 0
DWIDTH 4 0
BBX 5 3 0 1
BITMAP
121100
B41110
DFE600
ENDCHAR
STARTCHAR registered
ENCODING 174
SWIDTH 660 0
DWIDTH 5 0
BBX 5 5 0 1
BITMAP
059B70
993190
B95660
BC9A60
39A600
ENDCHAR
STARTCHAR macron
ENCODING 175
SWIDTH 600 0
DWIDTH 5 0
BBX 5 3 0 5
BITMAP
021110
A41110
CFFC20
ENDCHAR
STARTCHAR degree
ENCODING 176
SWIDTH 583 0
DWIDTH 5 0
BBX 5 5 0 1
BITMAP
032210
A58510
C52220
CECA20
287100
ENDCHAR
STARTCHAR plusminus
ENCODING 177
SWIDTH 834 0
DWIDTH 7 0
BBX 7 7 0 -1
BITMAP
00522000
02821110
67121110
9C923700
38812210
77111110
9FEEE900
ENDCHAR
STARTCHAR twosuperior
ENCODING 178
SWIDTH 585 0
DWIDTH 5 0
BBX 5 5 0 1
BITMAP
262210
AD7210
551220
C43510
CEEC30
ENDCHAR
STARTCHAR threesuperior
ENCODING 179
SWIDTH 584 0
DWIDTH 5 0
BBX 5 5 0 1
BITMAP
452300
CB5110
5C5020
751220
BEE700
ENDCHAR
STARTCHAR acute
ENCODING 180
SWIDTH 600 0
DWIDTH 5 0
BBX 5 3 0 5
BITMAP
021110
A43530
BCA700
ENDCHAR
STARTCHAR mu
ENCODING 181
SWIDTH 813 0
DWIDTH 7 0
BBX 7 7 0 -2
BITMAP
03113110
961A6110
B61C6110
B6284110
B6211200
BA5B9100
69400000
ENDCHAR
STARTCHAR paragraph
ENCODING 182
SWIDTH 782 0
DWIDTH 6 0
BBX 6 7 0 -1
BITMAP
031112
842112
D40002
D61212
AF5232
0B6252
0AEDE4
ENDCHAR
STARTCHAR periodcentered
ENCODING 183
SWIDTH 464 0
DWIDTH 4 0
BBX 4 4 0 1
BITMAP
0211
A411
C401
CFB1
ENDCHAR
STARTCHAR cedilla
ENCODING 184
SWIDTH 600 0
DWIDTH 5 0
BBX 4 4 0 -2
BITMAP
0021
0642
0C11
3FA1
ENDCHAR
STARTCHAR onesuperior
ENCODING 185
SWIDTH 557 0
DWIDTH 4 0
BBX 5 5 0 1
BITMAP
253200
AA2100
5F3100
392110
CEEB20
ENDCHAR
STARTCHAR ordmasculine
ENCODING 186
SWIDTH 625 0
DWIDTH 5 0
BBX 5 7 0 -1
BITMAP
023320
A46720
D46720
D71120
BA7720
841110
DFED30
ENDCHAR
STARTCHAR guillemotright
ENCODING 187
SWIDTH 912 0
DWIDTH 7 0
BBX 8 6 0 -1
BITMAP
01201210
98116100
AC31A211
56384360
BEBDEA10
31041000
ENDCHAR
STARTCHAR onequarter
ENCODING 188
SWIDTH 1303 0
DWIDTH 10 0
BBX 11 7 0 -1
BITMAP
463234200000
9B21D2313110
0E32D161B110
2A3391916110
BEEF81D21210
000961DFC010
000BE304F800
ENDCHAR
STARTCHAR onehalf
ENCODING 189
SWIDTH 1260 0
DWIDTH 10 0
BBX 10 7 0 -1
BITMAP
2632342000
AB21D22111
3F32D17111
392291A933
CEEE81A262
000A62A111
000BEAFED3
ENDCHAR
STARTCHAR threequarters
ENCODING 190
SWIDTH 1313 0
DWIDTH 11 0
BBX 11 7 0 -1
BITMAP
552345200000
CB22D4213110
4C549161B110
794271915110
BEED91D21210
000870CFD010
000AE303F900
ENDCHAR
STARTCHAR questiondown
ENCODING 191
SWIDTH 756 0
DWIDTH 6 0
BBX 6 7 0 -1
BITMAP
004311
00E201
008301
331121
B41661
C92111
6EFED4
ENDCHAR
STARTCHAR Agrave
ENCODING 192
SWIDTH 830 0
DWIDTH 7 0
BBX 7 9 0 -1
BITMAP
01133100
0C753200
0DA88400
07121100
1A193010
76143010
B5100110
C51D8110
BF99FA10
ENDCHAR
STARTCHAR Aacute
ENCODING 193
SWIDTH 830 0
DWIDTH 7 0
BBX 7 9 0 -1
BITMAP
01444300
0C334100
0E611100
09021100
18193110
76143010
B5100110
C51D8110
BF99FA10
ENDCHAR
STARTCHAR Acircumflex
ENCODING 194
SWIDTH 830 0
DWIDTH 7 0
BBX 7 9 0 -1
BITMAP
00211000
06898300
0E300100
08021100
18193110
76143010
B5100110
C61D8110
BF99F900
ENDCHAR
STARTCHAR Atilde
ENCODING 195
SWIDTH 830 0
DWIDTH 7 0
BBX 7 9 0 -1
BITMAP
00100100
0A431200
0E844200
09121100
19193110
76143010
B5100110
C51D8110
BF99FA10
ENDCHAR
STARTCHAR Adieresis
ENCODING 196
SWIDTH 830 0
DWIDTH 7 0
BBX 7 9 0 -1
BITMAP
02121100
1D161100
2F955300
0B121100
19193110
76143010
B5100110
C51D8110
BF99FA10
ENDCHAR
STARTCHAR Aring
ENCODING 197
SWIDTH 830 0
DWIDTH 7 0
BBX 7 9 0 -1
BITMAP
00011000
07385100
0F411100
0C021100
18193110
76143010
B5100110
C51D8110
BF99F900
ENDCHAR
STARTCHAR AE
ENCODING 198
SWIDTH 1105 0
DWIDTH 9 0
BBX 9 7 0 -1
BITMAP
0331111120
0C02223320
4808716810
9615304800
B510016410
C51D711110
BF9AFEEC20
ENDCHAR
STARTCHAR Ccedilla
ENCODING 199
SWIDTH 728 0
DWIDTH 6 0
BBX 6 8 0 -2
BITMAP
022322
561001
A61BC1
B61100
B61111
AC2111
3DD130
03FA10
ENDCHAR
STARTCHAR Egrave
ENCODING 200
SWIDTH 754 0
DWIDTH 6 0
BBX 6 9 0 -1
BITMAP
074441
4E5321
281112
871111
A717A3
A72331
A71661
A71111
9FEED3
ENDCHAR
STARTCHAR Eacute
ENCODING 201
SWIDTH 754 0
DWIDTH 6 0
BBX 6 9 0 -1
BITMAP
014443
0D3341
281112
971111
A717A3
A72331
A71661
A71111
9FEED3
ENDCHAR
STARTCHAR Ecircumflex
ENCODING 202
SWIDTH 754 0
DWIDTH 6 0
BBX 6 9 0 -1
BITMAP
001110
085852
381112
871111
A717A3
A72331
A71661
A71111
9FEED3
ENDCHAR
STARTCHAR Edieresis
ENCODING 203
SWIDTH 754 0
DWIDTH 6 0
BBX 6 9 0 -1
BITMAP
021211
2C0701
4A5555
771111
A717A3
A72331
A71661
A71111
9FEED3
ENDCHAR
STARTCHAR Igrave
ENCODING 204
SWIDTH 705 0
DWIDTH 6 0
BBX 6 9 0 -1
BITMAP
174440
7C5311
561111
A72231
9E6150
0A6110
073111
951211
BFEEA1
ENDCHAR
STARTCHAR Iacute
ENCODING 205
SWIDTH 705 0
DWIDTH 6 0
BBX 6 9 0 -1
BITMAP
034541
5A2330
761111
972231
9E6150
0A6110
073111
951211
BFEEA1
ENDCHAR
STARTCHAR Icircumflex
ENCODING 206
SWIDTH 705 0
DWIDTH 6 0
BBX 6 9 0 -1
BITMAP
010100
176841
761111
972231
9E6150
0A6110
073111
951211
BFEEA1
ENDCHAR
STARTCHAR Idieresis
ENCODING 207
SWIDTH 705 0
DWIDTH 6 0
BBX 6 9 0 -1
BITMAP
021211
770701
A95553
A72231
9E6150
0A6110
073111
951211
BFEEA1
ENDCHAR
STARTCHAR Eth
ENCODING 208
SWIDTH 856 0
DWIDTH 7 0
BBX 7 7 0 -1
BITMAP
16111110
88111110
87178110
B121B110
F7168110
98111210
8FEEC300
ENDCHAR
STARTCHAR Ntilde
ENCODING 209
SWIDTH 853 0
DWIDTH 7 0
BBX 7 9 0 -1
BITMAP
00201100
0A532100
172BA110
97228110
A7111110
A7141110
A71B5210
A70A9010
9F98FA10
ENDCHAR
STARTCHAR Ograve
ENCODING 210
SWIDTH 837 0
DWIDTH 7 0
BBX 7 9 0 -1
BITMAP
04544200
0E743100
08412310
76100110
B61B7110
B61A8110
B6197110
AC312310
2BFEA200
ENDCHAR
STARTCHAR Oacute
ENCODING 211
SWIDTH 837 0
DWIDTH 7 0
BBX 7 9 0 -1
BITMAP
01434200
0C434100
0B412210
86100110
B61B7110
B61A8110
B6197110
AC312310
2BFEA200
ENDCHAR
STARTCHAR Ocircumflex
ENCODING 212
SWIDTH 837 0
DWIDTH 7 0
BBX 7 9 0 -1
BITMAP
00111000
0A877400
09111210
86100110
B61B7110
B61A8110
B6197110
AC312300
2BFEA100
ENDCHAR
STARTCHAR Otilde
ENCODING 213
SWIDTH 837 0
DWIDTH 7 0
BBX 7 9 0 -1
BITMAP
01200100
0C431100
0B533310
86100110
B61B7110
B61A8110
B6197110
AC312310
2BFEA200
ENDCHAR
STARTCHAR Odieresis
ENCODING 214
SWIDTH 837 0
DWIDTH 7 0
BBX 7 9 0 -1
BITMAP
02122100
1E162100
1D755510
87100110
B61B7110
B61A8110
B6197110
AC312310
2BFEA200
ENDCHAR
STARTCHAR multiply
ENCODING 215
SWIDTH 834 0
DWIDTH 7 0
BBX 7 6 0 0
BITMAP
00201100
18122110
5F721200
07311100
3C2C9210
2C47B100
ENDCHAR
STARTCHAR Oslash
ENCODING 216
SWIDTH 837 0
DWIDTH 7 0
BBX 7 9 0 -2
BITMAP
00002200
02234210
56116410
B61B3110
B6195110
B6569110
AB422310
5E8CA200
27200000
ENDCHAR
STARTCHAR Ugrave
ENCODING 217
SWIDTH 846 0
DWIDTH 7 0
BBX 7 9 0 -1
BITMAP
05554200
0E743100
271A9110
A7199110
A7199110
A7199110
A7165110
9C312310
2BFEA200
ENDCHAR
STARTCHAR Uacute
ENCODING 218
SWIDTH 846 0
DWIDTH 7 0
BBX 7 9 0 -1
BITMAP
00445300
0A534100
26189110
A7199110
A7199110
A7199110
A7165110
9C312310
2BFEA200
ENDCHAR
STARTCHAR Ucircumflex
ENCODING 219
SWIDTH 846 0
DWIDTH 7 0
BBX 7 9 0 -1
BITMAP
00200100
08BED700
37199110
A7199110
A7199110
A7198110
A7100110
9C311310
2BFEA200
ENDCHAR
STARTCHAR Udieresis
ENCODING 220
SWIDTH 846 0
DWIDTH 7 0
BBX 7 9 0 -1
BITMAP
02122100
1E152100
2A5CB530
A7189110
A7199110
A7199110
A7165110
9C311210
2BFEA200
ENDCHAR
STARTCHAR Yacute
ENCODING 221
SWIDTH 805 0
DWIDTH 6 0
BBX 7 9 0 -1
BITMAP
01444300
0D334100
452A7210
C41B6110
C6152110
AE221100
2EB11000
06C01000
04FC2000
ENDCHAR
STARTCHAR Thorn
ENCODING 222
SWIDTH 792 0
DWIDTH 6 0
BBX 7 7 0 -1
BITMAP
26110000
97223200
A7100110
A71B5110
A7232200
A70A9100
9F800000
ENDCHAR
STARTCHAR germandbls
ENCODING 223
SWIDTH 859 0
DWIDTH 7 0
BBX 7 7 0 -1
BITMAP
26111200
97112100
A7182100
A7191110
A71AA110
A7171120
9FCFD700
ENDCHAR
STARTCHAR agrave
ENCODING 224
SWIDTH 830 0
DWIDTH 7 0
BBX 7 9 0 -1
BITMAP
01133100
0C753200
0DA88400
07121100
1A193010
76143010
B5100110
C51D8110
BF99FA10
ENDCHAR
STARTCHAR aacute
ENCODING 225
SWIDTH 830 0
DWIDTH 7 0
BBX 7 9 0 -1
BITMAP
01444300
0C334100
0E611100
09021100
18193110
76143010
B5100110
C51D8110
BF99FA10
ENDCHAR
STARTCHAR acircumflex
ENCODING 226
SWIDTH 830 0
DWIDTH 7 0
BBX 7 9 0 -1
BITMAP
00211000
06898300
0E300100
08021100
18193110
76143010
B5100110
C61D8110
BF99F900
ENDCHAR
STARTCHAR atilde
ENCODING 227
SWIDTH 830 0
DWIDTH 7 0
BBX 7 9 0 -1
BITMAP
00100100
0A431200
0E844200
09121100
19193110
76143010
B5100110
C51D8110
BF99FA10
ENDCHAR
STARTCHAR adieresis
ENCODING 228
SWIDTH 830 0
DWIDTH 7 0
BBX 7 9 0 -1
BITMAP
02121100
1D161100
2F955300
0B121100
19193110
76143010
B5100110
C51D8110
BF99FA10
ENDCHAR
STARTCHAR aring
ENCODING 229
SWIDTH 830 0
DWIDTH 7 0
BBX 7 9 0 -1
BITMAP
00011000
07385100
0F411100
0C021100
18193110
76143010
B5100110
C51D8110
BF99F900
ENDCHAR
STARTCHAR ae
ENCODING 230
SWIDTH 1105 0
DWIDTH 9 0
BBX 9 7 0 -1
BITMAP
0331111120
0C02223320
4808716810
9615304800
B510016410
C51D711110
BF9AFEEC20
ENDCHAR
STARTCHAR ccedilla
ENCODING 231
SWIDTH 728 0
DWIDTH 6 0
BBX 6 8 0 -2
BITMAP
022322
561001
A61BC1
B61100
B61111
AC2111
3DD130
03FA10
ENDCHAR
STARTCHAR egrave
ENCODING 232
SWIDTH 754 0
DWIDTH 6 0
BBX 6 9 0 -1
BITMAP
074441
4E5321
281112
871111
A717A3
A72331
A71661
A71111
9FEED3
ENDCHAR
STARTCHAR eacute
ENCODING 233
SWIDTH 754 0
DWIDTH 6 0
BBX 6 9 0 -1
BITMAP
014443
0D3341
281112
971111
A717A3
A72331
A71661
A71111
9FEED3
ENDCHAR
STARTCHAR ecircumflex
ENCODING 234
SWIDTH 754 0
DWIDTH 6 0
BBX 6 9 0 -1
BITMAP
001110
085852
381112
871111
A717A3
A72331
A71661
A71111
9FEED3
ENDCHAR
STARTCHAR edieresis
ENCODING 235
SWIDTH 754 0
DWIDTH 6 0
BBX 6 9 0 -1
BITMAP
021211
2C0701
4A5555
771111
A717A3
A72331
A71661
A71111
9FEED3
ENDCHAR
STARTCHAR igrave
ENCODING 236
SWIDTH 705 0
DWIDTH 6 0
BBX 6 9 0 -1
BITMAP
174440
7C5311
561111
A72231
9E6150
0A6110
073111
951211
BFEEA1
ENDCHAR
STARTCHAR iacute
ENCODING 237
SWIDTH 705 0
DWIDTH 6 0
BBX 6 9 0 -1
BITMAP
034541
5A2330
761111
972231
9E6150
0A6110
073111
951211
BFEEA1
ENDCHAR
STARTCHAR icircumflex
ENCODING 238
SWIDTH 705 0
DWIDTH 6 0
BBX 6 9 0 -1
BITMAP
010100
176841
761111
972231
9E6150
0A6110
073111
951211
BFEEA1
ENDCHAR
STARTCHAR idieresis
ENCODING 239
SWIDTH 705 0
DWIDTH 6 0
BBX 6 9 0 -1
BITMAP
021211
770701
A95553
A72231
9E6150
0A6110
073111
951211
BFEEA1
ENDCHAR
STARTCHAR eth
ENCODING 240
SWIDTH 856 0
DWIDTH 7 0
BBX 7 7 0 -1
BITMAP
16111110
88111110
87178110
B121B110
F7168110
98111210
8FEEC300
ENDCHAR
STARTCHAR ntilde
ENCODING 241
SWIDTH 853 0
DWIDTH 7 0
BBX 7 9 0 -1
BITMAP
00201100
0A532100
172BA110
97228110
A7111110
A7141110
A71B5210
A70A9010
9F98FA10
ENDCHAR
STARTCHAR ograve
ENCODING 242
SWIDTH 837 0
DWIDTH 7 0
BBX 7 9 0 -1
BITMAP
04544200
0E743100
08412310
76100110
B61B7110
B61A8110
B6197110
AC312310
2BFEA200
ENDCHAR
STARTCHAR oacute
ENCODING 243
SWIDTH 837 0
DWIDTH 7 0
BBX 7 9 0 -1
BITMAP
01434200
0C434100
0B412210
86100110
B61B7110
B61A8110
B6197110
AC312310
2BFEA200
ENDCHAR
STARTCHAR ocircumflex
ENCODING 244
SWIDTH 837 0
DWIDTH 7 0
BBX 7 9 0 -1
BITMAP
00111000
0A877400
09111210
86100110
B61B7110
B61A8110
B6197110
AC312300
2BFEA100
ENDCHAR
STARTCHAR otilde
ENCODING 245
SWIDTH 837 0
DWIDTH 7 0
BBX 7 9 0 -1
BITMAP
01200100
0C431100
0B533310
86100110
B61B7110
B61A8110
B6197110
AC312310
2BFEA200
ENDCHAR
STARTCHAR odieresis
ENCODING 246
SWIDTH 837 0
DWIDTH 7 0
BBX 7 9 0 -1
BITMAP
02122100
1E162100
1D755510
87100110
B61B7110
B61A8110
B6197110
AC312310
2BFEA200
ENDCHAR
STARTCHAR divide
ENCODING 247
SWIDTH 834 0
DWIDTH 7 0
BBX 7 7 0 -1
BITMAP
00211000
01D01000
03854110
67111110
9DA56700
26E02100
02ED5000
ENDCHAR
STARTCHAR oslash
ENCODING 248
SWIDTH 837 0
DWIDTH 7 0
BBX 7 9 0 -2
BITMAP
00002200
02234210
56116410
B61B3110
B6195110
B6569110
AB422310
5E8CA200
27200000
ENDCHAR
STARTCHAR ugrave
ENCODING 249
SWIDTH 846 0
DWIDTH 7 0
BBX 7 9 0 -1
BITMAP
05554200
0E743100
271A9110
A7199110
A7199110
A7199110
A7165110
9C312310
2BFEA200
ENDCHAR
STARTCHAR uacute
ENCODING 250
SWIDTH 846 0
DWIDTH 7 0
BBX 7 9 0 -1
BITMAP
00445300
0A534100
26189110
A7199110
A7199110
A7199110
A7165110
9C312310
2BFEA200
ENDCHAR
STARTCHAR ucircumflex
ENCODING 251
SWIDTH 846 0
DWIDTH 7 0
BBX 7 9 0 -1
BITMAP
00200100
08BED700
37199110
A7199110
A7199110
A7198110
A7100110
9C311310
2BFEA200
ENDCHAR
STARTCHAR udieresis
ENCODING 252
SWIDTH 846 0
DWIDTH 7 0
BBX 7 9 0 -1
BITMAP
02122100
1E152100
2A5CB530
A7189110
A7199110
A7199110
A7165110
9C311210
2BFEA200
ENDCHAR
STARTCHAR yacute
ENCODING 253
SWIDTH 805 0
DWIDTH 6 0
BBX 7 9 0 -1
BITMAP
01444300
0D334100
452A7210
C41B6110
C6152110
AE221100
2EB11000
06C01000
04FC2000
ENDCHAR
STARTCHAR thorn
ENCODING 254
SWIDTH 792 0
DWIDTH 6 0
BBX 7 7 0 -1
BITMAP
26110000
97223200
A7100110
A71B5110
A7232200
A70A9100
9F800000
ENDCHAR
STARTCHAR ydieresis
ENCODING 255
SWIDTH 805 0
DWIDTH 6 0
BBX 7 9 0 -1
BITMAP
02121100
2D171100
485EA520
C41B6110
C6162110
BE221100
2EB11000
06C01000
04FC2000
ENDCHAR
STARTCHAR Amacron
ENCODING 256
SWIDTH 830 0
DWIDTH 7 0
BBX 7 9 0 -1
BITMAP
00211100
0A311100
0E955300
0A121100
19193110
76143010
B5100110
C51D8110
BF99FA10
ENDCHAR
STARTCHAR amacron
ENCODING 257
SWIDTH 830 0
DWIDTH 7 0
BBX 7 9 0 -1
BITMAP
00211100
0A311100
0E955300
0A121100
19193110
76143010
B5100110
C51D8110
BF99FA10
ENDCHAR
STARTCHAR Abreve
ENCODING 258
SWIDTH 830 0
DWIDTH 7 0
BBX 7 9 0 -1
BITMAP
01213100
0D612000
0D844300
08121200
19193120
76143010
B5100110
C51D8110
BF99FA10
ENDCHAR
STARTCHAR abreve
ENCODING 259
SWIDTH 830 0
DWIDTH 7 0
BBX 7 9 0 -1
BITMAP
01213100
0D612000
0D844300
08121200
19193120
76143010
B5100110
C51D8110
BF99FA10
ENDCHAR
STARTCHAR Aogonek
ENCODING 260
SWIDTH 830 0
DWIDTH 7 0
BBX 7 9 0 -3
BITMAP
00211100
07021100
18193110
76143010
B5100110
C51D8110
BF9A6310
000B7010
0009FA00
ENDCHAR
STARTCHAR aogonek
ENCODING 261
SWIDTH 830 0
DWIDTH 7 0
BBX 7 9 0 -3
BITMAP
00211100
07021100
18193110
76143010
B5100110
C51D8110
BF9A6310
000B7010
0009FA00
ENDCHAR
STARTCHAR Cacute
ENCODING 262
SWIDTH 728 0
DWIDTH 6 0
BBX 6 9 0 -1
BITMAP
014453
0B4341
0B3112
141111
961BC1
B61100
B61111
AC2111
3DFEC2
ENDCHAR
STARTCHAR cacute
ENCODING 263
SWIDTH 728 0
DWIDTH 6 0
BBX 6 9 0 -1
BITMAP
014453
0B4341
0B3112
141111
961BC1
B61100
B61111
AC2111
3DFEC2
ENDCHAR
STARTCHAR Ccircumflex
ENCODING 264
SWIDTH 728 0
DWIDTH 6 0
BBX 6 9 0 -1
BITMAP
001110
074862
2D3112
151111
961BC1
B61100
B61111
AC2111
3DFEC2
ENDCHAR
STARTCHAR ccircumflex
ENCODING 265
SWIDTH 728 0
DWIDTH 6 0
BBX 6 9 0 -1
BITMAP
001110
074862
2D3112
151111
961BC1
B61100
B61111
AC2111
3DFEC2
ENDCHAR
STARTCHAR Cdotaccent
ENCODING 266
SWIDTH 728 0
DWIDTH 6 0
BBX 6 9 0 -1
BITMAP
002110
02C110
023112
351111
A61BC1
B61100
B61111
AC2111
3DFEC2
ENDCHAR
STARTCHAR cdotaccent
ENCODING 267
SWIDTH 728 0
DWIDTH 6 0
BBX 6 9 0 -1
BITMAP
002110
02C110
023112
351111
A61BC1
B61100
B61111
AC2111
3DFEC2
ENDCHAR
STARTCHAR Ccaron
ENCODING 268
SWIDTH 728 0
DWIDTH 6 0
BBX 6 9 0 -1
BITMAP
072111
1F7240
1A3112
241111
A61BC1
B61100
B61111
AC2111
3DFEC2
ENDCHAR
STARTCHAR ccaron
ENCODING 269
SWIDTH 728 0
DWIDTH 6 0
BBX 6 9 0 -1
BITMAP
072111
1F7240
1A3112
241111
A61BC1
B61100
B61111
AC2111
3DFEC2
ENDCHAR
STARTCHAR Dcaron
ENCODING 270
SWIDTH 846 0
DWIDTH 7 0
BBX 7 9 0 -1
BITMAP
05411200
0D934100
16001110
97111110
A7197110
A7199110
A7154110
A7111210
9FEEB200
ENDCHAR
STARTCHAR dcaron
ENCODING 271
SWIDTH 846 0
DWIDTH 7 0
BBX 7 9 0 -1
BITMAP
05411200
0D934100
16001110
97111110
A7197110
A7199110
A7154110
A7111210
9FEEB200
ENDCHAR
STARTCHAR Dcroat
ENCODING 272
SWIDTH 856 0
DWIDTH 7 0
BBX 7 7 0 -1
BITMAP
16111110
88111110
87178110
B121B110
F7168110
98111210
8FEEC300
ENDCHAR
STARTCHAR dcroat
ENCODING 273
SWIDTH 856 0
DWIDTH 7 0
BBX 7 7 0 -1
BITMAP
16111110
88111110
87178110
B121B110
F7168110
98111210
8FEEC300
ENDCHAR
STARTCHAR Emacron
ENCODING 274
SWIDTH 754 0
DWIDTH 6 0
BBX 6 9 0 -1
BITMAP
021111
1C1111
381112
771111
A717A3
A72331
A71661
A71111
9FEED3
ENDCHAR
STARTCHAR emacron
ENCODING 275
SWIDTH 754 0
DWIDTH 6 0
BBX 6 9 0 -1
BITMAP
021111
1C1111
381112
771111
A717A3
A72331
A71661
A71111
9FEED3
ENDCHAR
STARTCHAR Ebreve
ENCODING 276
SWIDTH 754 0
DWIDTH 6 0
BBX 6 9 0 -1
BITMAP
021221
1E4120
181112
971111
A717A3
A72331
A71661
A71111
9FEED3
ENDCHAR
STARTCHAR ebreve
ENCODING 277
SWIDTH 754 0
DWIDTH 6 0
BBX 6 9 0 -1
BITMAP
021221
1E4120
181112
971111
A717A3
A72331
A71661
A71111
9FEED3
ENDCHAR
STARTCHAR Edotaccent
ENCODING 278
SWIDTH 754 0
DWIDTH 6 0
BBX 6 9 0 -1
BITMAP
003110
069110
261112
971111
A717A3
A72331
A71661
A71111
9FEED3
ENDCHAR
STARTCHAR edotaccent
ENCODING 279
SWIDTH 754 0
DWIDTH 6 0
BBX 6 9 0 -1
BITMAP
003110
069110
261112
971111
A717A3
A72331
A71661
A71111
9FEED3
ENDCHAR
STARTCHAR Eogonek
ENCODING 280
SWIDTH 754 0
DWIDTH 6 0
BBX 6 9 0 -3
BITMAP
261112
971111
A717A3
A72331
A71661
A71121
9FEC24
005D11
003EE3
ENDCHAR
STARTCHAR eogonek
ENCODING 281
SWIDTH 754 0
DWIDTH 6 0
BBX 6 9 0 -3
BITMAP
261112
971111
A717A3
A72331
A71661
A71121
9FEC24
005D11
003EE3
ENDCHAR
STARTCHAR Ecaron
ENCODING 282
SWIDTH 754 0
DWIDTH 6 0
BBX 6 9 0 -1
BITMAP
082111
2F7240
171112
971111
A717A3
A72331
A71661
A71111
9FEED3
ENDCHAR
STARTCHAR ecaron
ENCODING 283
SWIDTH 754 0
DWIDTH 6 0
BBX 6 9 0 -1
BITMAP
082111
2F7240
171112
971111
A717A3
A72331
A71661
A71111
9FEED3
ENDCHAR
STARTCHAR Gcircumflex
ENCODING 284
SWIDTH 808 0
DWIDTH 6 0
BBX 7 9 0 -1
BITMAP
00201000
04888400
08100100
14111200
96157110
B6185110
B6163110
AC211110
3DFEE700
ENDCHAR
STARTCHAR gcircumflex
ENCODING 285
SWIDTH 808 0
DWIDTH 6 0
BBX 7 9 0 -1
BITMAP
00201000
04888400
08100100
14111200
96157110
B6185110
B6163110
AC211110
3DFEE700
ENDCHAR
STARTCHAR Gbreve
ENCODING 286
SWIDTH 808 0
DWIDTH 6 0
BBX 7 9 0 -1
BITMAP
01213100
0C722100
09311200
24111100
A6157110
B6185110
B6163110
AC211110
3DFEE700
ENDCHAR
STARTCHAR gbreve
ENCODING 287
SWIDTH 808 0
DWIDTH 6 0
BBX 7 9 0 -1
BITMAP
01213100
0C722100
09311200
24111100
A6157110
B6185110
B6163110
AC211110
3DFEE700
ENDCHAR
STARTCHAR Gdotaccent
ENCODING 288
SWIDTH 808 0
DWIDTH 6 0
BBX 7 9 0 -1
BITMAP
00211000
01E11000
01311200
35111100
A6157110
B6185110
B6163110
AC211110
3DFEE700
ENDCHAR
STARTCHAR gdotaccent
ENCODING 289
SWIDTH 808 0
DWIDTH 6 0
BBX 7 9 0 -1
BITMAP
00211000
01E11000
01311200
35111100
A6157110
B6185110
B6163110
AC211110
3DFEE700
ENDCHAR
STARTCHAR Gcommaaccent
ENCODING 290
SWIDTH 808 0
DWIDTH 6 0
BBX 7 10 0 -4
BITMAP
02332200
57100100
A6157110
B6185110
B6163110
AA111110
3DC66300
01F52000
01F51000
00740000
ENDCHAR
STARTCHAR gcommaaccent
ENCODING 291
SWIDTH 808 0
DWIDTH 6 0
BBX 7 10 0 -4
BITMAP
02332200
57100100
A6157110
B6185110
B6163110
AA111110
3DC66300
01F52000
01F51000
00740000
ENDCHAR
STARTCHAR Hcircumflex
ENCODING 292
SWIDTH 859 0
DWIDTH 7 0
BBX 7 9 0 -1
BITMAP
00111000
07898400
2719A110
97189110
A7155110
A7211210
A71B9110
A7099010
9F97FB10
ENDCHAR
STARTCHAR hcircumflex
ENCODING 293
SWIDTH 859 0
DWIDTH 7 0
BBX 7 9 0 -1
BITMAP
00111000
07898400
2719A110
97189110
A7155110
A7211210
A71B9110
A7099010
9F97FB10
ENDCHAR
STARTCHAR Hbar
ENCODING 294
SWIDTH 879 0
DWIDTH 7 0
BBX 7 7 0 -1
BITMAP
37115110
A5236210
E7167120
B8100110
88211210
880AB010
8FA7FB10
ENDCHAR
STARTCHAR hbar
ENCODING 295
SWIDTH 879 0
DWIDTH 7 0
BBX 7 7 0 -1
BITMAP
37115110
A5236210
E7167120
B8100110
88211210
880AB010
8FA7FB10
ENDCHAR
STARTCHAR Itilde
ENCODING 296
SWIDTH 705 0
DWIDTH 6 0
BBX 6 9 0 -1
BITMAP
010010
393211
761111
972231
9E6150
0A6110
073111
951211
BFEEA1
ENDCHAR
STARTCHAR itilde
ENCODING 297
SWIDTH 705 0
DWIDTH 6 0
BBX 6 9 0 -1
BITMAP
010010
393211
761111
972231
9E6150
0A6110
073111
951211
BFEEA1
ENDCHAR
STARTCHAR Imacron
ENCODING 298
SWIDTH 705 0
DWIDTH 6 0
BBX 6 9 0 -1
BITMAP
021110
3A1101
795553
972231
9E6150
0A6110
073111
951211
BFEEA1
ENDCHAR
STARTCHAR imacron
ENCODING 299
SWIDTH 705 0
DWIDTH 6 0
BBX 6 9 0 -1
BITMAP
021110
3A1101
795553
972231
9E6150
0A6110
073111
951211
BFEEA1
ENDCHAR
STARTCHAR Ibreve
ENCODING 300
SWIDTH 705 0
DWIDTH 6 0
BBX 6 9 0 -1
BITMAP
031211
6C3110
561111
A72231
9E6150
0A6110
073111
951211
BFEEA1
ENDCHAR
STARTCHAR ibreve
ENCODING 301
SWIDTH 705 0
DWIDTH 6 0
BBX 6 9 0 -1
BITMAP
031211
6C3110
561111
A72231
9E6150
0A6110
073111
951211
BFEEA1
ENDCHAR
STARTCHAR Iogonek
ENCODING 302
SWIDTH 705 0
DWIDTH 6 0
BBX 6 9 0 -3
BITMAP
351111
B72231
8E6150
0A6110
073111
951211
BFE532
00B701
009FA0
ENDCHAR
STARTCHAR iogonek
ENCODING 303
SWIDTH 705 0
DWIDTH 6 0
BBX 6 9 0 -3
BITMAP
351111
B72231
8E6150
0A6110
073111
951211
BFE532
00B701
009FA0
ENDCHAR
STARTCHAR Idotaccent
ENCODING 304
SWIDTH 705 0
DWIDTH 6 0
BBX 6 9 0 -1
BITMAP
003110
097110
251111
B72231
8E6150
0A6110
073111
951211
BFEEA1
ENDCHAR
STARTCHAR dotlessi
ENCODING 305
SWIDTH 705 0
DWIDTH 6 0
BBX 6 7 0 -1
BITMAP
351111
B72231
8E6150
0A6110
073111
951211
BFEEA1
ENDCHAR
STARTCHAR IJ
ENCODING 306
SWIDTH 844 0
DWIDTH 7 0
BBX 7 7 0 -1
BITMAP
26126110
971A8110
A71B8110
AB6C8110
4A453110
87111200
9FEEB200
ENDCHAR
STARTCHAR ij
ENCODING 307
SWIDTH 844 0
DWIDTH 7 0
BBX 7 7 0 -1
BITMAP
26126110
971A8110
A71B8110
AB6C8110
4A453110
87111200
9FEEB200
ENDCHAR
STARTCHAR Jcircumflex
ENCODING 308
SWIDTH 788 0
DWIDTH 6 0
BBX 7 9 0 -1
BITMAP
00011110
009A9850
006D1100
000F2200
022F2200
A41F2200
D4171100
CB312200
3CFD6000
ENDCHAR
STARTCHAR jcircumflex
ENCODING 309
SWIDTH 788 0
DWIDTH 6 0
BBX 7 9 0 -1
BITMAP
00011110
009A9850
006D1100
000F2200
022F2200
A41F2200
D4171100
CB312200
3CFD6000
ENDCHAR
STARTCHAR Kcommaaccent
ENCODING 310
SWIDTH 846 0
DWIDTH 7 0
BBX 7 10 0 -4
BITMAP
26254210
97171200
A7212110
A7175110
A71A9110
A7099010
9FA5AA00
01E52000
01F51000
00740000
ENDCHAR
STARTCHAR kcommaaccent
ENCODING 311
SWIDTH 846 0
DWIDTH 7 0
BBX 7 10 0 -4
BITMAP
26254210
97171200
A7212110
A7175110
A71A9110
A7099010
9FA5AA00
01E52000
01F51000
00740000
ENDCHAR
STARTCHAR kgreenlandic
ENCODING 312
SWIDTH 846 0
DWIDTH 7 0
BBX 7 7 0 -1
BITMAP
26124110
971A2200
A7141200
A7212110
A7198110
A7099010
9F98FB10
ENDCHAR
STARTCHAR Lacute
ENCODING 313
SWIDTH 795 0
DWIDTH 6 0
BBX 7 9 0 -1
BITMAP
00111000
47355000
9B8A2000
97110000
A7112110
A7186110
A7163110
A7111110
9FEEE700
ENDCHAR
STARTCHAR lacute
ENCODING 314
SWIDTH 795 0
DWIDTH 6 0
BBX 7 9 0 -1
BITMAP
00111000
47355000
9B8A2000
97110000
A7112110
A7186110
A7163110
A7111110
9FEEE700
ENDCHAR
STARTCHAR Lcommaaccent
ENCODING 315
SWIDTH 795 0
DWIDTH 6 0
BBX 7 10 0 -4
BITMAP
26110000
97110000
A7112110
A7186110
A7163110
A7111110
9DA67300
02E42000
02F41000
01740000
ENDCHAR
STARTCHAR lcommaaccent
ENCODING 316
SWIDTH 795 0
DWIDTH 6 0
BBX 7 10 0 -4
BITMAP
26110000
97110000
A7112110
A7186110
A7163110
A7111110
9DA67300
02E42000
02F41000
01740000
ENDCHAR
STARTCHAR Lcaron
ENCODING 317
SWIDTH 795 0
DWIDTH 6 0
BBX 7 7 0 -1
BITMAP
26155210
971B3200
A71BB410
A7196110
A7163110
A7111110
9FEEE700
ENDCHAR
STARTCHAR lcaron
ENCODING 318
SWIDTH 795 0
DWIDTH 6 0
BBX 7 7 0 -1
BITMAP
26155210
971B3200
A71BB410
A7196110
A7163110
A7111110
9FEEE700
ENDCHAR
STARTCHAR Ldot
ENCODING 319
SWIDTH 795 0
DWIDTH 6 0
BBX 7 7 0 -1
BITMAP
26110000
97122100
A7195110
A71BB610
A7154110
A7111110
9FEEE700
ENDCHAR
STARTCHAR ldot
ENCODING 320
SWIDTH 795 0
DWIDTH 6 0
BBX 7 7 0 -1
BITMAP
26110000
97122100
A7195110
A71BB610
A7154110
A7111110
9FEEE700
ENDCHAR
STARTCHAR Lslash
ENCODING 321
SWIDTH 805 0
DWIDTH 6 0
BBX 7 7 0 -1
BITMAP
26110000
88111000
A2213110
F5187110
D8154110
88111110
8FEEE800
ENDCHAR
STARTCHAR lslash
ENCODING 322
SWIDTH 805 0
DWIDTH 6 0
BBX 7 7 0 -1
BITMAP
26110000
88111000
A2213110
F5187110
D8154110
88111110
8FEEE800
ENDCHAR
STARTCHAR Nacute
ENCODING 323
SWIDTH 853 0
DWIDTH 7 0
BBX 7 9 0 -1
BITMAP
00445300
0A634200
2629A110
97228110
A7111110
A7141110
A71B5210
A70A9010
9F98FA10
ENDCHAR
STARTCHAR nacute
ENCODING 324
SWIDTH 853 0
DWIDTH 7 0
BBX 7 9 0 -1
BITMAP
00445300
0A634200
2629A110
97228110
A7111110
A7141110
A71B5210
A70A9010
9F98FA10
ENDCHAR
STARTCHAR Ncommaaccent
ENCODING 325
SWIDTH 853 0
DWIDTH 7 0
BBX 7 10 0 -4
BITMAP
26247210
97226110
A7111110
A7181210
A71B8110
A7099010
9FA5AA10
01E52000
01E52000
00740000
ENDCHAR
STARTCHAR ncommaaccent
ENCODING 326
SWIDTH 853 0
DWIDTH 7 0
BBX 7 10 0 -4
BITMAP
26247210
97226110
A7111110
A7181210
A71B8110
A7099010
9FA5AA10
01E52000
01E52000
00740000
ENDCHAR
STARTCHAR Ncaron
ENCODING 327
SWIDTH 853 0
DWIDTH 7 0
BBX 7 9 0 -1
BITMAP
07521200
0E834200
2729A110
97228110
A7111110
A7141110
A71B5210
A70A9010
9F98FA10
ENDCHAR
STARTCHAR ncaron
ENCODING 328
SWIDTH 853 0
DWIDTH 7 0
BBX 7 9 0 -1
BITMAP
07521200
0E834200
2729A110
97228110
A7111110
A7141110
A71B5210
A70A9010
9F98FA10
ENDCHAR
STARTCHAR napostrophe
ENCODING 329
SWIDTH 853 0
DWIDTH 7 0
BBX 7 10 0 -1
BITMAP
03110000
96110000
A8200000
99427430
97238110
A7111110
A7141110
A71B5210
A70A9010
9F98FA10
ENDCHAR
STARTCHAR Eng
ENCODING 330
SWIDTH 846 0
DWIDTH 7 0
BBX 7 8 0 -2
BITMAP
02233210
47154110
A71B8110
A71A8110
A71A8110
A7070010
AFCD1200
003A7000
ENDCHAR
STARTCHAR eng
ENCODING 331
SWIDTH 846 0
DWIDTH 7 0
BBX 7 8 0 -2
BITMAP
02233210
47154110
A71B8110
A71A8110
A71A8110
A7070010
AFCD1200
003A7000
ENDCHAR
STARTCHAR Omacron
ENCODING 332
SWIDTH 837 0
DWIDTH 7 0
BBX 7 9 0 -1
BITMAP
01211100
0D311100
0C755410
87100110
B61B7110
B61A8110
B6197110
AC312310
2BFEA200
ENDCHAR
STARTCHAR omacron
ENCODING 333
SWIDTH 837 0
DWIDTH 7 0
BBX 7 9 0 -1
BITMAP
01211100
0D311100
0C755410
87100110
B61B7110
B61A8110
B6197110
AC312310
2BFEA200
ENDCHAR
STARTCHAR Obreve
ENCODING 334
SWIDTH 837 0
DWIDTH 7 0
BBX 7 9 0 -1
BITMAP
02213100
0E612200
09645210
77100110
B61B7110
B61A8110
B6197110
AC312310
2BFEA200
ENDCHAR
STARTCHAR obreve
ENCODING 335
SWIDTH 837 0
DWIDTH 7 0
BBX 7 9 0 -1
BITMAP
02213100
0E612200
09645210
77100110
B61B7110
B61A8110
B6197110
AC312310
2BFEA200
ENDCHAR
STARTCHAR Ohungarumlaut
ENCODING 336
SWIDTH 837 0
DWIDTH 7 0
BBX 7 10 0 -1
BITMAP
00322100
07647200
0D374100
0C755410
87100110
B61B7110
B61A8110
B6197110
AC312310
2BFEA200
ENDCHAR
STARTCHAR ohungarumlaut
ENCODING 337
SWIDTH 837 0
DWIDTH 7 0
BBX 7 10 0 -1
BITMAP
00322100
07647200
0D374100
0C755410
87100110
B61B7110
B61A8110
B6197110
AC312310
2BFEA200
ENDCHAR
STARTCHAR OE
ENCODING 338
SWIDTH 1115 0
DWIDTH 9 0
BBX 9 7 0 -1
BITMAP
0211111120
5614321110
B61C717A20
B61C723310
B616316510
AC21121110
3CFEEEEC20
ENDCHAR
STARTCHAR oe
ENCODING 339
SWIDTH 1115 0
DWIDTH 9 0
BBX 9 7 0 -1
BITMAP
0211111120
5614321110
B61C717A20
B61C723310
B616316510
AC21121110
3CFEEEEC20
ENDCHAR
STARTCHAR Racute
ENCODING 340
SWIDTH 843 0
DWIDTH 7 0
BBX 7 9 0 -1
BITMAP
00233100
08345400
0B887200
67112110
A7182200
A7212110
A71BA110
A707B010
9F96FB20
ENDCHAR
STARTCHAR racute
ENCODING 341
SWIDTH 843 0
DWIDTH 7 0
BBX 7 9 0 -1
BITMAP
00233100
08345400
0B887200
67112110
A7182200
A7212110
A71BA110
A707B010
9F96FB20
ENDCHAR
STARTCHAR Rcommaaccent
ENCODING 342
SWIDTH 843 0
DWIDTH 7 0
BBX 7 10 0 -4
BITMAP
26333200
971A3110
A7111210
A7212110
A71BA110
A707B010
9FA59B10
01E62000
01E52000
00740000
ENDCHAR
STARTCHAR rcommaaccent
ENCODING 343
SWIDTH 843 0
DWIDTH 7 0
BBX 7 10 0 -4
BITMAP
26333200
971A3110
A7111210
A7212110
A71BA110
A707B010
9FA59B10
01E62000
01E52000
00740000
ENDCHAR
STARTCHAR Rcaron
ENCODING 344
SWIDTH 843 0
DWIDTH 7 0
BBX 7 9 0 -1
BITMAP
04411200
0D934300
09777200
77112110
A7182200
A7212110
A71BA110
A707B010
9F96FB20
ENDCHAR
STARTCHAR rcaron
ENCODING 345
SWIDTH 843 0
DWIDTH 7 0
BBX 7 9 0 -1
BITMAP
04411200
0D934300
09777200
77112110
A7182200
A7212110
A71BA110
A707B010
9F96FB20
ENDCHAR
STARTCHAR Sacute
ENCODING 346
SWIDTH 750 0
DWIDTH 6 0
BBX 6 9 0 -1
BITMAP
024442
2D2340
3C2112
251111
A51691
CA2111
7DB811
851112
BFED70
ENDCHAR
STARTCHAR sacute
ENCODING 347
SWIDTH 750 0
DWIDTH 6 0
BBX 6 9 0 -1
BITMAP
024442
2D2340
3C2112
251111
A51691
CA2111
7DB811
851112
BFED70
ENDCHAR
STARTCHAR Scircumflex
ENCODING 348
SWIDTH 750 0
DWIDTH 6 0
BBX 6 9 0 -1
BITMAP
001100
085851
4C2112
351111
A51691
CA2111
6DB811
851112
BFED70
ENDCHAR
STARTCHAR scircumflex
ENCODING 349
SWIDTH 750 0
DWIDTH 6 0
BBX 6 9 0 -1
BITMAP
001100
085851
4C2112
351111
A51691
CA2111
6DB811
851112
BFED70
ENDCHAR
STARTCHAR Scedilla
ENCODING 350
SWIDTH 750 0
DWIDTH 6 0
BBX 6 8 0 -2
BITMAP
021112
651111
B51691
CA2111
6DB811
851222
BF7160
09E600
ENDCHAR
STARTCHAR scedilla
ENCODING 351
SWIDTH 750 0
DWIDTH 6 0
BBX 6 8 0 -2
BITMAP
021112
651111
B51691
CA2111
6DB811
851222
BF7160
09E600
ENDCHAR
STARTCHAR Scaron
ENCODING 352
SWIDTH 750 0
DWIDTH 6 0
BBX 6 9 0 -1
BITMAP
082111
3F6230
192112
341111
B51691
CA2111
7DB811
851112
BFED70
ENDCHAR
STARTCHAR scaron
ENCODING 353
SWIDTH 750 0
DWIDTH 6 0
BBX 6 9 0 -1
BITMAP
082111
3F6230
192112
341111
B51691
CA2111
7DB811
851112
BFED70
ENDCHAR
STARTCHAR Tcommaaccent
ENCODING 354
SWIDTH 756 0
DWIDTH 6 0
BBX 6 10 0 -4
BITMAP
433332
E20101
EF9174
089110
089110
089110
07B620
06C410
06C410
037200
ENDCHAR
STARTCHAR tcommaaccent
ENCODING 355
SWIDTH 756 0
DWIDTH 6 0
BBX 6 10 0 -4
BITMAP
433332
E20101
EF9174
089110
089110
089110
07B620
06C410
06C410
037200
ENDCHAR
STARTCHAR Tcaron
ENCODING 356
SWIDTH 756 0
DWIDTH 6 0
BBX 6 9 0 -1
BITMAP
082111
4E6230
431112
E31211
EF9174
089110
089110
089010
07FB20
ENDCHAR
STARTCHAR tcaron
ENCODING 357
SWIDTH 756 0
DWIDTH 6 0
BBX 6 9 0 -1
BITMAP
082111
4E6230
431112
E31211
EF9174
089110
089110
089010
07FB20
ENDCHAR
STARTCHAR Tbar
ENCODING 358
SWIDTH 756 0
DWIDTH 6 0
BBX 6 7 0 -1
BITMAP
631112
F95156
6A5142
3A1211
6E7141
199010
07FB10
ENDCHAR
STARTCHAR tbar
ENCODING 359
SWIDTH 756 0
DWIDTH 6 0
BBX 6 7 0 -1
BITMAP
631112
F95156
6A5142
3A1211
6E7141
199010
07FB10
ENDCHAR
STARTCHAR Utilde
ENCODING 360
SWIDTH 846 0
DWIDTH 7 0
BBX 7 9 0 -1
BITMAP
00201100
0B432100
271B9110
A7199110
A7199110
A7199110
A7165110
9C312310
2BFEA200
ENDCHAR
STARTCHAR utilde
ENCODING 361
SWIDTH 846 0
DWIDTH 7 0
BBX 7 9 0 -1
BITMAP
00201100
0B432100
271B9110
A7199110
A7199110
A7199110
A7165110
9C312310
2BFEA200
ENDCHAR
STARTCHAR Umacron
ENCODING 362
SWIDTH 846 0
DWIDTH 7 0
BBX 7 9 0 -1
BITMAP
00211100
0B411100
185CB530
97189110
A7199110
A7199110
A7165110
9C311210
2CFEA200
ENDCHAR
STARTCHAR umacron
ENCODING 363
SWIDTH 846 0
DWIDTH 7 0
BBX 7 9 0 -1
BITMAP
00211100
0B411100
185CB530
97189110
A7199110
A7199110
A7165110
9C311210
2CFEA200
ENDCHAR
STARTCHAR Ubreve
ENCODING 364
SWIDTH 846 0
DWIDTH 7 0
BBX 7 9 0 -1
BITMAP
01213100
0D722000
261B9110
A7189110
A7199110
A7199110
A7165110
9C312310
2BFEA200
ENDCHAR
STARTCHAR ubreve
ENCODING 365
SWIDTH 846 0
DWIDTH 7 0
BBX 7 9 0 -1
BITMAP
01213100
0D722000
261B9110
A7189110
A7199110
A7199110
A7165110
9C312310
2BFEA200
ENDCHAR
STARTCHAR Uring
ENCODING 366
SWIDTH 846 0
DWIDTH 7 0
BBX 7 11 0 -1
BITMAP
00111100
05411100
0E475100
0E822000
261A9110
A7199110
A7199110
A7199110
A7155110
9C312310
2BFEA200
ENDCHAR
STARTCHAR uring
ENCODING 367
SWIDTH 846 0
DWIDTH 7 0
BBX 7 11 0 -1
BITMAP
00111100
05411100
0E475100
0E822000
261A9110
A7199110
A7199110
A7199110
A7155110
9C312310
2BFEA200
ENDCHAR
STARTCHAR Uhungarumlaut
ENCODING 368
SWIDTH 846 0
DWIDTH 7 0
BBX 7 10 0 -1
BITMAP
00212110
05738100
0A465000
185DB530
97189110
A7199110
A7199110
A7165110
9C311210
2CFEA200
ENDCHAR
STARTCHAR uhungarumlaut
ENCODING 369
SWIDTH 846 0
DWIDTH 7 0
BBX 7 10 0 -1
BITMAP
00212110
05738100
0A465000
185DB530
97189110
A7199110
A7199110
A7165110
9C311210
2CFEA200
ENDCHAR
STARTCHAR Uogonek
ENCODING 370
SWIDTH 846 0
DWIDTH 7 0
BBX 7 9 0 -3
BITMAP
25126110
A7199110
A7199110
A7199110
A7165110
9B122320
3DF34600
00F40100
00CF7000
ENDCHAR
STARTCHAR uogonek
ENCODING 371
SWIDTH 846 0
DWIDTH 7 0
BBX 7 9 0 -3
BITMAP
25126110
A7199110
A7199110
A7199110
A7165110
9B122320
3DF34600
00F40100
00CF7000
ENDCHAR
STARTCHAR Wcircumflex
ENCODING 372
SWIDTH 931 0
DWIDTH 7 0
BBX 8 9 0 -1
BITMAP
00011000
05A89600
3618D611
B611B511
B6138511
B6121211
B8113121
8D14A110
3FD8FB10
ENDCHAR
STARTCHAR wcircumflex
ENCODING 373
SWIDTH 931 0
DWIDTH 7 0
BBX 8 9 0 -1
BITMAP
00011000
05A89600
3618D611
B611B511
B6138511
B6121211
B8113121
8D14A110
3FD8FB10
ENDCHAR
STARTCHAR Ycircumflex
ENCODING 374
SWIDTH 805 0
DWIDTH 6 0
BBX 7 9 0 -1
BITMAP
00122000
0A242100
451B8110
C41B7110
C6194110
BE221100
2EB11000
06C01000
04FC2000
ENDCHAR
STARTCHAR ycircumflex
ENCODING 375
SWIDTH 805 0
DWIDTH 6 0
BBX 7 9 0 -1
BITMAP
00122000
0A242100
451B8110
C41B7110
C6194110
BE221100
2EB11000
06C01000
04FC2000
ENDCHAR
STARTCHAR Ydieresis
ENCODING 376
SWIDTH 805 0
DWIDTH 6 0
BBX 7 9 0 -1
BITMAP
02121100
2D171100
485EA520
C41B6110
C6162110
BE221100
2EB11000
06C01000
04FC2000
ENDCHAR
STARTCHAR Zacute
ENCODING 377
SWIDTH 760 0
DWIDTH 6 0
BBX 6 9 0 -1
BITMAP
024442
1D1340
381112
A71121
AFD221
033220
251111
B41111
CFEED4
ENDCHAR
STARTCHAR zacute
ENCODING 378
SWIDTH 760 0
DWIDTH 6 0
BBX 6 9 0 -1
BITMAP
024442
1D1340
381112
A71121
AFD221
033220
251111
B41111
CFEED4
ENDCHAR
STARTCHAR Zdotaccent
ENCODING 379
SWIDTH 760 0
DWIDTH 6 0
BBX 6 9 0 -1
BITMAP
003110
06A110
251112
A71121
AFD221
033220
251111
B41111
CFEED4
ENDCHAR
STARTCHAR zdotaccent
ENCODING 380
SWIDTH 760 0
DWIDTH 6 0
BBX 6 9 0 -1
BITMAP
003110
06A110
251112
A71121
AFD221
033220
251111
B41111
CFEED4
ENDCHAR
STARTCHAR Zcaron
ENCODING 381
SWIDTH 760 0
DWIDTH 6 0
BBX 6 9 0 -1
BITMAP
082111
3E6230
271112
971121
AFD221
033220
251111
B41111
CFEED4
ENDCHAR
STARTCHAR zcaron
ENCODING 382
SWIDTH 760 0
DWIDTH 6 0
BBX 6 9 0 -1
BITMAP
082111
3E6230
271112
971121
AFD221
033220
251111
B41111
CFEED4
ENDCHAR
STARTCHAR Schwa
ENCODING 399
SWIDTH 815 0
DWIDTH 7 0
BBX 7 7 0 -1
BITMAP
06233200
2E000210
2EBB5110
75111110
C5185110
BB311200
4DFE9100
ENDCHAR
STARTCHAR florin
ENCODING 402
SWIDTH 674 0
DWIDTH 5 0
BBX 6 7 0 -1
BITMAP
002111
055121
082151
A41201
CB2130
941200
CE9100
ENDCHAR
STARTCHAR Ohorn
ENCODING 416
SWIDTH 847 0
DWIDTH 7 0
BBX 7 8 0 -1
BITMAP
00000310
02112330
56100110
B61B7110
B61A8110
B6197110
AC312300
4CFEA100
ENDCHAR
STARTCHAR ohorn
ENCODING 417
SWIDTH 847 0
DWIDTH 7 0
BBX 7 8 0 -1
BITMAP
00000310
02112330
56100110
B61B7110
B61A8110
B6197110
AC312300
4CFEA100
ENDCHAR
STARTCHAR Uhorn
ENCODING 431
SWIDTH 856 0
DWIDTH 7 0
BBX 7 8 0 -1
BITMAP
00000310
25125220
A7199110
A7199110
A7199110
A7165110
AC311310
3CEEA200
ENDCHAR
STARTCHAR uhorn
ENCODING 432
SWIDTH 856 0
DWIDTH 7 0
BBX 7 8 0 -1
BITMAP
00000310
25125220
A7199110
A7199110
A7199110
A7165110
AC311310
3CEEA200
ENDCHAR
STARTCHAR Acaron
ENCODING 461
SWIDTH 830 0
DWIDTH 7 0
BBX 7 9 0 -1
BITMAP
05411200
0E834100
0A611100
07021100
18193110
76143010
B5100110
C51D8110
BF99FA10
ENDCHAR
STARTCHAR acaron
ENCODING 462
SWIDTH 830 0
DWIDTH 7 0
BBX 7 9 0 -1
BITMAP
05411200
0E834100
0A611100
07021100
18193110
76143010
B5100110
C51D8110
BF99FA10
ENDCHAR
STARTCHAR Icaron
ENCODING 463
SWIDTH 705 0
DWIDTH 6 0
BBX 6 9 0 -1
BITMAP
172111
7D5230
461111
B72231
9E6150
0A6110
073111
951211
BFEEA1
ENDCHAR
STARTCHAR icaron
ENCODING 464
SWIDTH 705 0
DWIDTH 6 0
BBX 6 9 0 -1
BITMAP
172111
7D5230
461111
B72231
9E6150
0A6110
073111
951211
BFEEA1
ENDCHAR
STARTCHAR Ocaron
ENCODING 465
SWIDTH 837 0
DWIDTH 7 0
BBX 7 9 0 -1
BITMAP
06411200
0E834300
09977300
67100110
B61B7110
B61A8110
B6197110
AC312310
2CFEA200
ENDCHAR
STARTCHAR ocaron
ENCODING 466
SWIDTH 837 0
DWIDTH 7 0
BBX 7 9 0 -1
BITMAP
06411200
0E834300
09977300
67100110
B61B7110
B61A8110
B6197110
AC312310
2CFEA200
ENDCHAR
STARTCHAR Ucaron
ENCODING 467
SWIDTH 846 0
DWIDTH 7 0
BBX 7 9 0 -1
BITMAP
06521200
0D934100
26199110
A7199110
A7199110
A7199110
A7165110
9C312310
2BFEA200
ENDCHAR
STARTCHAR ucaron
ENCODING 468
SWIDTH 846 0
DWIDTH 7 0
BBX 7 9 0 -1
BITMAP
06521200
0D934100
26199110
A7199110
A7199110
A7199110
A7165110
9C312310
2BFEA200
ENDCHAR
STARTCHAR Udieresismacron
ENCODING 469
SWIDTH 846 0
DWIDTH 7 0
BBX 7 11 0 -1
BITMAP
00211100
09311100
0E665300
0E152100
1A5CB530
97189110
A7199110
A7199110
A7165110
9C311210
2CFEA200
ENDCHAR
STARTCHAR udieresismacron
ENCODING 470
SWIDTH 846 0
DWIDTH 7 0
BBX 7 11 0 -1
BITMAP
00211100
09311100
0E665300
0E152100
1A5CB530
97189110
A7199110
A7199110
A7165110
9C311210
2CFEA200
ENDCHAR
STARTCHAR Udieresisacute
ENCODING 471
SWIDTH 846 0
DWIDTH 7 0
BBX 7 10 0 -1
BITMAP
00642000
02796100
1E152100
2A5CB530
A7189110
A7199110
A7199110
A7165110
9C311210
2BFEA200
ENDCHAR
STARTCHAR udieresisacute
ENCODING 472
SWIDTH 846 0
DWIDTH 7 0
BBX 7 10 0 -1
BITMAP
00642000
02796100
1E152100
2A5CB530
A7189110
A7199110
A7199110
A7165110
9C311210
2BFEA200
ENDCHAR
STARTCHAR Udieresiscaron
ENCODING 473
SWIDTH 846 0
DWIDTH 7 0
BBX 7 11 0 -1
BITMAP
01101200
0B612200
0D887200
0C152100
1A5CB530
97189110
A7199110
A7199110
A7165110
9C311210
2CFEA200
ENDCHAR
STARTCHAR udieresiscaron
ENCODING 474
SWIDTH 846 0
DWIDTH 7 0
BBX 7 11 0 -1
BITMAP
01101200
0B612200
0D887200
0C152100
1A5CB530
97189110
A7199110
A7199110
A7165110
9C311210
2CFEA200
ENDCHAR
STARTCHAR Udieresisgrave
ENCODING 475
SWIDTH 846 0
DWIDTH 7 0
BBX 7 11 0 -1
BITMAP
00100000
01D11000
038A5100
1E152100
2A5CB530
A7189110
A7199110
A7199110
A7165110
9C311210
2BFEA200
ENDCHAR
STARTCHAR udieresisgrave
ENCODING 476
SWIDTH 846 0
DWIDTH 7 0
BBX 7 11 0 -1
BITMAP
00100000
01D11000
038A5100
1E152100
2A5CB530
A7189110
A7199110
A7199110
A7165110
9C311210
2BFEA200
ENDCHAR
STARTCHAR Gcaron
ENCODING 486
SWIDTH 808 0
DWIDTH 6 0
BBX 7 9 0 -1
BITMAP
06311100
0F834100
09311200
25111100
A6157110
B6185110
B6163110
AC211110
3DFEE700
ENDCHAR
STARTCHAR gcaron
ENCODING 487
SWIDTH 808 0
DWIDTH 6 0
BBX 7 9 0 -1
BITMAP
06311100
0F834100
09311200
25111100
A6157110
B6185110
B6163110
AC211110
3DFEE700
ENDCHAR
STARTCHAR Scommaaccent
ENCODING 536
SWIDTH 750 0
DWIDTH 6 0
BBX 6 10 0 -4
BITMAP
032322
7518B3
C62114
BEA821
350010
B51105
BC9630
06D320
05D310
027200
ENDCHAR
STARTCHAR scommaaccent
ENCODING 537
SWIDTH 750 0
DWIDTH 6 0
BBX 6 10 0 -4
BITMAP
032322
7518B3
C62114
BEA821
350010
B51105
BC9630
06D320
05D310
027200
ENDCHAR
STARTCHAR uni021A
ENCODING 538
SWIDTH 756 0
DWIDTH 6 0
BBX 6 10 0 -4
BITMAP
433332
E20101
EF9174
089110
089110
089110
07B620
06C410
06C410
037200
ENDCHAR
STARTCHAR uni021B
ENCODING 539
SWIDTH 756 0
DWIDTH 6 0
BBX 6 10 0 -4
BITMAP
433332
E20101
EF9174
089110
089110
089110
07B620
06C410
06C410
037200
ENDCHAR
STARTCHAR dotlessj
ENCODING 567
SWIDTH 788 0
DWIDTH 6 0
BBX 6 7 0 -1
BITMAP
000722
000F22
022F22
A41F22
D41711
CB3122
3CFD70
ENDCHAR
STARTCHAR ascript
ENCODING 593
SWIDTH 846 0
DWIDTH 7 0
BBX 7 7 0 -1
BITMAP
02233200
56100110
B61B7110
B61A8110
B6286110
AC211110
4DFEEA10
ENDCHAR
STARTCHAR schwa
ENCODING 601
SWIDTH 815 0
DWIDTH 7 0
BBX 7 7 0 -1
BITMAP
06233200
2E000210
2EBB5110
75111110
C5185110
BB311200
4DFE9100
ENDCHAR
STARTCHAR gscript
ENCODING 609
SWIDTH 815 0
DWIDTH 7 0
BBX 7 7 0 -1
BITMAP
02333200
65100210
C51C6110
C9132210
6FCA4110
1B011310
2EEEA200
ENDCHAR
STARTCHAR commaturnedmod
ENCODING 699
SWIDTH 600 0
DWIDTH 5 0
BBX 4 4 0 2
BITMAP
0224
0D12
2F00
1EE2
ENDCHAR
STARTCHAR apostrophemod
ENCODING 700
SWIDTH 600 0
DWIDTH 5 0
BBX 4 4 0 2
BITMAP
0222
1E52
1F52
0740
ENDCHAR
STARTCHAR ringhalfright
ENCODING 702
SWIDTH 412 0
DWIDTH 3 0
BBX 4 4 0 2
BITMAP
5431
EC11
9321
DD40
ENDCHAR
STARTCHAR ringhalfleft
ENCODING 703
SWIDTH 412 0
DWIDTH 3 0
BBX 4 4 0 2
BITMAP
2442
C431
E611
BF70
ENDCHAR
STARTCHAR circumflex
ENCODING 710
SWIDTH 600 0
DWIDTH 5 0
BBX 5 4 0 5
BITMAP
011100
331120
D9BA30
634600
ENDCHAR
STARTCHAR caron
ENCODING 711
SWIDTH 600 0
DWIDTH 5 0
BBX 5 3 0 5
BITMAP
551120
D93420
7DC500
ENDCHAR
STARTCHAR verticallinemod
ENCODING 712
SWIDTH 456 0
DWIDTH 4 0
BBX 4 4 0 2
BITMAP
3511
B611
B611
AFA1
ENDCHAR
STARTCHAR firsttonechinese
ENCODING 713
SWIDTH 600 0
DWIDTH 5 0
BBX 5 3 0 5
BITMAP
021110
A41110
CFFC20
ENDCHAR
STARTCHAR secondtonechinese
ENCODING 714
SWIDTH 600 0
DWIDTH 5 0
BBX 5 3 0 5
BITMAP
021110
A43530
BCA700
ENDCHAR
STARTCHAR fourthtonechinese
ENCODING 715
SWIDTH 600 0
DWIDTH 5 0
BBX 5 3 0 5
BITMAP
231110
D85320
7BCC20
ENDCHAR
STARTCHAR verticallinelowmod
ENCODING 716
SWIDTH 456 0
DWIDTH 4 0
BBX 4 4 0 -2
BITMAP
3511
B611
B611
AFA1
ENDCHAR
STARTCHAR breve
ENCODING 728
SWIDTH 600 0
DWIDTH 5 0
BBX 5 3 0 5
BITMAP
121310
C72230
9EE800
ENDCHAR
STARTCHAR dotaccent
ENCODING 729
SWIDTH 600 0
DWIDTH 5 0
BBX 4 3 0 5
BITMAP
0211
1E11
1EE5
ENDCHAR
STARTCHAR ring
ENCODING 730
SWIDTH 600 0
DWIDTH 5 0
BBX 5 5 0 5
BITMAP
011110
441110
D47520
E82210
8EE700
ENDCHAR
STARTCHAR ogonek
ENCODING 731
SWIDTH 600 0
DWIDTH 5 0
BBX 5 4 0 -3
BITMAP
013100
0C2200
1F2010
0DF600
ENDCHAR
STARTCHAR tilde
ENCODING 732
SWIDTH 600 0
DWIDTH 5 0
BBX 5 3 0 5
BITMAP
020010
A53220
CDEB10
ENDCHAR
STARTCHAR hungarumlaut
ENCODING 733
SWIDTH 600 0
DWIDTH 5 0
BBX 6 4 -1 5
BITMAP
002121
093651
0E0A11
2FBEA0
ENDCHAR
STARTCHAR gravecmb
ENCODING 768
SWIDTH 100 0
DWIDTH 1 0
BBX 5 3 -2 5
BITMAP
231110
D85320
7BCC20
ENDCHAR
STARTCHAR acutecmb
ENCODING 769
SWIDTH 100 0
DWIDTH 1 0
BBX 5 3 -2 5
BITMAP
021110
A43530
BCA700
ENDCHAR
STARTCHAR circumflexcmb
ENCODING 770
SWIDTH 100 0
DWIDTH 1 0
BBX 5 4 -2 5
BITMAP
011100
331120
D9BA30
634600
ENDCHAR
STARTCHAR tildecmb
ENCODING 771
SWIDTH 100 0
DWIDTH 1 0
BBX 5 3 -2 5
BITMAP
020010
953220
BDEB10
ENDCHAR
STARTCHAR uni0304
ENCODING 772
SWIDTH 600 0
DWIDTH 5 0
BBX 5 3 0 5
BITMAP
021110
A41110
CFFC20
ENDCHAR
STARTCHAR brevecmb
ENCODING 774
SWIDTH 100 0
DWIDTH 1 0
BBX 5 3 -2 5
BITMAP
121310
C72230
9EE800
ENDCHAR
STARTCHAR dotaccentcmb
ENCODING 775
SWIDTH 100 0
DWIDTH 1 0
BBX 4 3 -2 5
BITMAP
0211
1E11
1EE5
ENDCHAR
STARTCHAR dieresiscmb
ENCODING 776
SWIDTH 100 0
DWIDTH 1 0
BBX 5 3 -2 5
BITMAP
122210
D24310
EDEE40
ENDCHAR
STARTCHAR hookcmb
ENCODING 777
SWIDTH 100 0
DWIDTH 1 0
BBX 5 4 -2 4
BITMAP
031100
1F9320
0BD910
033000
ENDCHAR
STARTCHAR ringcmb
ENCODING 778
SWIDTH 100 0
DWIDTH 1 0
BBX 5 5 -2 5
BITMAP
011110
441110
D47520
E82210
8EE700
ENDCHAR
STARTCHAR hungarumlautcmb
ENCODING 779
SWIDTH 100 0
DWIDTH 1 0
BBX 6 4 -2 5
BITMAP
021211
473811
A46610
CDCD20
ENDCHAR
STARTCHAR caroncmb
ENCODING 780
SWIDTH 100 0
DWIDTH 1 0
BBX 5 3 -2 5
BITMAP
551120
D93420
7DC500
ENDCHAR
STARTCHAR horncmb
ENCODING 795
SWIDTH 100 0
DWIDTH 1 0
BBX 4 3 -2 4
BITMAP
0121
1C23
3E80
ENDCHAR
STARTCHAR dotbelowcmb
ENCODING 803
SWIDTH 100 0
DWIDTH 1 0
BBX 4 3 -2 -3
BITMAP
0211
1E11
1EE5
ENDCHAR
STARTCHAR dieresisbelowcmb
ENCODING 804
SWIDTH 100 0
DWIDTH 1 0
BBX 5 3 -2 -3
BITMAP
122210
D24310
EDEE40
ENDCHAR
STARTCHAR commaaccent
ENCODING 806
SWIDTH 600 0
DWIDTH 5 0
BBX 4 4 0 -4
BITMAP
0222
1E52
1F52
0740
ENDCHAR
STARTCHAR cedillacmb
ENCODING 807
SWIDTH 100 0
DWIDTH 1 0
BBX 4 4 -2 -2
BITMAP
0021
0642
0C11
3FA1
ENDCHAR
STARTCHAR ogonekcmb
ENCODING 808
SWIDTH 100 0
DWIDTH 1 0
BBX 4 4 -1 -3
BITMAP
0320
9521
D501
BF80
ENDCHAR
STARTCHAR brevebelowcmb
ENCODING 814
SWIDTH 100 0
DWIDTH 1 0
BBX 5 3 -2 -3
BITMAP
121310
C72230
9EE800
ENDCHAR
STARTCHAR macronbelowcmb
ENCODING 817
SWIDTH 100 0
DWIDTH 1 0
BBX 5 3 -2 -3
BITMAP
021110
A41110
CFFC20
ENDCHAR
STARTCHAR uni0394
ENCODING 916
SWIDTH 830 0
DWIDTH 7 0
BBX 7 7 0 -1
BITMAP
01311100
0C222100
2C183200
681B5110
96174110
B6111110
AEEEEA10
ENDCHAR
STARTCHAR uni03A9
ENCODING 937
SWIDTH 877 0
DWIDTH 7 0
BBX 7 7 0 -1
BITMAP
01122110
38133110
8819B110
8817B110
87167120
C3134110
DEEDEE40
ENDCHAR
STARTCHAR uni03BC
ENCODING 956
SWIDTH 813 0
DWIDTH 7 0
BBX 7 7 0 -2
BITMAP
03113110
961A6110
B61C6110
B6284110
B6211200
BA5B9100
69400000
ENDCHAR
STARTCHAR pi
ENCODING 960
SWIDTH 821 0
DWIDTH 7 0
BBX 7 6 0 -1
BITMAP
03111110
96221110
B61C6110
B61C6110
B60C6010
AE9AE900
ENDCHAR
STARTCHAR Ddotbelow
ENCODING 7692
SWIDTH 846 0
DWIDTH 7 0
BBX 7 9 0 -3
BITMAP
26111110
97111110
A7197110
A7199110
A7154110
A7111110
9DA56400
01E11000
01FE5000
ENDCHAR
STARTCHAR ddotbelow
ENCODING 7693
SWIDTH 846 0
DWIDTH 7 0
BBX 7 9 0 -3
BITMAP
26111110
97111110
A7197110
A7199110
A7154110
A7111110
9DA56400
01E11000
01FE5000
ENDCHAR
STARTCHAR Dlinebelow
ENCODING 7694
SWIDTH 846 0
DWIDTH 7 0
BBX 7 9 0 -3
BITMAP
26111110
97111110
A7197110
A7199110
A7154110
A7111110
9D877400
0C311100
0DFFC200
ENDCHAR
STARTCHAR dlinebelow
ENCODING 7695
SWIDTH 846 0
DWIDTH 7 0
BBX 7 9 0 -3
BITMAP
26111110
97111110
A7197110
A7199110
A7154110
A7111110
9D877400
0C311100
0DFFC200
ENDCHAR
STARTCHAR Gmacron
ENCODING 7712
SWIDTH 808 0
DWIDTH 6 0
BBX 7 9 0 -1
BITMAP
00211100
09511100
0B755400
15111100
96157110
B6185110
B6163110
AB211110
3DFEE700
ENDCHAR
STARTCHAR gmacron
ENCODING 7713
SWIDTH 808 0
DWIDTH 6 0
BBX 7 9 0 -1
BITMAP
00211100
09511100
0B755400
15111100
96157110
B6185110
B6163110
AB211110
3DFEE700
ENDCHAR
STARTCHAR Hdotbelow
ENCODING 7716
SWIDTH 859 0
DWIDTH 7 0
BBX 7 9 0 -3
BITMAP
26126110
97189110
A7155110
A7211210
A71B9110
A7099010
9FB59B10
01E11000
01FE5000
ENDCHAR
STARTCHAR hdotbelow
ENCODING 7717
SWIDTH 859 0
DWIDTH 7 0
BBX 7 9 0 -3
BITMAP
26126110
97189110
A7155110
A7211210
A71B9110
A7099010
9FB59B10
01E11000
01FE5000
ENDCHAR
STARTCHAR Hbrevebelow
ENCODING 7722
SWIDTH 859 0
DWIDTH 7 0
BBX 7 9 0 -3
BITMAP
26126110
97189110
A7155110
A7211210
A71B9110
A7099010
9E78A510
0C712100
09EE7000
ENDCHAR
STARTCHAR hbrevebelow
ENCODING 7723
SWIDTH 859 0
DWIDTH 7 0
BBX 7 9 0 -3
BITMAP
26126110
97189110
A7155110
A7211210
A71B9110
A7099010
9E78A510
0C712100
09EE7000
ENDCHAR
STARTCHAR Ldotbelow
ENCODING 7734
SWIDTH 795 0
DWIDTH 6 0
BBX 7 9 0 -3
BITMAP
26110000
97110000
A7112110
A7186110
A7163110
A7111110
9DA56200
02E11000
03FD3000
ENDCHAR
STARTCHAR ldotbelow
ENCODING 7735
SWIDTH 795 0
DWIDTH 6 0
BBX 7 9 0 -3
BITMAP
26110000
97110000
A7112110
A7186110
A7163110
A7111110
9DA56200
02E11000
03FD3000
ENDCHAR
STARTCHAR Ldotbelowmacron
ENCODING 7736
SWIDTH 795 0
DWIDTH 6 0
BBX 7 11 0 -3
BITMAP
01211100
1D111100
2A5CA000
97110000
A7112110
A7186110
A7163110
A7111110
9DA56200
02E11000
03FD3000
ENDCHAR
STARTCHAR ldotbelowmacron
ENCODING 7737
SWIDTH 795 0
DWIDTH 6 0
BBX 7 11 0 -3
BITMAP
01211100
1D111100
2A5CA000
97110000
A7112110
A7186110
A7163110
A7111110
9DA56200
02E11000
03FD3000
ENDCHAR
STARTCHAR Llinebelow
ENCODING 7738
SWIDTH 795 0
DWIDTH 6 0
BBX 7 9 0 -3
BITMAP
26110000
97110000
A7112110
A7186110
A7163110
A7111110
9D565400
1E100100
1FFFA100
ENDCHAR
STARTCHAR llinebelow
ENCODING 7739
SWIDTH 795 0
DWIDTH 6 0
BBX 7 9 0 -3
BITMAP
26110000
97110000
A7112110
A7186110
A7163110
A7111110
9D565400
1E100100
1FFFA100
ENDCHAR
STARTCHAR Mdotbelow
ENCODING 7746
SWIDTH 949 0
DWIDTH 8 0
BBX 8 9 0 -3
BITMAP
26111211
97218111
A7113111
A7121211
A71AA511
A712C511
9F936D80
00961100
00AF9000
ENDCHAR
STARTCHAR mdotbelow
ENCODING 7747
SWIDTH 949 0
DWIDTH 8 0
BBX 8 9 0 -3
BITMAP
26111211
97218111
A7113111
A7121211
A71AA511
A712C511
9F936D80
00961100
00AF9000
ENDCHAR
STARTCHAR Ndotaccent
ENCODING 7748
SWIDTH 853 0
DWIDTH 7 0
BBX 7 9 0 -1
BITMAP
00211000
01E11000
262BB110
97228110
A7111110
A7141110
A71B5210
A70A9010
9F98FA10
ENDCHAR
STARTCHAR ndotaccent
ENCODING 7749
SWIDTH 853 0
DWIDTH 7 0
BBX 7 9 0 -1
BITMAP
00211000
01E11000
262BB110
97228110
A7111110
A7141110
A71B5210
A70A9010
9F98FA10
ENDCHAR
STARTCHAR Ndotbelow
ENCODING 7750
SWIDTH 853 0
DWIDTH 7 0
BBX 7 9 0 -3
BITMAP
26116110
97228110
A7111110
A7141110
A71B5210
A70A9010
9FB59A10
01E11000
01FE4000
ENDCHAR
STARTCHAR ndotbelow
ENCODING 7751
SWIDTH 853 0
DWIDTH 7 0
BBX 7 9 0 -3
BITMAP
26116110
97228110
A7111110
A7141110
A71B5210
A70A9010
9FB59A10
01E11000
01FE4000
ENDCHAR
STARTCHAR Nlinebelow
ENCODING 7752
SWIDTH 853 0
DWIDTH 7 0
BBX 7 9 0 -3
BITMAP
26116110
97228110
A7111110
A7141110
A71B5210
A70A9010
9D768500
0C400100
0CFFC200
ENDCHAR
STARTCHAR nlinebelow
ENCODING 7753
SWIDTH 853 0
DWIDTH 7 0
BBX 7 9 0 -3
BITMAP
26116110
97228110
A7111110
A7141110
A71B5210
A70A9010
9D768500
0C400100
0CFFC200
ENDCHAR
STARTCHAR Rdotbelow
ENCODING 7770
SWIDTH 843 0
DWIDTH 7 0
BBX 7 9 0 -3
BITMAP
26111200
97112010
A7182200
A7212110
A71BA110
A707B010
9FA59B20
00D21000
00EE5000
ENDCHAR
STARTCHAR rdotbelow
ENCODING 7771
SWIDTH 843 0
DWIDTH 7 0
BBX 7 9 0 -3
BITMAP
26111200
97112010
A7182200
A7212110
A71BA110
A707B010
9FA59B20
00D21000
00EE5000
ENDCHAR
STARTCHAR Rdotbelowmacron
ENCODING 7772
SWIDTH 843 0
DWIDTH 7 0
BBX 7 11 0 -3
BITMAP
02111100
1C111100
3A555200
77112010
A7182200
A7212110
A71BA110
A707B010
9FA59B20
00D21000
00EE5000
ENDCHAR
STARTCHAR rdotbelowmacron
ENCODING 7773
SWIDTH 843 0
DWIDTH 7 0
BBX 7 11 0 -3
BITMAP
02111100
1C111100
3A555200
77112010
A7182200
A7212110
A71BA110
A707B010
9FA59B20
00D21000
00EE5000
ENDCHAR
STARTCHAR Rlinebelow
ENCODING 7774
SWIDTH 843 0
DWIDTH 7 0
BBX 7 9 0 -3
BITMAP
26333200
97101110
A7183200
A7212110
A7177110
A719B110
9D668610
0C400100
0DFFC100
ENDCHAR
STARTCHAR rlinebelow
ENCODING 7775
SWIDTH 843 0
DWIDTH 7 0
BBX 7 9 0 -3
BITMAP
26333200
97101110
A7183200
A7212110
A7177110
A719B110
9D668610
0C400100
0DFFC100
ENDCHAR
STARTCHAR Sdotaccent
ENCODING 7776
SWIDTH 750 0
DWIDTH 6 0
BBX 6 9 0 -1
BITMAP
002110
05A110
042112
341111
B51691
CA2111
7DB811
851112
BFED70
ENDCHAR
STARTCHAR sdotaccent
ENCODING 7777
SWIDTH 750 0
DWIDTH 6 0
BBX 6 9 0 -1
BITMAP
002110
05A110
042112
341111
B51691
CA2111
7DB811
851112
BFED70
ENDCHAR
STARTCHAR Sdotbelow
ENCODING 7778
SWIDTH 750 0
DWIDTH 6 0
BBX 6 9 0 -3
BITMAP
021112
651111
B517A2
CA2111
6DB811
851110
BC8550
05A110
06FC20
ENDCHAR
STARTCHAR sdotbelow
ENCODING 7779
SWIDTH 750 0
DWIDTH 6 0
BBX 6 9 0 -3
BITMAP
021112
651111
B517A2
CA2111
6DB811
851110
BC8550
05A110
06FC20
ENDCHAR
STARTCHAR Tdotbelow
ENCODING 7788
SWIDTH 756 0
DWIDTH 6 0
BBX 6 9 0 -3
BITMAP
431112
E31211
EF9174
089110
089110
089110
07C520
06A110
07FC20
ENDCHAR
STARTCHAR tdotbelow
ENCODING 7789
SWIDTH 756 0
DWIDTH 6 0
BBX 6 9 0 -3
BITMAP
431112
E31211
EF9174
089110
089110
089110
07C520
06A110
07FC20
ENDCHAR
STARTCHAR Tlinebelow
ENCODING 7790
SWIDTH 756 0
DWIDTH 6 0
BBX 6 9 0 -3
BITMAP
433332
E20101
EF9174
089110
089110
089110
077631
2D0001
3FFF80
ENDCHAR
STARTCHAR tlinebelow
ENCODING 7791
SWIDTH 756 0
DWIDTH 6 0
BBX 6 9 0 -3
BITMAP
433332
E20101
EF9174
089110
089110
089110
077631
2D0001
3FFF80
ENDCHAR
STARTCHAR Wgrave
ENCODING 7808
SWIDTH 931 0
DWIDTH 7 0
BBX 8 9 0 -1
BITMAP
02744300
09A43200
251AE611
B611B511
B6138511
B6121211
B8113121
8D14A110
3FD8FB10
ENDCHAR
STARTCHAR wgrave
ENCODING 7809
SWIDTH 931 0
DWIDTH 7 0
BBX 8 9 0 -1
BITMAP
02744300
09A43200
251AE611
B611B511
B6138511
B6121211
B8113121
8D14A110
3FD8FB10
ENDCHAR
STARTCHAR Wacute
ENCODING 7810
SWIDTH 931 0
DWIDTH 7 0
BBX 8 9 0 -1
BITMAP
00345410
05A23300
2519A511
B611B511
B6138511
B6121211
B8113121
8D14A110
3FD8FB10
ENDCHAR
STARTCHAR wacute
ENCODING 7811
SWIDTH 931 0
DWIDTH 7 0
BBX 8 9 0 -1
BITMAP
00345410
05A23300
2519A511
B611B511
B6138511
B6121211
B8113121
8D14A110
3FD8FB10
ENDCHAR
STARTCHAR Wdieresis
ENCODING 7812
SWIDTH 931 0
DWIDTH 7 0
BBX 8 9 0 -1
BITMAP
00212110
09617010
175CF851
A611B511
B6138511
B6121211
B8113121
9D14A110
3FD8FB10
ENDCHAR
STARTCHAR wdieresis
ENCODING 7813
SWIDTH 931 0
DWIDTH 7 0
BBX 8 9 0 -1
BITMAP
00212110
09617010
175CF851
A611B511
B6138511
B6121211
B8113121
9D14A110
3FD8FB10
ENDCHAR
STARTCHAR Ydotaccent
ENCODING 7822
SWIDTH 805 0
DWIDTH 6 0
BBX 7 9 0 -1
BITMAP
00311000
03D12000
441E8110
C41B6110
C6162110
AE221100
2EB11000
06C01000
04FC2000
ENDCHAR
STARTCHAR ydotaccent
ENCODING 7823
SWIDTH 805 0
DWIDTH 6 0
BBX 7 9 0 -1
BITMAP
00311000
03D12000
441E8110
C41B6110
C6162110
AE221100
2EB11000
06C01000
04FC2000
ENDCHAR
STARTCHAR Zdotbelow
ENCODING 7826
SWIDTH 760 0
DWIDTH 6 0
BBX 6 9 0 -3
BITMAP
251112
A71121
AFE221
033220
261111
B41111
CC9571
05B110
05FC20
ENDCHAR
STARTCHAR zdotbelow
ENCODING 7827
SWIDTH 760 0
DWIDTH 6 0
BBX 6 9 0 -3
BITMAP
251112
A71121
AFE221
033220
261111
B41111
CC9571
05B110
05FC20
ENDCHAR
STARTCHAR tdieresis
ENCODING 7831
SWIDTH 756 0
DWIDTH 6 0
BBX 6 9 0 -1
BITMAP
021211
4B0701
631112
D31211
EF9174
089110
089110
089010
07FB20
ENDCHAR
STARTCHAR Germandbls
ENCODING 7838
SWIDTH 859 0
DWIDTH 7 0
BBX 7 7 0 -1
BITMAP
26111200
97112100
A7182100
A7191110
A71AA110
A7171120
9FCFD700
ENDCHAR
STARTCHAR Adotbelow
ENCODING 7840
SWIDTH 830 0
DWIDTH 7 0
BBX 7 9 0 -3
BITMAP
00211100
07021100
18193110
76143010
B5100110
C51D8110
BFB6AA10
02D11000
02FE3000
ENDCHAR
STARTCHAR adotbelow
ENCODING 7841
SWIDTH 830 0
DWIDTH 7 0
BBX 7 9 0 -3
BITMAP
00211100
07021100
18193110
76143010
B5100110
C51D8110
BFB6AA10
02D11000
02FE3000
ENDCHAR
STARTCHAR Ahookabove
ENCODING 7842
SWIDTH 830 0
DWIDTH 7 0
BBX 7 10 0 -1
BITMAP
00211000
04B31100
03E40000
01501100
07021100
18193110
76143010
B5100110
C51D8110
BF99FA10
ENDCHAR
STARTCHAR ahookabove
ENCODING 7843
SWIDTH 830 0
DWIDTH 7 0
BBX 7 10 0 -1
BITMAP
00211000
04B31100
03E40000
01501100
07021100
18193110
76143010
B5100110
C51D8110
BF99FA10
ENDCHAR
STARTCHAR Acircumflexacute
ENCODING 7844
SWIDTH 830 0
DWIDTH 7 0
BBX 7 11 0 -1
BITMAP
00015500
000D3100
00123200
0A898300
0E300100
08021100
18193110
76143010
B5100110
C61D8110
BF99F900
ENDCHAR
STARTCHAR acircumflexacute
ENCODING 7845
SWIDTH 830 0
DWIDTH 7 0
BBX 7 11 0 -1
BITMAP
00015500
000D3100
00123200
0A898300
0E300100
08021100
18193110
76143010
B5100110
C61D8110
BF99F900
ENDCHAR
STARTCHAR Acircumflexgrave
ENCODING 7846
SWIDTH 830 0
DWIDTH 7 0
BBX 7 11 0 -1
BITMAP
00045400
001F1100
01223100
0B898300
0E300100
08021100
18193110
76143010
B5100110
C61D8110
BF99F900
ENDCHAR
STARTCHAR acircumflexgrave
ENCODING 7847
SWIDTH 830 0
DWIDTH 7 0
BBX 7 11 0 -1
BITMAP
00045400
001F1100
01223100
0B898300
0E300100
08021100
18193110
76143010
B5100110
C61D8110
BF99F900
ENDCHAR
STARTCHAR Acircumflexhookabove
ENCODING 7848
SWIDTH 830 0
DWIDTH 7 0
BBX 7 12 0 -1
BITMAP
00012110
000C5220
000B9200
00012400
0A898300
0E300100
08021100
18193110
76143010
B5100110
C61D8110
BF99F900
ENDCHAR
STARTCHAR acircumflexhookabove
ENCODING 7849
SWIDTH 830 0
DWIDTH 7 0
BBX 7 12 0 -1
BITMAP
00012110
000C5220
000B9200
00012400
0A898300
0E300100
08021100
18193110
76143010
B5100110
C61D8110
BF99F900
ENDCHAR
STARTCHAR Acircumflextilde
ENCODING 7850
SWIDTH 830 0
DWIDTH 7 0
BBX 7 11 0 -1
BITMAP
01100100
0D775200
08622100
0C898300
0E300100
08021100
18193110
76143010
B5100110
C61D8110
BF99F900
ENDCHAR
STARTCHAR acircumflextilde
ENCODING 7851
SWIDTH 830 0
DWIDTH 7 0
BBX 7 11 0 -1
BITMAP
01100100
0D775200
08622100
0C898300
0E300100
08021100
18193110
76143010
B5100110
C61D8110
BF99F900
ENDCHAR
STARTCHAR Acircumflexdotbelow
ENCODING 7852
SWIDTH 830 0
DWIDTH 7 0
BBX 7 11 0 -3
BITMAP
00211000
06898300
0E300100
08021100
18193110
76143010
B5100110
C61D8110
BFB6A900
02D11000
02FE3000
ENDCHAR
STARTCHAR acircumflexdotbelow
ENCODING 7853
SWIDTH 830 0
DWIDTH 7 0
BBX 7 11 0 -3
BITMAP
00211000
06898300
0E300100
08021100
18193110
76143010
B5100110
C61D8110
BFB6A900
02D11000
02FE3000
ENDCHAR
STARTCHAR Abreveacute
ENCODING 7854
SWIDTH 830 0
DWIDTH 7 0
BBX 7 11 0 -1
BITMAP
00024000
00353200
017CA100
0D622000
0D844300
08121200
19193120
76143010
B5100110
C51D8110
BF99FA10
ENDCHAR
STARTCHAR abreveacute
ENCODING 7855
SWIDTH 830 0
DWIDTH 7 0
BBX 7 11 0 -1
BITMAP
00024000
00353200
017CA100
0D622000
0D844300
08121200
19193120
76143010
B5100110
C51D8110
BF99FA10
ENDCHAR
STARTCHAR Abrevegrave
ENCODING 7856
SWIDTH 830 0
DWIDTH 7 0
BBX 7 11 0 -1
BITMAP
00141000
04A21000
089B5100
0E622000
0D844300
07121200
19193120
76143010
B5100110
C51D8110
BF99FA10
ENDCHAR
STARTCHAR abrevegrave
ENCODING 7857
SWIDTH 830 0
DWIDTH 7 0
BBX 7 11 0 -1
BITMAP
00141000
04A21000
089B5100
0E622000
0D844300
07121200
19193120
76143010
B5100110
C51D8110
BF99FA10
ENDCHAR
STARTCHAR Abrevehookabove
ENCODING 7858
SWIDTH 830 0
DWIDTH 7 0
BBX 7 12 0 -1
BITMAP
00211100
01C11100
02F83100
017A7100
0D633000
0D844300
08121200
19193120
76143010
B5100110
C51D8110
BF99FA10
ENDCHAR
STARTCHAR abrevehookabove
ENCODING 7859
SWIDTH 830 0
DWIDTH 7 0
BBX 7 12 0 -1
BITMAP
00211100
01C11100
02F83100
017A7100
0D633000
0D844300
08121200
19193120
76143010
B5100110
C51D8110
BF99FA10
ENDCHAR
STARTCHAR Abrevetilde
ENCODING 7860
SWIDTH 830 0
DWIDTH 7 0
BBX 7 11 0 -1
BITMAP
01111000
0C311100
0E8B8300
0E622000
0D844300
07121200
19193120
76143010
B5100110
C51D8110
BF99FA10
ENDCHAR
STARTCHAR abrevetilde
ENCODING 7861
SWIDTH 830 0
DWIDTH 7 0
BBX 7 11 0 -1
BITMAP
01111000
0C311100
0E8B8300
0E622000
0D844300
07121200
19193120
76143010
B5100110
C51D8110
BF99FA10
ENDCHAR
STARTCHAR Abrevedotbelow
ENCODING 7862
SWIDTH 830 0
DWIDTH 7 0
BBX 7 11 0 -3
BITMAP
01213100
0D612000
0D844300
08121200
19193120
76143010
B5100110
C51D8110
BFB6AA10
02D11000
02FE3000
ENDCHAR
STARTCHAR abrevedotbelow
ENCODING 7863
SWIDTH 830 0
DWIDTH 7 0
BBX 7 11 0 -3
BITMAP
01213100
0D612000
0D844300
08121200
19193120
76143010
B5100110
C51D8110
BFB6AA10
02D11000
02FE3000
ENDCHAR
STARTCHAR Edotbelow
ENCODING 7864
SWIDTH 754 0
DWIDTH 6 0
BBX 6 9 0 -3
BITMAP
261112
971111
A717A3
A72331
A71661
A71111
9D9572
05B110
05FC20
ENDCHAR
STARTCHAR edotbelow
ENCODING 7865
SWIDTH 754 0
DWIDTH 6 0
BBX 6 9 0 -3
BITMAP
261112
971111
A717A3
A72331
A71661
A71111
9D9572
05B110
05FC20
ENDCHAR
STARTCHAR Ehookabove
ENCODING 7866
SWIDTH 754 0
DWIDTH 6 0
BBX 6 10 0 -1
BITMAP
003110
079320
07D200
261012
971111
A717A3
A72331
A71661
A71111
9FEED3
ENDCHAR
STARTCHAR ehookabove
ENCODING 7867
SWIDTH 754 0
DWIDTH 6 0
BBX 6 10 0 -1
BITMAP
003110
079320
07D200
261012
971111
A717A3
A72331
A71661
A71111
9FEED3
ENDCHAR
STARTCHAR Etilde
ENCODING 7868
SWIDTH 754 0
DWIDTH 6 0
BBX 6 9 0 -1
BITMAP
011011
1C2311
381112
971111
A717A3
A72331
A71661
A71111
9FEED3
ENDCHAR
STARTCHAR etilde
ENCODING 7869
SWIDTH 754 0
DWIDTH 6 0
BBX 6 9 0 -1
BITMAP
011011
1C2311
381112
971111
A717A3
A72331
A71661
A71111
9FEED3
ENDCHAR
STARTCHAR Ecircumflexacute
ENCODING 7870
SWIDTH 754 0
DWIDTH 6 0
BBX 6 11 0 -1
BITMAP
000354
002E10
023241
1E5852
481112
971111
A717A3
A72331
A71661
A71111
9FEED3
ENDCHAR
STARTCHAR ecircumflexacute
ENCODING 7871
SWIDTH 754 0
DWIDTH 6 0
BBX 6 11 0 -1
BITMAP
000354
002E10
023241
1E5852
481112
971111
A717A3
A72331
A71661
A71111
9FEED3
ENDCHAR
STARTCHAR Ecircumflexgrave
ENCODING 7872
SWIDTH 754 0
DWIDTH 6 0
BBX 6 11 0 -1
BITMAP
000552
004C11
033241
2E5852
481112
A71111
A717A3
A72331
A71661
A71111
9FEED3
ENDCHAR
STARTCHAR ecircumflexgrave
ENCODING 7873
SWIDTH 754 0
DWIDTH 6 0
BBX 6 11 0 -1
BITMAP
000552
004C11
033241
2E5852
481112
A71111
A717A3
A72331
A71661
A71111
9FEED3
ENDCHAR
STARTCHAR Ecircumflexhookabove
ENCODING 7874
SWIDTH 754 0
DWIDTH 6 0
BBX 7 12 0 -1
BITMAP
00021110
001D3220
002D7100
02213300
1E585200
48111200
97111100
A717A300
A7233100
A7166100
A7111100
9FEED300
ENDCHAR
STARTCHAR ecircumflexhookabove
ENCODING 7875
SWIDTH 754 0
DWIDTH 6 0
BBX 7 12 0 -1
BITMAP
00021110
001D3220
002D7100
02213300
1E585200
48111200
97111100
A717A300
A7233100
A7166100
A7111100
9FEED300
ENDCHAR
STARTCHAR Ecircumflextilde
ENCODING 7876
SWIDTH 754 0
DWIDTH 6 0
BBX 6 11 0 -1
BITMAP
020011
2E6651
1B5131
2E5852
481112
A71111
A717A3
A72331
A71661
A71111
9FEED3
ENDCHAR
STARTCHAR ecircumflextilde
ENCODING 7877
SWIDTH 754 0
DWIDTH 6 0
BBX 6 11 0 -1
BITMAP
020011
2E6651
1B5131
2E5852
481112
A71111
A717A3
A72331
A71661
A71111
9FEED3
ENDCHAR
STARTCHAR Ecircumflexdotbelow
ENCODING 7878
SWIDTH 754 0
DWIDTH 6 0
BBX 6 11 0 -3
BITMAP
001110
085852
381112
871111
A717A3
A72331
A71661
A71111
9D8570
069110
07FB10
ENDCHAR
STARTCHAR ecircumflexdotbelow
ENCODING 7879
SWIDTH 754 0
DWIDTH 6 0
BBX 6 11 0 -3
BITMAP
001110
085852
381112
871111
A717A3
A72331
A71661
A71111
9D8570
069110
07FB10
ENDCHAR
STARTCHAR Ihookabove
ENCODING 7880
SWIDTH 705 0
DWIDTH 6 0
BBX 6 10 0 -1
BITMAP
012110
0C5220
0C9200
350111
B72231
8E6150
0A6110
073111
951211
BFEEA1
ENDCHAR
STARTCHAR ihookabove
ENCODING 7881
SWIDTH 705 0
DWIDTH 6 0
BBX 6 10 0 -1
BITMAP
012110
0C5220
0C9200
350111
B72231
8E6150
0A6110
073111
951211
BFEEA1
ENDCHAR
STARTCHAR Idotbelow
ENCODING 7882
SWIDTH 705 0
DWIDTH 6 0
BBX 6 9 0 -3
BITMAP
351111
B72231
8E6150
0A6110
073111
951211
BC7571
096120
0AFA10
ENDCHAR
STARTCHAR idotbelow
ENCODING 7883
SWIDTH 705 0
DWIDTH 6 0
BBX 6 9 0 -3
BITMAP
351111
B72231
8E6150
0A6110
073111
951211
BC7571
096120
0AFA10
ENDCHAR
STARTCHAR Odotbelow
ENCODING 7884
SWIDTH 837 0
DWIDTH 7 0
BBX 7 9 0 -3
BITMAP
02233200
46100110
A61B7110
B61A8110
B6197110
B9111110
8FC35400
05E11000
02FE5000
ENDCHAR
STARTCHAR odotbelow
ENCODING 7885
SWIDTH 837 0
DWIDTH 7 0
BBX 7 9 0 -3
BITMAP
02233200
46100110
A61B7110
B61A8110
B6197110
B9111110
8FC35400
05E11000
02FE5000
ENDCHAR
STARTCHAR Ohookabove
ENCODING 7886
SWIDTH 837 0
DWIDTH 7 0
BBX 7 10 0 -1
BITMAP
00212000
03B31100
05F52100
03845200
57100110
B61B7110
B61A8110
B6197110
AC312310
2CFEA200
ENDCHAR
STARTCHAR ohookabove
ENCODING 7887
SWIDTH 837 0
DWIDTH 7 0
BBX 7 10 0 -1
BITMAP
00212000
03B31100
05F52100
03845200
57100110
B61B7110
B61A8110
B6197110
AC312310
2CFEA200
ENDCHAR
STARTCHAR Ocircumflexacute
ENCODING 7888
SWIDTH 837 0
DWIDTH 7 0
BBX 7 11 0 -1
BITMAP
00015500
000C4100
01323200
0D877300
09111210
86100110
B61B7110
B61A8110
B6197110
AC312300
2BFEA100
ENDCHAR
STARTCHAR ocircumflexacute
ENCODING 7889
SWIDTH 837 0
DWIDTH 7 0
BBX 7 11 0 -1
BITMAP
00015500
000C4100
01323200
0D877300
09111210
86100110
B61B7110
B61A8110
B6197110
AC312300
2BFEA100
ENDCHAR
STARTCHAR Ocircumflexgrave
ENCODING 7890
SWIDTH 837 0
DWIDTH 7 0
BBX 7 11 0 -1
BITMAP
00045400
001F2100
02333100
0D877300
09111210
86100110
B61B7110
B61A8110
B6197110
AC312300
2BFEA100
ENDCHAR
STARTCHAR ocircumflexgrave
ENCODING 7891
SWIDTH 837 0
DWIDTH 7 0
BBX 7 11 0 -1
BITMAP
00045400
001F2100
02333100
0D877300
09111210
86100110
B61B7110
B61A8110
B6197110
AC312300
2BFEA100
ENDCHAR
STARTCHAR Ocircumflexhookabove
ENCODING 7892
SWIDTH 837 0
DWIDTH 7 0
BBX 7 12 0 -1
BITMAP
00012110
000B5220
000B9200
02222400
0D877300
09111210
86100110
B61B7110
B61A8110
B6197110
AC312300
2BFEA100
ENDCHAR
STARTCHAR ocircumflexhookabove
ENCODING 7893
SWIDTH 837 0
DWIDTH 7 0
BBX 7 12 0 -1
BITMAP
00012110
000B5220
000B9200
02222400
0D877300
09111210
86100110
B61B7110
B61A8110
B6197110
AC312300
2BFEA100
ENDCHAR
STARTCHAR Ocircumflextilde
ENCODING 7894
SWIDTH 837 0
DWIDTH 7 0
BBX 7 11 0 -1
BITMAP
01100100
0C875200
09722100
0D877300
09111210
86100110
B61B7110
B61A8110
B6197110
AC312300
2BFEA100
ENDCHAR
STARTCHAR ocircumflextilde
ENCODING 7895
SWIDTH 837 0
DWIDTH 7 0
BBX 7 11 0 -1
BITMAP
01100100
0C875200
09722100
0D877300
09111210
86100110
B61B7110
B61A8110
B6197110
AC312300
2BFEA100
ENDCHAR
STARTCHAR Ocircumflexdotbelow
ENCODING 7896
SWIDTH 837 0
DWIDTH 7 0
BBX 7 11 0 -3
BITMAP
00111000
0A877400
09111210
76100110
B61B7110
B61A8110
B6197110
BA111110
7FC35400
05E11000
02FE5000
ENDCHAR
STARTCHAR ocircumflexdotbelow
ENCODING 7897
SWIDTH 837 0
DWIDTH 7 0
BBX 7 11 0 -3
BITMAP
00111000
0A877400
09111210
76100110
B61B7110
B61A8110
B6197110
BA111110
7FC35400
05E11000
02FE5000
ENDCHAR
STARTCHAR Ohornacute
ENCODING 7898
SWIDTH 847 0
DWIDTH 7 0
BBX 7 9 0 -1
BITMAP
02333100
2C245310
2B312330
86100110
B61B7110
B61A8110
B6197110
AC312300
3CFEA100
ENDCHAR
STARTCHAR ohornacute
ENCODING 7899
SWIDTH 847 0
DWIDTH 7 0
BBX 7 9 0 -1
BITMAP
02333100
2C245310
2B312330
86100110
B61B7110
B61A8110
B6197110
AC312300
3CFEA100
ENDCHAR
STARTCHAR Ohorngrave
ENCODING 7900
SWIDTH 847 0
DWIDTH 7 0
BBX 7 9 0 -1
BITMAP
07333100
5E653310
18302330
76100110
B61B7110
B61A8110
B6197110
AC312300
3CFEA100
ENDCHAR
STARTCHAR ohorngrave
ENCODING 7901
SWIDTH 847 0
DWIDTH 7 0
BBX 7 9 0 -1
BITMAP
07333100
5E653310
18302330
76100110
B61B7110
B61A8110
B6197110
AC312300
3CFEA100
ENDCHAR
STARTCHAR Ohornhookabove
ENCODING 7902
SWIDTH 847 0
DWIDTH 7 0
BBX 7 10 0 -1
BITMAP
00211000
04B31100
04F41310
04311330
76100110
B61B7110
B61A8110
B6197110
AC312300
3CFEA100
ENDCHAR
STARTCHAR ohornhookabove
ENCODING 7903
SWIDTH 847 0
DWIDTH 7 0
BBX 7 10 0 -1
BITMAP
00211000
04B31100
04F41310
04311330
76100110
B61B7110
B61A8110
B6197110
AC312300
3CFEA100
ENDCHAR
STARTCHAR Ohorntilde
ENCODING 7904
SWIDTH 847 0
DWIDTH 7 0
BBX 7 9 0 -1
BITMAP
02011000
2E231310
1B312330
76100110
B61B7110
B61A8110
B6197110
AC312300
3CFEA100
ENDCHAR
STARTCHAR ohorntilde
ENCODING 7905
SWIDTH 847 0
DWIDTH 7 0
BBX 7 9 0 -1
BITMAP
02011000
2E231310
1B312330
76100110
B61B7110
B61A8110
B6197110
AC312300
3CFEA100
ENDCHAR
STARTCHAR Ohorndotbelow
ENCODING 7906
SWIDTH 847 0
DWIDTH 7 0
BBX 7 10 0 -3
BITMAP
00000310
03212330
66100110
B61B7110
B61A8110
B6197100
99111310
05C10100
02E01000
02FD3000
ENDCHAR
STARTCHAR ohorndotbelow
ENCODING 7907
SWIDTH 847 0
DWIDTH 7 0
BBX 7 10 0 -3
BITMAP
00000310
03212330
66100110
B61B7110
B61A8110
B6197100
99111310
05C10100
02E01000
02FD3000
ENDCHAR
STARTCHAR Udotbelow
ENCODING 7908
SWIDTH 846 0
DWIDTH 7 0
BBX 7 9 0 -3
BITMAP
36126110
A7199110
A7199110
A7199110
A7165100
7A111320
04C10100
02F01000
01FE3000
ENDCHAR
STARTCHAR udotbelow
ENCODING 7909
SWIDTH 846 0
DWIDTH 7 0
BBX 7 9 0 -3
BITMAP
36126110
A7199110
A7199110
A7199110
A7165100
7A111320
04C10100
02F01000
01FE3000
ENDCHAR
STARTCHAR Uhookabove
ENCODING 7910
SWIDTH 846 0
DWIDTH 7 0
BBX 7 10 0 -1
BITMAP
00211100
01D32200
01D71000
25199110
A7199110
A7199110
A7199110
A7165110
9C312310
2BFEA200
ENDCHAR
STARTCHAR uhookabove
ENCODING 7911
SWIDTH 846 0
DWIDTH 7 0
BBX 7 10 0 -1
BITMAP
00211100
01D32200
01D71000
25199110
A7199110
A7199110
A7199110
A7165110
9C312310
2BFEA200
ENDCHAR
STARTCHAR Uhornacute
ENCODING 7912
SWIDTH 856 0
DWIDTH 7 0
BBX 7 9 0 -1
BITMAP
02333200
2C244310
48288220
A7199110
A7199110
A7199110
A7165110
AC311310
3CEEA200
ENDCHAR
STARTCHAR uhornacute
ENCODING 7913
SWIDTH 856 0
DWIDTH 7 0
BBX 7 9 0 -1
BITMAP
02333200
2C244310
48288220
A7199110
A7199110
A7199110
A7165110
AC311310
3CEEA200
ENDCHAR
STARTCHAR Uhorngrave
ENCODING 7914
SWIDTH 856 0
DWIDTH 7 0
BBX 7 9 0 -1
BITMAP
06333100
4D542410
482BA220
A7199110
A7199110
A7199110
A7165110
AC311310
3CEEA200
ENDCHAR
STARTCHAR uhorngrave
ENCODING 7915
SWIDTH 856 0
DWIDTH 7 0
BBX 7 9 0 -1
BITMAP
06333100
4D542410
482BA220
A7199110
A7199110
A7199110
A7165110
AC311310
3CEEA200
ENDCHAR
STARTCHAR Uhornhookabove
ENCODING 7916
SWIDTH 856 0
DWIDTH 7 0
BBX 7 10 0 -1
BITMAP
00211000
02D32100
02E61210
25188220
A7199110
A7199110
A7199110
A7165110
AC311310
3CEEA200
ENDCHAR
STARTCHAR uhornhookabove
ENCODING 7917
SWIDTH 856 0
DWIDTH 7 0
BBX 7 10 0 -1
BITMAP
00211000
02D32100
02E61210
25188220
A7199110
A7199110
A7199110
A7165110
AC311310
3CEEA200
ENDCHAR
STARTCHAR Uhorntilde
ENCODING 7918
SWIDTH 856 0
DWIDTH 7 0
BBX 7 9 0 -1
BITMAP
01101100
2C231410
482BA220
A7199110
A7199110
A7199110
A7165110
AC311310
3CEEA200
ENDCHAR
STARTCHAR uhorntilde
ENCODING 7919
SWIDTH 856 0
DWIDTH 7 0
BBX 7 9 0 -1
BITMAP
01101100
2C231410
482BA220
A7199110
A7199110
A7199110
A7165110
AC311310
3CEEA200
ENDCHAR
STARTCHAR Uhorndotbelow
ENCODING 7920
SWIDTH 856 0
DWIDTH 7 0
BBX 7 10 0 -3
BITMAP
00000310
36125220
A7199110
A7199110
A7199110
A7165110
7A111220
04C10100
02F01000
01FE3000
ENDCHAR
STARTCHAR uhorndotbelow
ENCODING 7921
SWIDTH 856 0
DWIDTH 7 0
BBX 7 10 0 -3
BITMAP
00000310
36125220
A7199110
A7199110
A7199110
A7165110
7A111220
04C10100
02F01000
01FE3000
ENDCHAR
STARTCHAR Ygrave
ENCODING 7922
SWIDTH 805 0
DWIDTH 6 0
BBX 7 9 0 -1
BITMAP
06454200
2F532100
452B7210
C41B6110
C6152110
AE221100
2EB11000
06C01000
04FC2000
ENDCHAR
STARTCHAR ygrave
ENCODING 7923
SWIDTH 805 0
DWIDTH 6 0
BBX 7 9 0 -1
BITMAP
06454200
2F532100
452B7210
C41B6110
C6152110
AE221100
2EB11000
06C01000
04FC2000
ENDCHAR
STARTCHAR Ydotbelow
ENCODING 7924
SWIDTH 805 0
DWIDTH 6 0
BBX 7 9 0 -3
BITMAP
34146210
C41B6110
C6152110
BE121100
3FA11000
08C01000
04E53000
03C11000
04FD3000
ENDCHAR
STARTCHAR ydotbelow
ENCODING 7925
SWIDTH 805 0
DWIDTH 6 0
BBX 7 9 0 -3
BITMAP
34146210
C41B6110
C6152110
BE121100
3FA11000
08C01000
04E53000
03C11000
04FD3000
ENDCHAR
STARTCHAR Yhookabove
ENCODING 7926
SWIDTH 805 0
DWIDTH 6 0
BBX 7 10 0 -1
BITMAP
00311000
05A32100
04F31000
44296210
C41B6110
C6152110
AE221100
2EB11000
06C01000
04FC2000
ENDCHAR
STARTCHAR yhookabove
ENCODING 7927
SWIDTH 805 0
DWIDTH 6 0
BBX 7 10 0 -1
BITMAP
00311000
05A32100
04F31000
44296210
C41B6110
C6152110
AE221100
2EB11000
06C01000
04FC2000
ENDCHAR
STARTCHAR Ytilde
ENCODING 7928
SWIDTH 805 0
DWIDTH 6 0
BBX 7 9 0 -1
BITMAP
01101100
0D331100
452D7210
C41B6110
C6152110
AE221100
2EB11000
06C01000
04FC2000
ENDCHAR
STARTCHAR ytilde
ENCODING 7929
SWIDTH 805 0
DWIDTH 6 0
BBX 7 9 0 -1
BITMAP
01101100
0D331100
452D7210
C41B6110
C6152110
AE221100
2EB11000
06C01000
04FC2000
ENDCHAR
STARTCHAR enspace
ENCODING 8192
SWIDTH 500 0
DWIDTH 4 0
BBX 1 1 0 0
BITMAP
00
ENDCHAR
STARTCHAR emspace
ENCODING 8193
SWIDTH 1000 0
DWIDTH 8 0
BBX 1 1 0 0
BITMAP
00
ENDCHAR
STARTCHAR uni2002
ENCODING 8194
SWIDTH 500 0
DWIDTH 4 0
BBX 1 1 0 0
BITMAP
00
ENDCHAR
STARTCHAR uni2003
ENCODING 8195
SWIDTH 1000 0
DWIDTH 8 0
BBX 1 1 0 0
BITMAP
00
ENDCHAR
STARTCHAR space.tab_en
ENCODING 8199
SWIDTH 1100 0
DWIDTH 9 0
BBX 1 1 0 0
BITMAP
00
ENDCHAR
STARTCHAR uni2010
ENCODING 8208
SWIDTH 520 0
DWIDTH 4 0
BBX 5 3 0 1
BITMAP
121100
B41110
DFE600
ENDCHAR
STARTCHAR figuredash
ENCODING 8210
SWIDTH 834 0
DWIDTH 7 0
BBX 7 3 0 1
BITMAP
03111110
87111110
9FFFFA10
ENDCHAR
STARTCHAR endash
ENCODING 8211
SWIDTH 834 0
DWIDTH 7 0
BBX 7 3 0 1
BITMAP
03111110
87111110
9FFFFA10
ENDCHAR
STARTCHAR emdash
ENCODING 8212
SWIDTH 1234 0
DWIDTH 10 0
BBX 10 3 0 1
BITMAP
0311111111
8711111111
9FFFFFFFC2
ENDCHAR
STARTCHAR horizontalbar
ENCODING 8213
SWIDTH 1234 0
DWIDTH 10 0
BBX 10 3 0 1
BITMAP
0311111111
8711111111
9FFFFFFFC2
ENDCHAR
STARTCHAR quoteleft
ENCODING 8216
SWIDTH 484 0
DWIDTH 4 0
BBX 4 4 0 2
BITMAP
0331
9632
B611
BFD3
ENDCHAR
STARTCHAR quoteright
ENCODING 8217
SWIDTH 484 0
DWIDTH 4 0
BBX 4 5 0 1
BITMAP
3532
B511
9832
9F80
0100
ENDCHAR
STARTCHAR quotesinglbase
ENCODING 8218
SWIDTH 484 0
DWIDTH 4 0
BBX 4 5 0 -2
BITMAP
0211
8521
BA41
9711
9E60
ENDCHAR
STARTCHAR quotedblleft
ENCODING 8220
SWIDTH 784 0
DWIDTH 6 0
BBX 7 4 0 2
BITMAP
03232300
A5392400
C5161110
CFDFE800
ENDCHAR
STARTCHAR quotedblright
ENCODING 8221
SWIDTH 784 0
DWIDTH 6 0
BBX 7 5 0 1
BITMAP
45362210
C4160110
B72A3300
BE8FC200
00010000
ENDCHAR
STARTCHAR quotedblbase
ENCODING 8222
SWIDTH 784 0
DWIDTH 6 0
BBX 7 5 0 -2
BITMAP
02131100
94261110
C9385110
B62B1100
AE8FB100
ENDCHAR
STARTCHAR dagger
ENCODING 8224
SWIDTH 818 0
DWIDTH 7 0
BBX 7 7 0 -1
BITMAP
00712000
04A11110
A5121110
CCB15910
34F12100
02E01000
03FD3000
ENDCHAR
STARTCHAR daggerdbl
ENCODING 8225
SWIDTH 818 0
DWIDTH 7 0
BBX 7 7 0 -1
BITMAP
01812100
64121110
CB914920
69913510
A5121110
CDB05910
13FD4000
ENDCHAR
STARTCHAR bullet
ENCODING 8226
SWIDTH 543 0
DWIDTH 4 0
BBX 5 4 0 1
BITMAP
122100
B41110
C42110
CEE800
ENDCHAR
STARTCHAR ellipsis
ENCODING 8230
SWIDTH 1210 0
DWIDTH 10 0
BBX 10 4 0 -1
BITMAP
0212312211
8517418311
B607408301
BFCDFBEEA0
ENDCHAR
STARTCHAR perthousand
ENCODING 8240
SWIDTH 1517 0
DWIDTH 12 0
BBX 13 7 0 -1
BITMAP
03338220000000
A581A120000000
D5216211001100
D8244512131110
7ECD2828348110
001C0C43573210
004F8CFBAFC300
ENDCHAR
STARTCHAR minute
ENCODING 8242
SWIDTH 456 0
DWIDTH 4 0
BBX 4 4 0 2
BITMAP
2511
A611
B601
BF80
ENDCHAR
STARTCHAR second
ENCODING 8243
SWIDTH 766 0
DWIDTH 6 0
BBX 6 4 0 2
BITMAP
251722
A61911
B60A01
BFBFD3
ENDCHAR
STARTCHAR guilsinglleft
ENCODING 8249
SWIDTH 663 0
DWIDTH 5 0
BBX 5 6 0 -1
BITMAP
011120
251130
A61630
AC4210
3BEF50
000100
ENDCHAR
STARTCHAR guilsinglright
ENCODING 8250
SWIDTH 663 0
DWIDTH 5 0
BBX 5 6 0 -1
BITMAP
151110
8A2120
6C7220
581320
8EB700
100000
ENDCHAR
STARTCHAR fraction
ENCODING 8260
SWIDTH 417 0
DWIDTH 3 0
BBX 5 7 -1 -1
BITMAP
006120
03B110
068110
096200
0B4100
0E1100
1FB100
ENDCHAR
STARTCHAR zero.sups
ENCODING 8304
SWIDTH 656 0
DWIDTH 5 0
BBX 5 5 0 1
BITMAP
132210
938510
A38610
A52110
4BA600
ENDCHAR
STARTCHAR foursuperior
ENCODING 8308
SWIDTH 608 0
DWIDTH 5 0
BBX 5 5 0 1
BITMAP
543420
D56510
D71210
AFF510
00CD30
ENDCHAR
STARTCHAR five.sups
ENCODING 8309
SWIDTH 593 0
DWIDTH 5 0
BBX 5 5 0 1
BITMAP
363210
B63610
BB5110
961220
BEE700
ENDCHAR
STARTCHAR six.sups
ENCODING 8310
SWIDTH 628 0
DWIDTH 5 0
BBX 5 5 0 1
BITMAP
032210
963620
B62010
B91130
6FFA10
ENDCHAR
STARTCHAR seven.sups
ENCODING 8311
SWIDTH 577 0
DWIDTH 5 0
BBX 5 5 0 1
BITMAP
642220
DEA110
171410
7A1200
7E6000
ENDCHAR
STARTCHAR eight.sups
ENCODING 8312
SWIDTH 638 0
DWIDTH 5 0
BBX 5 6 0 0
BITMAP
032210
593420
882220
963430
CFCC50
388300
ENDCHAR
STARTCHAR nine.sups
ENCODING 8313
SWIDTH 628 0
DWIDTH 5 0
BBX 5 5 0 1
BITMAP
143310
A64420
C61120
5C3220
5FE800
ENDCHAR
STARTCHAR parenleft.sups
ENCODING 8317
SWIDTH 434 0
DWIDTH 3 0
BBX 3 6 0 1
BITMAP
0110
7230
B210
C210
B310
6B50
ENDCHAR
STARTCHAR parenright.sups
ENCODING 8318
SWIDTH 435 0
DWIDTH 3 0
BBX 4 6 0 1
BITMAP
1110
A120
8A11
2A11
2910
8710
ENDCHAR
STARTCHAR n.sups
ENCODING 8319
SWIDTH 673 0
DWIDTH 5 0
BBX 5 5 0 1
BITMAP
132210
837620
937620
937610
8A6B40
ENDCHAR
STARTCHAR zero.sinf
ENCODING 8320
SWIDTH 656 0
DWIDTH 5 0
BBX 5 5 0 -1
BITMAP
132210
938510
A38610
A52110
4BA600
ENDCHAR
STARTCHAR one.sinf
ENCODING 8321
SWIDTH 557 0
DWIDTH 4 0
BBX 5 5 0 -1
BITMAP
253200
AA2100
5F3100
392110
CEEB20
ENDCHAR
STARTCHAR two.sinf
ENCODING 8322
SWIDTH 585 0
DWIDTH 5 0
BBX 5 5 0 -1
BITMAP
262210
AD7210
551220
C43510
CEEC30
ENDCHAR
STARTCHAR three.sinf
ENCODING 8323
SWIDTH 584 0
DWIDTH 5 0
BBX 5 5 0 -1
BITMAP
452300
CB5110
5C5020
751220
BEE700
ENDCHAR
STARTCHAR four.sinf
ENCODING 8324
SWIDTH 620 0
DWIDTH 5 0
BBX 5 5 0 -1
BITMAP
644420
E47410
E61210
BFF510
00CC20
ENDCHAR
STARTCHAR five.sinf
ENCODING 8325
SWIDTH 593 0
DWIDTH 5 0
BBX 5 5 0 -1
BITMAP
363210
B63610
BB5110
961220
BEE700
ENDCHAR
STARTCHAR six.sinf
ENCODING 8326
SWIDTH 628 0
DWIDTH 5 0
BBX 5 5 0 -1
BITMAP
032210
963620
B62010
B91130
6FFA10
ENDCHAR
STARTCHAR seven.sinf
ENCODING 8327
SWIDTH 577 0
DWIDTH 5 0
BBX 5 5 0 -1
BITMAP
642220
DEA110
171410
7A1200
7E6000
ENDCHAR
STARTCHAR eight.sinf
ENCODING 8328
SWIDTH 638 0
DWIDTH 5 0
BBX 5 6 0 -2
BITMAP
032210
593420
882220
963430
CFCC50
388300
ENDCHAR
STARTCHAR nine.sinf
ENCODING 8329
SWIDTH 628 0
DWIDTH 5 0
BBX 5 5 0 -1
BITMAP
143310
A64420
C61120
5C3220
5FE800
ENDCHAR
STARTCHAR parenleft.sinf
ENCODING 8333
SWIDTH 434 0
DWIDTH 3 0
BBX 3 6 0 -1
BITMAP
0110
7230
B210
C210
B310
6B50
ENDCHAR
STARTCHAR parenright.sinf
ENCODING 8334
SWIDTH 435 0
DWIDTH 3 0
BBX 4 6 0 -1
BITMAP
1110
A120
8A11
2A11
2910
8710
ENDCHAR
STARTCHAR colonsign
ENCODING 8353
SWIDTH 728 0
DWIDTH 6 0
BBX 6 8 0 -1
BITMAP
002220
039331
471001
A61BC2
B61111
B91221
6FC332
03DD50
ENDCHAR
STARTCHAR lira
ENCODING 8356
SWIDTH 795 0
DWIDTH 6 0
BBX 7 7 0 -1
BITMAP
02111100
38111000
94233100
E3223000
E5144110
B7111110
9FEEE700
ENDCHAR
STARTCHAR naira
ENCODING 8358
SWIDTH 853 0
DWIDTH 7 0
BBX 7 7 0 -1
BITMAP
26116110
97338110
A4212210
E3232210
F71B5220
A70A9010
9F98FA10
ENDCHAR
STARTCHAR peseta
ENCODING 8359
SWIDTH 812 0
DWIDTH 7 0
BBX 7 7 0 -1
BITMAP
15111200
95100020
B12B5210
D6232110
A71AA100
A7010000
9F800000
ENDCHAR
STARTCHAR dong
ENCODING 8363
SWIDTH 782 0
DWIDTH 6 0
BBX 7 8 0 -2
BITMAP
00132210
01C12110
03952100
65111100
D44F1100
D8242100
7C776100
6FFFA100
ENDCHAR
STARTCHAR Euro
ENCODING 8364
SWIDTH 748 0
DWIDTH 6 0
BBX 6 7 0 -1
BITMAP
011112
260146
842120
C52320
D81341
AD3111
3DFED3
ENDCHAR
STARTCHAR peso
ENCODING 8369
SWIDTH 812 0
DWIDTH 7 0
BBX 7 7 0 -1
BITMAP
26111200
A5101310
E41B5120
E5032120
A71AA200
A7010000
9F800000
ENDCHAR
STARTCHAR guarani
ENCODING 8370
SWIDTH 788 0
DWIDTH 6 0
BBX 7 9 0 -2
BITMAP
00211000
02B01100
38167400
A6189200
B6183110
B9121110
8FD01300
18F96200
00540000
ENDCHAR
STARTCHAR cedi
ENCODING 8373
SWIDTH 728 0
DWIDTH 6 0
BBX 6 8 0 -1
BITMAP
002110
039121
471001
A61BC2
B61111
B91211
5FD032
03ED20
ENDCHAR
STARTCHAR indianrupee
ENCODING 8377
SWIDTH 713 0
DWIDTH 6 0
BBX 6 7 0 -1
BITMAP
242322
BA6113
A51211
A97240
BEF911
007A01
006FB2
ENDCHAR
STARTCHAR turkishlira
ENCODING 8378
SWIDTH 795 0
DWIDTH 6 0
BBX 8 7 -1 -1
BITMAP
03511000
0B423000
1E333211
1E319711
1E616221
0B611210
0AFED700
ENDCHAR
STARTCHAR ruble
ENCODING 8381
SWIDTH 782 0
DWIDTH 6 0
BBX 7 7 0 -1
BITMAP
26111200
A7111010
A71B4110
A7211400
B4220100
F5010000
BF800000
ENDCHAR
STARTCHAR liter
ENCODING 8467
SWIDTH 749 0
DWIDTH 6 0
BBX 6 7 0 -1
BITMAP
022221
562411
B61711
B62121
B61550
AC3111
4CEE60
ENDCHAR
STARTCHAR uni2117
ENCODING 8471
SWIDTH 967 0
DWIDTH 8 0
BBX 8 9 0 -2
BITMAP
00222210
0559A941
88811391
B791A181
B7922491
B791AAA1
A9781761
6FA66730
059A9400
ENDCHAR
STARTCHAR uni2120
ENCODING 8480
SWIDTH 1003 0
DWIDTH 8 0
BBX 8 5 0 1
BITMAP
03234242
A5396222
DA436552
B7698AB4
8A787591
ENDCHAR
STARTCHAR trademark
ENCODING 8482
SWIDTH 1003 0
DWIDTH 8 0
BBX 9 5 -1 1
BITMAP
0523242420
1FB1B62220
05E1E65520
03E4D8AB40
02A4875910
ENDCHAR
STARTCHAR Omega
ENCODING 8486
SWIDTH 877 0
DWIDTH 7 0
BBX 7 7 0 -1
BITMAP
01122110
38133110
8819B110
8817B110
87167120
C3134110
DEEDEE40
ENDCHAR
STARTCHAR estimated
ENCODING 8494
SWIDTH 815 0
DWIDTH 7 0
BBX 7 7 0 -1
BITMAP
02122200
56242110
B5152110
C5244410
C6167600
AB211100
3CEED200
ENDCHAR
STARTCHAR onethird
ENCODING 8531
SWIDTH 1269 0
DWIDTH 10 0
BBX 10 7 0 -1
BITMAP
2632342000
AB21D22111
3F32D16111
392291A522
CEEE81C842
000962B112
000BE8FEB1
ENDCHAR
STARTCHAR twothirds
ENCODING 8532
SWIDTH 1269 0
DWIDTH 10 0
BBX 10 7 0 -1
BITMAP
2622642000
AD82A22111
5413C16111
C43581A522
CEEE81C842
000A62B112
000BE8FEB1
ENDCHAR
STARTCHAR oneeighth
ENCODING 8539
SWIDTH 1283 0
DWIDTH 10 0
BBX 11 7 0 -1
BITMAP
253234200000
AB21D2101100
5F32D1411200
392291924300
CEEE81637110
000962911100
000BE9EE9100
ENDCHAR
STARTCHAR threeeighths
ENCODING 8540
SWIDTH 1293 0
DWIDTH 10 0
BBX 11 7 0 -1
BITMAP
352345200000
CD52D4201100
7C8392411200
751271824300
BEEC91728110
000871A11100
000AE9EEA200
ENDCHAR
STARTCHAR fiveeighths
ENCODING 8541
SWIDTH 1303 0
DWIDTH 10 0
BBX 11 7 0 -1
BITMAP
363245200000
A624B4201100
B61172411200
9B8381927300
BEEBB1728110
000780B11110
0009E9EEA300
ENDCHAR
STARTCHAR seveneighths
ENCODING 8542
SWIDTH 1241 0
DWIDTH 10 0
BBX 10 7 0 -1
BITMAP
6422722000
DFD1611110
1811614111
7A1A638432
7E7B443642
000E175111
001FBBFC70
ENDCHAR
STARTCHAR arrowleft
ENCODING 8592
SWIDTH 1100 0
DWIDTH 9 0
BBX 7 7 1 -1
BITMAP
00001000
00111000
01121110
79122320
6FC33A10
02CF5000
00040000
ENDCHAR
STARTCHAR arrowup
ENCODING 8593
SWIDTH 1100 0
DWIDTH 9 0
BBX 7 7 1 -1
BITMAP
00011000
00531000
02611200
09022010
4EF44900
00D74000
00891000
ENDCHAR
STARTCHAR arrowright
ENCODING 8594
SWIDTH 1100 0
DWIDTH 9 0
BBX 7 7 1 -1
BITMAP
00010000
00A21000
14621110
A7321210
9CF23300
00F61000
00300000
ENDCHAR
STARTCHAR arrowdown
ENCODING 8595
SWIDTH 1100 0
DWIDTH 9 0
BBX 7 7 1 -1
BITMAP
00121000
00C41000
06321110
5F422200
0BD21100
02EA1000
00540000
ENDCHAR
STARTCHAR arrowupleft
ENCODING 8598
SWIDTH 1100 0
DWIDTH 9 0
BBX 6 6 1 -1
BITMAP
081111
4F2111
1F4212
0D6841
0A7BB1
000100
ENDCHAR
STARTCHAR arrowupright
ENCODING 8599
SWIDTH 1100 0
DWIDTH 9 0
BBX 7 6 1 -1
BITMAP
01112110
1D621200
09722100
1A266100
1D99B100
01000000
ENDCHAR
STARTCHAR arrowdownright
ENCODING 8600
SWIDTH 1100 0
DWIDTH 9 0
BBX 7 6 1 -1
BITMAP
01222100
1C421100
1B921200
09631110
19CEF600
00002000
ENDCHAR
STARTCHAR arrowdownleft
ENCODING 8601
SWIDTH 1100 0
DWIDTH 9 0
BBX 6 6 1 -1
BITMAP
014232
0A4222
0D2121
1D1234
4FBB81
020000
ENDCHAR
STARTCHAR uni21AA
ENCODING 8618
SWIDTH 1100 0
DWIDTH 9 0
BBX 7 9 1 -2
BITMAP
00111100
04111010
964BB700
B6494100
C6371110
BC432120
4BDB2400
006B3000
00200000
ENDCHAR
STARTCHAR uni21AB
ENCODING 8619
SWIDTH 1100 0
DWIDTH 9 0
BBX 7 9 1 -2
BITMAP
00111100
0A011120
2FBBB420
0344A620
01116320
77123410
8FB28400
04DD2000
00120000
ENDCHAR
STARTCHAR uni21B0
ENCODING 8624
SWIDTH 1100 0
DWIDTH 9 0
BBX 7 7 1 -1
BITMAP
00011000
01102100
43221210
DE51A210
1AFAC310
0056F210
0000EB10
ENDCHAR
STARTCHAR uni21B1
ENCODING 8625
SWIDTH 1100 0
DWIDTH 9 0
BBX 7 7 1 -1
BITMAP
00041000
00790100
04212120
86391410
A65B4000
A7330000
9D400000
ENDCHAR
STARTCHAR uni21B2
ENCODING 8626
SWIDTH 1100 0
DWIDTH 9 0
BBX 7 7 1 -1
BITMAP
00003210
0001D210
0011C210
12124210
CA216500
4EE55000
01AA1000
ENDCHAR
STARTCHAR uni21B3
ENCODING 8627
SWIDTH 1100 0
DWIDTH 9 0
BBX 7 7 1 -1
BITMAP
13200000
C5120000
D5571100
D6232110
BE841210
16B74100
00960000
ENDCHAR
STARTCHAR partialdiff
ENCODING 8706
SWIDTH 792 0
DWIDTH 6 0
BBX 7 8 0 -2
BITMAP
05121100
3E441200
2B661110
55252110
C5182110
CA211200
6EFD8100
00100000
ENDCHAR
STARTCHAR Delta
ENCODING 8710
SWIDTH 830 0
DWIDTH 7 0
BBX 7 7 0 -1
BITMAP
01311100
0C222100
2C183200
681B5110
96174110
B6111110
AEEEEA10
ENDCHAR
STARTCHAR product
ENCODING 8719
SWIDTH 859 0
DWIDTH 7 0
BBX 7 7 0 -1
BITMAP
15222210
97233110
A71A9110
A7199110
A7199110
A709A010
9EA7EB10
ENDCHAR
STARTCHAR summation
ENCODING 8721
SWIDTH 750 0
DWIDTH 6 0
BBX 6 8 0 -2
BITMAP
142222
A71133
AC2171
3EA110
052110
642222
C84443
8AAA91
ENDCHAR
STARTCHAR minus
ENCODING 8722
SWIDTH 834 0
DWIDTH 7 0
BBX 7 3 0 1
BITMAP
04111110
89333310
7CCCC700
ENDCHAR
STARTCHAR uni2215
ENCODING 8725
SWIDTH 417 0
DWIDTH 3 0
BBX 5 7 -1 -1
BITMAP
006120
03B110
068110
096200
0B4100
0E1100
1FB100
ENDCHAR
STARTCHAR uni2219
ENCODING 8729
SWIDTH 464 0
DWIDTH 4 0
BBX 4 4 0 1
BITMAP
0211
A411
C401
CFB1
ENDCHAR
STARTCHAR radical
ENCODING 8730
SWIDTH 841 0
DWIDTH 7 0
BBX 7 8 0 -1
BITMAP
00001210
0001C110
0114A110
63187110
E7154200
8F412100
0CA11100
06EE9000
ENDCHAR
STARTCHAR infinity
ENCODING 8734
SWIDTH 978 0
DWIDTH 8 0
BBX 8 7 0 -1
BITMAP
00110110
14113111
A4372A21
C4492A21
C8213112
8FDCFD70
01101100
ENDCHAR
STARTCHAR integral
ENCODING 8747
SWIDTH 574 0
DWIDTH 5 0
BBX 6 9 -1 -2
BITMAP
000111
006211
02E122
03E110
03E110
03E110
063210
1F5510
0A8200
ENDCHAR
STARTCHAR approxequal
ENCODING 8776
SWIDTH 834 0
DWIDTH 7 0
BBX 7 5 0 0
BITMAP
14222210
9A765410
6A668310
67331110
9CDFD500
ENDCHAR
STARTCHAR notequal
ENCODING 8800
SWIDTH 834 0
DWIDTH 7 0
BBX 7 7 0 -1
BITMAP
00031100
15222210
9A512510
5B913510
77121110
9FB4C900
04B50000
ENDCHAR
STARTCHAR lessequal
ENCODING 8804
SWIDTH 814 0
DWIDTH 7 0
BBX 6 7 0 -1
BITMAP
001112
032113
5915A2
8B2122
4C7201
691111
7EEEE5
ENDCHAR
STARTCHAR greaterequal
ENCODING 8805
SWIDTH 814 0
DWIDTH 7 0
BBX 7 7 0 -1
BITMAP
16111000
7B211200
5EFA2210
04311200
6A004300
7A111110
6EEEE600
ENDCHAR
STARTCHAR block
ENCODING 9608
SWIDTH 1000 0
DWIDTH 8 0
BBX 10 10 -1 -2
BITMAP
1222222221
4EEEEEEEE4
5FFFFFFFF5
5FFFFFFFF5
5FFFFFFFF5
5FFFFFFFF5
5FFFFFFFF5
5FFFFFFFF5
5FFFFFFFF5
2555555552
ENDCHAR
STARTCHAR blacksquare
ENCODING 9632
SWIDTH 1100 0
DWIDTH 9 0
BBX 5 5 2 0
BITMAP
221110
D21110
E22210
E42220
BCCB20
ENDCHAR
STARTCHAR blackuppointingtriangle
ENCODING 9650
SWIDTH 1100 0
DWIDTH 9 0
BBX 7 5 1 0
BITMAP
00031000
00811100
03622100
0A222210
3CCCC700
ENDCHAR
STARTCHAR whiteuppointingtriangle
ENCODING 9651
SWIDTH 1100 0
DWIDTH 9 0
BBX 6 4 2 1
BITMAP
003200
021210
030030
232231
ENDCHAR
STARTCHAR blackrightpointingtriangle
ENCODING 9654
SWIDTH 1100 0
DWIDTH 9 0
BBX 5 7 2 -1
BITMAP
010000
921100
F22110
F22120
F24400
F71000
200000
ENDCHAR
STARTCHAR whiterightpointingtriangle
ENCODING 9655
SWIDTH 1100 0
DWIDTH 9 0
BBX 4 6 3 0
BITMAP
1000
3310
2022
2013
3320
3000
ENDCHAR
STARTCHAR blackdownpointingtriangle
ENCODING 9660
SWIDTH 1100 0
DWIDTH 9 0
BBX 7 5 1 0
BITMAP
06111110
4F422100
0CD11100
03F82000
00770000
ENDCHAR
STARTCHAR whitedownpointingtriangle
ENCODING 9661
SWIDTH 1100 0
DWIDTH 9 0
BBX 6 4 2 1
BITMAP
222231
030030
021210
003300
ENDCHAR
STARTCHAR blackleftpointingtriangle
ENCODING 9664
SWIDTH 1100 0
DWIDTH 9 0
BBX 5 7 2 -1
BITMAP
000010
001110
021210
A81210
8FC410
02BF40
000200
ENDCHAR
STARTCHAR whiteleftpointingtriangle
ENCODING 9665
SWIDTH 1100 0
DWIDTH 9 0
BBX 4 6 3 0
BITMAP
0001
0133
3202
3102
0222
0002
ENDCHAR
STARTCHAR blackdiamond
ENCODING 9670
SWIDTH 1100 0
DWIDTH 9 0
BBX 7 7 1 -1
BITMAP
00010000
00111100
01121110
3B122110
3EB11100
04EB1000
00320000
ENDCHAR
STARTCHAR lozenge
ENCODING 9674
SWIDTH 831 0
DWIDTH 7 0
BBX 7 7 0 -1
BITMAP
01411100
09222100
29184110
881A5110
8E221100
2F611100
09EE7000
ENDCHAR
STARTCHAR uni25D6
ENCODING 9686
SWIDTH 546 0
DWIDTH 4 0
BBX 5 10 0 -2
BITMAP
000220
03BEA0
2DFFA0
9FFFA0
DFFFA0
DFFFA0
BFFFA0
3EFFA0
05DFA0
001440
ENDCHAR
STARTCHAR uni25D7
ENCODING 9687
SWIDTH 546 0
DWIDTH 4 0
BBX 6 10 -1 -2
BITMAP
120000
4ED600
5FFF70
5FFFD1
5FFFF4
5FFFF4
5FFFE2
5FFF90
5FE910
252000
ENDCHAR
STARTCHAR uni25DC
ENCODING 9692
SWIDTH 1280 0
DWIDTH 10 0
BBX 10 10 0 -2
BITMAP
0000001221
00017CEEE5
003DFFFFF5
01DFFFFFF5
07FFFFFFF5
0CFFFFFFF5
1EFFFFFFF5
2EFFFFFFF5
2EFFFFFFF5
1555555552
ENDCHAR
STARTCHAR uni25DD
ENCODING 9693
SWIDTH 1280 0
DWIDTH 10 0
BBX 10 10 0 -2
BITMAP
0222000000
2EEED82000
2EFFFFE500
2EFFFFFE30
2EFFFFFFB0
2EFFFFFFE2
2EFFFFFFF4
2EFFFFFFF5
2EFFFFFFF5
1555555552
ENDCHAR
STARTCHAR uni25DE
ENCODING 9694
SWIDTH 1280 0
DWIDTH 10 0
BBX 10 10 0 -2
BITMAP
0222222221
2EEEEEEEE5
2EFFFFFFF5
2EFFFFFFF4
2EFFFFFFE2
2EFFFFFFC0
2EFFFFFF50
2EFFFFF800
2EFFEC5000
1554200000
ENDCHAR
STARTCHAR uni25DF
ENCODING 9695
SWIDTH 1280 0
DWIDTH 10 0
BBX 10 10 0 -2
BITMAP
0222222221
2EEEEEEEE5
2EFFFFFFF5
2EFFFFFFF5
0DFFFFFFF5
08FFFFFFF5
02EFFFFFF5
005EFFFFF5
0003BEFFF5
0000024552
ENDCHAR
STARTCHAR uni261A
ENCODING 9754
SWIDTH 1100 0
DWIDTH 9 0
BBX 8 6 0 -1
BITMAP
02111142
1EB61011
04BB1011
006E6551
00299BE4
00000110
ENDCHAR
STARTCHAR uni261B
ENCODING 9755
SWIDTH 1100 0
DWIDTH 9 0
BBX 7 6 1 -1
BITMAP
63211110
F2101750
F2102400
F2655100
FA982000
10000000
ENDCHAR
STARTCHAR uni261C
ENCODING 9756
SWIDTH 1100 0
DWIDTH 9 0
BBX 7 5 1 0
BITMAP
13333480
03410380
00430380
00133480
00000120
ENDCHAR
STARTCHAR uni261D
ENCODING 9757
SWIDTH 1100 0
DWIDTH 9 0
BBX 5 7 2 -1
BITMAP
032000
025100
024430
020030
042240
377780
011110
ENDCHAR
STARTCHAR uni261E
ENCODING 9758
SWIDTH 1100 0
DWIDTH 9 0
BBX 6 5 2 0
BITMAP
843333
830243
830420
753300
310000
ENDCHAR
STARTCHAR uni261F
ENCODING 9759
SWIDTH 1100 0
DWIDTH 9 0
BBX 5 6 2 0
BITMAP
288880
143350
030030
033230
013520
000330
ENDCHAR
STARTCHAR uni27A1
ENCODING 10145
SWIDTH 650 0
DWIDTH 5 0
BBX 7 12 -1 -3
BITMAP
09300000
1DD10000
4FFA0000
5FFF6000
5FFFE300
5FFFFC00
5FFFFD10
5FFFF500
5FFF9000
5FFC1000
2DE30000
0C500000
ENDCHAR
STARTCHAR uni2B1B
ENCODING 11035
SWIDTH 1280 0
DWIDTH 10 0
BBX 10 10 0 -2
BITMAP
0222222221
2EEEEEEEE5
2EFFFFFFF5
2EFFFFFFF5
2EFFFFFFF5
2EFFFFFFF5
2EFFFFFFF5
2EFFFFFFF5
2EFFFFFFF5
1555555552
ENDCHAR
STARTCHAR uni2B24
ENCODING 11044
SWIDTH 1280 0
DWIDTH 10 0
BBX 10 10 0 -2
BITMAP
0001342000
008EFFEA10
07FFFFFFB0
2EFFFFFFF4
4FFFFFFFF8
5FFFFFFFF9
3FFFFFFFF6
0BFFFFFFD2
02CFFFFD40
00169A7200
ENDCHAR
STARTCHAR A.salt
ENCODING 57600
SWIDTH 836 0
DWIDTH 7 0
BBX 7 7 0 -1
BITMAP
02122200
47242110
A71C7110
A7222210
A7164110
A70B8010
9E88EA00
ENDCHAR
STARTCHAR Agrave.salt
ENCODING 57601
SWIDTH 836 0
DWIDTH 7 0
BBX 7 9 0 -1
BITMAP
02311100
0D753200
09533300
47242110
A71C7110
A7222210
A7164110
A70B8010
9E88EA00
ENDCHAR
STARTCHAR Aacute.salt
ENCODING 57602
SWIDTH 836 0
DWIDTH 7 0
BBX 7 9 0 -1
BITMAP
00211200
09535300
0B533210
47242110
A71C7110
A7222210
A7164110
A70B8010
9E88EA00
ENDCHAR
STARTCHAR Acircumflex.salt
ENCODING 57603
SWIDTH 836 0
DWIDTH 7 0
BBX 7 9 0 -1
BITMAP
00222100
0A455200
0C533300
47242110
A71C7110
A7222210
A7164110
A70B8010
9E88EA00
ENDCHAR
STARTCHAR Atilde.salt
ENCODING 57604
SWIDTH 836 0
DWIDTH 7 0
BBX 7 9 0 -1
BITMAP
00211100
0B432200
0C533200
47242110
A71C7110
A7222210
A7164110
A70B8010
9E88EA00
ENDCHAR
STARTCHAR Adieresis.salt
ENCODING 57605
SWIDTH 836 0
DWIDTH 7 0
BBX 7 9 0 -1
BITMAP
03132100
1E273200
1D533300
47242110
A71C7110
A7222210
A7164110
A70B8010
9E88EA00
ENDCHAR
STARTCHAR Aring.salt
ENCODING 57606
SWIDTH 836 0
DWIDTH 7 0
BBX 7 9 0 -1
BITMAP
00222100
0B364100
0D243100
47242110
A71C7110
A7222210
A7164110
A70B8010
9E88EA00
ENDCHAR
STARTCHAR Amacron.salt
ENCODING 57607
SWIDTH 836 0
DWIDTH 7 0
BBX 7 9 0 -1
BITMAP
00211100
0B422200
0B533300
47242110
A71C7110
A7222210
A7164110
A70B8010
9E88EA00
ENDCHAR
STARTCHAR Abreve.salt
ENCODING 57608
SWIDTH 836 0
DWIDTH 7 0
BBX 7 9 0 -1
BITMAP
04324200
0E723200
09533210
47242110
A71C7110
A7222210
A7164110
A70B8010
9E88EA00
ENDCHAR
STARTCHAR Aogonek.salt
ENCODING 57609
SWIDTH 836 0
DWIDTH 7 0
BBX 7 9 0 -3
BITMAP
02122200
47142110
A71C7110
A7222210
A7164110
A70B7110
9E8A5320
000CC710
00037300
ENDCHAR
STARTCHAR E.salt
ENCODING 57610
SWIDTH 743 0
DWIDTH 6 0
BBX 6 7 0 -1
BITMAP
011222
462443
A61561
B62431
B61641
AC3111
3CEED3
ENDCHAR
STARTCHAR Egrave.salt
ENCODING 57611
SWIDTH 743 0
DWIDTH 6 0
BBX 6 9 0 -1
BITMAP
041111
2F6422
1A6442
462443
A61561
B62431
B61641
AC3111
3CEED3
ENDCHAR
STARTCHAR Eacute.salt
ENCODING 57612
SWIDTH 743 0
DWIDTH 6 0
BBX 6 9 0 -1
BITMAP
002111
0C3452
0D6442
462443
A61561
B62431
B61641
AC3111
3CEED3
ENDCHAR
STARTCHAR Ecircumflex.salt
ENCODING 57613
SWIDTH 743 0
DWIDTH 6 0
BBX 6 9 0 -1
BITMAP
011211
0C2641
1D6442
462443
A61561
B62431
B61641
AC3111
3CEED3
ENDCHAR
STARTCHAR Edieresis.salt
ENCODING 57614
SWIDTH 743 0
DWIDTH 6 0
BBX 6 9 0 -1
BITMAP
031311
2E2722
2D6443
462443
A61561
B62431
B61641
AC3111
3CEED3
ENDCHAR
STARTCHAR Emacron.salt
ENCODING 57615
SWIDTH 743 0
DWIDTH 6 0
BBX 6 9 0 -1
BITMAP
012111
0C3222
0C6442
462443
A61561
B62431
B61641
AC3111
3CEED3
ENDCHAR
STARTCHAR Ebreve.salt
ENCODING 57616
SWIDTH 743 0
DWIDTH 6 0
BBX 6 9 0 -1
BITMAP
052331
1F6231
0A6442
462443
A61561
B62431
B61641
AC3111
3CEED3
ENDCHAR
STARTCHAR Edotaccent.salt
ENCODING 57617
SWIDTH 743 0
DWIDTH 6 0
BBX 6 9 0 -1
BITMAP
004120
03D220
046432
462443
A61561
B62431
B61641
AC3111
3CEED3
ENDCHAR
STARTCHAR Eogonek.salt
ENCODING 57618
SWIDTH 743 0
DWIDTH 6 0
BBX 6 9 0 -3
BITMAP
011222
462443
A61561
B62431
B61641
AC3121
3CEB23
006E83
001650
ENDCHAR
STARTCHAR Ecaron.salt
ENCODING 57619
SWIDTH 743 0
DWIDTH 6 0
BBX 6 9 0 -1
BITMAP
062111
1F7341
096432
462443
A61561
B62431
B61641
AC3111
3CEED3
ENDCHAR
STARTCHAR I.salt
ENCODING 57620
SWIDTH 471 0
DWIDTH 4 0
BBX 4 7 0 -1
BITMAP
1511
9711
9711
9711
9711
9801
9EA1
ENDCHAR
STARTCHAR Igrave.salt
ENCODING 57621
SWIDTH 471 0
DWIDTH 4 0
BBX 4 9 0 -1
BITMAP
2311
C842
9944
9711
9711
9711
9711
9801
9EA1
ENDCHAR
STARTCHAR Iacute.salt
ENCODING 57622
SWIDTH 471 0
DWIDTH 4 0
BBX 4 9 0 -1
BITMAP
0212
A544
B942
9711
9711
9711
9711
9801
9EA1
ENDCHAR
STARTCHAR Icircumflex.salt
ENCODING 57623
SWIDTH 471 0
DWIDTH 4 0
BBX 4 9 0 -1
BITMAP
1121
C363
A943
9711
9711
9711
9711
9801
9EA1
ENDCHAR
STARTCHAR Idieresis.salt
ENCODING 57624
SWIDTH 471 0
DWIDTH 4 0
BBX 5 9 0 -1
BITMAP
314110
D28210
A94600
971100
971100
971100
971100
980100
9EA100
ENDCHAR
STARTCHAR Itilde.salt
ENCODING 57625
SWIDTH 471 0
DWIDTH 4 0
BBX 4 9 0 -1
BITMAP
1112
B232
9943
9711
9711
9711
9711
9801
9EA1
ENDCHAR
STARTCHAR Imacron.salt
ENCODING 57626
SWIDTH 471 0
DWIDTH 4 0
BBX 4 9 0 -1
BITMAP
1211
C322
D942
9711
9711
9711
9711
9801
9EA1
ENDCHAR
STARTCHAR Ibreve.salt
ENCODING 57627
SWIDTH 471 0
DWIDTH 4 0
BBX 5 9 -1 -1
BITMAP
062420
3F4230
0C9420
097110
097110
097110
097110
098010
09EA10
ENDCHAR
STARTCHAR Iogonek.salt
ENCODING 57628
SWIDTH 471 0
DWIDTH 4 0
BBX 4 9 0 -3
BITMAP
1511
8811
8811
8811
8811
8811
9632
BC71
3730
ENDCHAR
STARTCHAR Idotaccent.salt
ENCODING 57629
SWIDTH 471 0
DWIDTH 4 0
BBX 4 9 0 -1
BITMAP
1411
9822
8941
9711
9711
9711
9711
9801
9EA1
ENDCHAR
STARTCHAR L.salt
ENCODING 57630
SWIDTH 715 0
DWIDTH 6 0
BBX 6 7 0 -1
BITMAP
151100
971100
A71100
A71100
A71111
A71111
9EEEC2
ENDCHAR
STARTCHAR Lacute.salt
ENCODING 57631
SWIDTH 715 0
DWIDTH 6 0
BBX 6 9 0 -1
BITMAP
021120
673540
994710
971100
A71100
A71100
A71111
A71111
9EEEC2
ENDCHAR
STARTCHAR Lcommaaccent.salt
ENCODING 57632
SWIDTH 715 0
DWIDTH 6 0
BBX 6 10 0 -4
BITMAP
151100
971100
A71100
A71100
A71111
A71111
9EC582
06B320
05D510
04C600
ENDCHAR
STARTCHAR Lcaron.salt
ENCODING 57633
SWIDTH 715 0
DWIDTH 6 0
BBX 6 7 0 -1
BITMAP
151422
971A11
A71A92
A71520
A71111
A71111
9EEEC2
ENDCHAR
STARTCHAR Ldot.salt
ENCODING 57634
SWIDTH 715 0
DWIDTH 6 0
BBX 6 7 0 -1
BITMAP
151100
971211
A71911
A71BA4
A71451
A71111
9EEEC2
ENDCHAR
STARTCHAR Lslash.salt
ENCODING 57635
SWIDTH 725 0
DWIDTH 6 0
BBX 6 7 0 -1
BITMAP
151100
881200
942110
F31300
D81111
881111
8EEED3
ENDCHAR
STARTCHAR M.salt
ENCODING 57636
SWIDTH 1170 0
DWIDTH 9 0
BBX 10 7 0 -1
BITMAP
0212212210
4723123110
A71C41E321
A71C41E321
A71C41E321
A70C50E311
9E9BE7DE60
ENDCHAR
STARTCHAR N.salt
ENCODING 57637
SWIDTH 846 0
DWIDTH 7 0
BBX 7 7 0 -1
BITMAP
02122110
47232110
A71B8110
A71A8110
A71A8110
A70A8010
9E98EA10
ENDCHAR
STARTCHAR Ntilde.salt
ENCODING 57638
SWIDTH 846 0
DWIDTH 7 0
BBX 7 9 0 -1
BITMAP
00211100
0A542200
0B534210
47232110
A71B8110
A71A8110
A71A8110
A70A8010
9E98EA10
ENDCHAR
STARTCHAR Nacute.salt
ENCODING 57639
SWIDTH 846 0
DWIDTH 7 0
BBX 7 9 0 -1
BITMAP
00211200
09535300
0A534210
47232110
A71B8110
A71A8110
A71A8110
A70A8010
9E98EA10
ENDCHAR
STARTCHAR Ncommaaccent.salt
ENCODING 57640
SWIDTH 846 0
DWIDTH 7 0
BBX 7 10 0 -4
BITMAP
02122110
47232110
A71B8110
A71A8110
A71A8110
A70A8010
9EC47A10
02E33000
01E53000
00C90000
ENDCHAR
STARTCHAR Ncaron.salt
ENCODING 57641
SWIDTH 846 0
DWIDTH 7 0
BBX 7 9 0 -1
BITMAP
04411200
0D934200
08533110
47232110
A71B8110
A71A8110
A71A8110
A70A8010
9E98EA10
ENDCHAR
STARTCHAR W.salt
ENCODING 57642
SWIDTH 1170 0
DWIDTH 9 0
BBX 10 8 0 -2
BITMAP
1413414320
A71C41E321
A71C41E321
A71C41E321
A716227120
AB21231120
3DFDCFE800
0010010000
ENDCHAR
STARTCHAR Wcircumflex.salt
ENCODING 57643
SWIDTH 1170 0
DWIDTH 9 0
BBX 10 10 0 -2
BITMAP
0001221000
0058453000
143B748320
A71C41E321
A71C41E321
A71C41E321
A716227120
AB21231120
3DFDCFE800
0010010000
ENDCHAR
STARTCHAR Wgrave.salt
ENCODING 57644
SWIDTH 1170 0
DWIDTH 9 0
BBX 10 10 0 -2
BITMAP
0014111000
009A532000
143B747320
A71C41E321
A71C41E321
A71C41E321
A716227120
AB21231120
3DFDCFE800
0010010000
ENDCHAR
STARTCHAR Wacute.salt
ENCODING 57645
SWIDTH 1170 0
DWIDTH 9 0
BBX 10 10 0 -2
BITMAP
0001112000
0049254000
142C745320
A71C41E321
A71C41E321
A71C41E321
A716227120
AB21231120
3DFDCFE800
0010010000
ENDCHAR
STARTCHAR Wdieresis.salt
ENCODING 57646
SWIDTH 1170 0
DWIDTH 9 0
BBX 10 10 0 -2
BITMAP
0013131100
00B6272100
143C748320
A71C41E321
A71C41E321
A71C41E321
A716227120
AB21231120
3DFDCFE800
0010010000
ENDCHAR
STARTCHAR X.salt
ENCODING 57647
SWIDTH 837 0
DWIDTH 7 0
BBX 7 7 0 -1
BITMAP
16134110
7D173200
3D121110
67132110
B61B8110
B60A8010
AE98EA10
ENDCHAR
STARTCHAR Y.salt
ENCODING 57648
SWIDTH 806 0
DWIDTH 6 0
BBX 7 7 0 -1
BITMAP
24124110
C41C6110
C41A4110
C7121110
7F912200
06C01000
04ED3000
ENDCHAR
STARTCHAR Yacute.salt
ENCODING 57649
SWIDTH 806 0
DWIDTH 6 0
BBX 7 9 0 -1
BITMAP
00211100
0B345200
274B8110
C41C6110
C41A4110
C7121110
7F912200
06C01000
04ED3000
ENDCHAR
STARTCHAR Ycircumflex.salt
ENCODING 57650
SWIDTH 806 0
DWIDTH 6 0
BBX 7 9 0 -1
BITMAP
00222100
0C364100
274C8210
C41C6110
C41A4110
C7121110
7F912200
06C01000
04ED3000
ENDCHAR
STARTCHAR Ydieresis.salt
ENCODING 57651
SWIDTH 806 0
DWIDTH 6 0
BBX 7 9 0 -1
BITMAP
03131100
3D272200
474D8210
C41C6110
C41A4110
C7121110
7F912200
06C01000
04ED3000
ENDCHAR
STARTCHAR Ygrave.salt
ENCODING 57652
SWIDTH 806 0
DWIDTH 6 0
BBX 7 9 0 -1
BITMAP
04111100
1F642200
374D8210
C41C6110
C41A4110
C7121110
7F912200
06C01000
04ED3000
ENDCHAR
STARTCHAR AE.salt
ENCODING 57653
SWIDTH 1113 0
DWIDTH 9 0
BBX 9 7 0 -1
BITMAP
0112222220
3724323430
A71C814610
A722223310
A716415410
A70B811110
9E88EEED20
ENDCHAR
STARTCHAR IJ.salt
ENCODING 57654
SWIDTH 1133 0
DWIDTH 9 0
BBX 9 8 0 -2
BITMAP
1511005120
971104D110
971115D110
971814D110
971A126110
980A611110
9EA9FEC500
0000010000
ENDCHAR
STARTCHAR IJ.stack
ENCODING 57655
SWIDTH 1363 0
DWIDTH 11 0
BBX 11 8 0 -2
BITMAP
242221005110
B8223206A110
8E614017A110
0A612906A110
07313B135110
A5111A411210
BEEEABFEC400
000000110000
ENDCHAR
STARTCHAR quoteleft.salt
ENCODING 57656
SWIDTH 407 0
DWIDTH 3 0
BBX 3 4 0 2
BITMAP
0440
9730
CB60
4500
ENDCHAR
STARTCHAR quoteright.salt
ENCODING 57657
SWIDTH 407 0
DWIDTH 3 0
BBX 3 4 0 2
BITMAP
2430
B830
AC40
3300
ENDCHAR
STARTCHAR ampersand.salt
ENCODING 57658
SWIDTH 732 0
DWIDTH 6 0
BBX 6 9 0 -2
BITMAP
002110
025111
2A1343
5D1360
552440
C32741
D81211
6EF452
01A910
ENDCHAR
STARTCHAR caron.2
ENCODING 57659
SWIDTH 600 0
DWIDTH 5 0
BBX 4 4 0 2
BITMAP
0322
0E11
2F92
1520
ENDCHAR
STARTCHAR indexup
ENCODING 57660
SWIDTH 1100 0
DWIDTH 9 0
BBX 7 7 1 -1
BITMAP
02410000
0B421000
0D322100
0E400100
0D711200
1B000110
3EEEE600
ENDCHAR
STARTCHAR indexdown
ENCODING 57661
SWIDTH 1100 0
DWIDTH 9 0
BBX 6 7 1 -1
BITMAP
061112
3F5114
1B4001
0D3111
0E4991
0D5300
0B8000
ENDCHAR
STARTCHAR indexupleft
ENCODING 57662
SWIDTH 1100 0
DWIDTH 9 0
BBX 7 8 1 -2
BITMAP
19110000
3F711000
09201100
49101120
7F711100
09F21000
01E70000
00200000
ENDCHAR
STARTCHAR indexupright
ENCODING 57663
SWIDTH 1100 0
DWIDTH 9 0
BBX 7 9 1 -2
BITMAP
00000100
00001110
00021200
00610210
16110110
8F511100
0AF53000
00AE2000
00020000
ENDCHAR
STARTCHAR indexdownleft
ENCODING 57664
SWIDTH 1100 0
DWIDTH 9 0
BBX 9 7 0 -1
BITMAP
0000110000
0001911000
0004211100
0041002110
0436108300
3D8FC20000
1204500000
ENDCHAR
STARTCHAR indexdownright
ENCODING 57665
SWIDTH 1100 0
DWIDTH 9 0
BBX 9 7 0 -1
BITMAP
0000200000
0003110000
0041111000
0921001100
3DF7126210
009F87F800
0006202000
ENDCHAR
STARTCHAR indexdownleft.outline
ENCODING 57666
SWIDTH 1100 0
DWIDTH 9 0
BBX 8 6 1 0
BITMAP
00004000
00036600
00222660
02200371
23531310
12033000
ENDCHAR
STARTCHAR indexdownright.outline
ENCODING 57667
SWIDTH 1100 0
DWIDTH 9 0
BBX 8 6 1 0
BITMAP
00050000
00852000
08522200
36200320
01313531
00033020
ENDCHAR
STARTCHAR indexupleft.outline
ENCODING 57668
SWIDTH 1100 0
DWIDTH 9 0
BBX 6 8 2 -1
BITMAP
010000
232000
043200
240220
310155
032480
016800
004000
ENDCHAR
STARTCHAR indexupright.outline
ENCODING 57669
SWIDTH 1100 0
DWIDTH 9 0
BBX 6 8 2 -1
BITMAP
000010
000241
002340
022051
641023
194130
019500
001300
ENDCHAR
STARTCHAR uni261A.salt
ENCODING 57670
SWIDTH 1100 0
DWIDTH 9 0
BBX 8 6 0 -1
BITMAP
02111142
1EAA2011
046F3131
001DB5C4
0006C470
00001000
ENDCHAR
STARTCHAR uni261B.salt
ENCODING 57671
SWIDTH 1100 0
DWIDTH 9 0
BBX 7 6 1 -1
BITMAP
53211120
E2103A60
F2312400
F8D32000
74C90000
00100000
ENDCHAR
STARTCHAR indexdown.salt
ENCODING 57672
SWIDTH 1100 0
DWIDTH 9 0
BBX 6 7 1 -1
BITMAP
015112
08D414
034101
1DC521
03BEC1
0005C1
0004C2
ENDCHAR
STARTCHAR indexdownleft.salt
ENCODING 57673
SWIDTH 1100 0
DWIDTH 9 0
BBX 8 7 0 -1
BITMAP
00000100
00007220
00024112
00511062
03484330
1D3BDE30
04001500
ENDCHAR
STARTCHAR indexdownright.salt
ENCODING 57674
SWIDTH 1100 0
DWIDTH 9 0
BBX 8 7 0 -1
BITMAP
00001000
00132000
01311110
1C740110
08C54661
00C999F5
00510040
ENDCHAR
STARTCHAR indexup.salt
ENCODING 57675
SWIDTH 1100 0
DWIDTH 9 0
BBX 6 7 1 -1
BITMAP
023100
0C2100
0E0211
2F1112
1F6131
1C0001
3EEEA1
ENDCHAR
STARTCHAR indexupleft.salt
ENCODING 57676
SWIDTH 1100 0
DWIDTH 9 0
BBX 7 7 1 -1
BITMAP
06100000
5F611000
09711000
0B411210
1A441100
6AC71000
009A0000
ENDCHAR
STARTCHAR indexupright.salt
ENCODING 57677
SWIDTH 1100 0
DWIDTH 9 0
BBX 7 7 1 -1
BITMAP
00001110
00011200
00621200
03401200
6E315420
1CE37700
01C90000
ENDCHAR
STARTCHAR uni261C.salt
ENCODING 57678
SWIDTH 1100 0
DWIDTH 9 0
BBX 7 5 1 0
BITMAP
13223470
03340380
00142480
00033350
00011000
ENDCHAR
STARTCHAR uni261D.salt
ENCODING 57679
SWIDTH 1100 0
DWIDTH 9 0
BBX 5 7 2 -1
BITMAP
041000
032000
115310
213340
052510
377740
011100
ENDCHAR
STARTCHAR uni261E.salt
ENCODING 57680
SWIDTH 1100 0
DWIDTH 9 0
BBX 6 5 2 0
BITMAP
843223
831423
843300
633200
002000
ENDCHAR
STARTCHAR uni261F.salt
ENCODING 57681
SWIDTH 1100 0
DWIDTH 9 0
BBX 6 7 2 -1
BITMAP
048881
024340
132130
034520
000320
000230
000010
ENDCHAR
STARTCHAR indexdownleft.salt_outline
ENCODING 57682
SWIDTH 1100 0
DWIDTH 9 0
BBX 6 6 2 0
BITMAP
000300
001680
023258
123144
343530
300130
ENDCHAR
STARTCHAR indexdownright.salt_outline
ENCODING 57683
SWIDTH 1100 0
DWIDTH 9 0
BBX 7 6 1 0
BITMAP
00030000
00960000
09423200
14313210
00354330
00400030
ENDCHAR
STARTCHAR indexupleft.salt_outline
ENCODING 57684
SWIDTH 1100 0
DWIDTH 9 0
BBX 6 7 2 -1
BITMAP
331000
032200
033300
052153
333491
004910
001100
ENDCHAR
STARTCHAR indexupright.salt_outline
ENCODING 57685
SWIDTH 1100 0
DWIDTH 9 0
BBX 6 7 2 -1
BITMAP
000132
002230
012330
450240
293333
029300
001000
ENDCHAR
STARTCHAR block.v
ENCODING 57687
SWIDTH 1000 0
DWIDTH 8 0
BBX 10 10 -1 -2
BITMAP
1333333331
4FFFFFFFF4
4FFFFFFFF4
4FFFFFFFF4
4FFFFFFFF4
4FFFFFFFF4
4FFFFFFFF4
4FFFFFFFF4
4FFFFFFFF4
2777777772
ENDCHAR
STARTCHAR uni25D6.v
ENCODING 57688
SWIDTH 1335 0
DWIDTH 11 0
BBX 9 6 1 0
BITMAP
0002210000
02BEEE8100
2DFFFFFB00
9FFFFFFF40
DFFFFFFF80
6777777740
ENDCHAR
STARTCHAR uni25D7.v
ENCODING 57689
SWIDTH 1335 0
DWIDTH 11 0
BBX 9 6 1 0
BITMAP
3333333320
DFFFFFFF80
AFFFFFFF50
3EFFFFFD10
05DFFFB300
0014640000
ENDCHAR
STARTCHAR uni27A1.w
ENCODING 57690
SWIDTH 650 0
DWIDTH 5 0
BBX 6 12 0 -3
BITMAP
000291
000BE3
007FF7
04EFF8
2DFFF8
AFFFF8
BFFFF8
3EFFF8
06FFF8
009FF8
001CE4
0003C1
ENDCHAR
STARTCHAR uni27A1.n
ENCODING 57691
SWIDTH 1000 0
DWIDTH 8 0
BBX 12 6 -2 0
BITMAP
249999999942
BFFFFFFFFFFB
1AFFFFFFFFA2
007EFFFFE700
0004DFFD4000
000029920000
ENDCHAR
STARTCHAR uni27A1.s
ENCODING 57692
SWIDTH 1000 0
DWIDTH 8 0
BBX 12 6 -2 0
BITMAP
000006600000
0002BFFA2000
004DFFFFD400
07EFFFFFFE70
9FFFFFFFFFF9
57DDDDDDDD74
ENDCHAR
STARTCHAR uni2B24.salt
ENCODING 57693
SWIDTH 1280 0
DWIDTH 10 0
BBX 10 10 0 -2
BITMAP
0002453000
03BEFFFC40
2DFFFFFFE4
2EFFFFFFF5
2EFFFFFFF5
2EFFFFFFF5
2EFFFFFFF5
2EFFFFFFF5
05DFFFFE80
0015896200
ENDCHAR
STARTCHAR uni25DD.curve
ENCODING 57694
SWIDTH 1280 0
DWIDTH 10 0
BBX 10 10 0 -2
BITMAP
0222222000
2EEEEEEA20
2EFFFFFFC0
2EFFFFFFF3
2EFFFFFFF5
2EFFFFFFF5
2EFFFFFFF5
2EFFFFFFF5
2EFFFFFFF5
1555555552
ENDCHAR
STARTCHAR uni2B1B.trapezoid_e
ENCODING 57695
SWIDTH 1280 0
DWIDTH 10 0
BBX 11 10 0 -2
BITMAP
022222222200
2EEEEEEEED20
2EFFFFFFFD00
2EFFFFFFFA00
2EFFFFFFF700
2EFFFFFFF400
2EFFFFFFE200
2EFFFFFFD000
2EFFFFFFA000
155555553000
ENDCHAR
STARTCHAR uni2B1B.trapezoid_w
ENCODING 57696
SWIDTH 1280 0
DWIDTH 10 0
BBX 10 10 0 -2
BITMAP
2222222221
CEEEEEEEE6
9FFFFFFFF6
6FFFFFFFF6
3FFFFFFFF6
1EFFFFFFF6
0CFFFFFFF6
09FFFFFFF6
06FFFFFFF6
0255555552
ENDCHAR
STARTCHAR arrowleft.chevron
ENCODING 57697
SWIDTH 1330 0
DWIDTH 11 0
BBX 11 12 0 -3
BITMAP
000050000000
0004D3222210
002EFEEEEE50
01CFFFFFFE10
0AFFFFFFF900
7FFFFFFFF300
9FFFFFFFE200
1CFFFFFFF700
02DFFFFFFD00
004EFFFFFF40
0007E6555530
000070000000
ENDCHAR
STARTCHAR arrowup.chevron
ENCODING 57698
SWIDTH 1280 0
DWIDTH 10 0
BBX 12 12 -1 -3
BITMAP
000002300000
00003DE70000
0006EFFF9100
008FFFFFFC20
1AFFFFFFFFD4
37EFFFFFFF95
02EFFFFFFF60
02EFFFFFFF60
02EFFFFFFF60
02EFFFFFFF60
02EFC64AEF60
028300002740
ENDCHAR
STARTCHAR arrowright.chevron
ENCODING 57699
SWIDTH 1330 0
DWIDTH 11 0
BBX 11 12 0 -3
BITMAP
000002200000
222226C10000
AEEEEEFA0000
5FFFFFFF8000
1DFFFFFFF600
08FFFFFFFE30
06FFFFFFFF50
0CFFFFFFF800
4FFFFFFFA000
9FFFFFFC1000
555558E30000
000003400000
ENDCHAR
STARTCHAR arrowdown.chevron
ENCODING 57700
SWIDTH 1280 0
DWIDTH 10 0
BBX 12 12 -1 -3
BITMAP
014000000220
02ED7215BE60
02EFFEDFFF60
02EFFFFFFF60
02EFFFFFFF60
02EFFFFFFF60
14EFFFFFFF72
3CFFFFFFFFE7
02CFFFFFFE50
001AFFFFD300
00008FFB2000
000005810000
ENDCHAR
STARTCHAR uni25D6.deco
ENCODING 57701
SWIDTH 560 0
DWIDTH 4 0
BBX 5 11 0 -3
BITMAP
003B30
02DFB0
2DFFC0
6FFFC0
8FFFC0
8FFFC0
6FFFC0
2EFFC0
04EFC0
006D50
000200
ENDCHAR
STARTCHAR uni25D7.deco
ENCODING 57702
SWIDTH 560 0
DWIDTH 4 0
BBX 6 11 -1 -3
BITMAP
197100
4FF700
5FFF70
5FFFD0
5FFFE1
5FFFE1
5FFFD0
5FFF90
5FF910
2BA200
021000
ENDCHAR
STARTCHAR uni25D6.v_deco
ENCODING 57703
SWIDTH 1280 0
DWIDTH 10 0
BBX 11 5 0 0
BITMAP
0048AB950000
04EFFFFF6000
4FFFFFFFF800
BFFFFFFFFD20
289999999400
ENDCHAR
STARTCHAR uni25D7.v_deco
ENCODING 57704
SWIDTH 1280 0
DWIDTH 10 0
BBX 11 5 0 1
BITMAP
155555555200
AFFFFFFFFB20
7FFFFFFFFA10
06FFFFFF9100
007CEED81000
ENDCHAR
STARTCHAR uni25D6.bevel
ENCODING 57705
SWIDTH 350 0
DWIDTH 3 0
BBX 4 10 0 -2
BITMAP
0020
05D2
3DF2
5FF2
5FF2
5FF2
5FF2
4EF2
08E2
0041
ENDCHAR
STARTCHAR uni25D7.bevel
ENCODING 57706
SWIDTH 350 0
DWIDTH 3 0
BBX 4 10 -1 -2
BITMAP
1100
4C30
5FC1
5FF2
5FF2
5FF2
5FF2
5FD2
5D60
2300
ENDCHAR
STARTCHAR uni25D6.v_bevel
ENCODING 57707
SWIDTH 1280 0
DWIDTH 10 0
BBX 10 4 0 1
BITMAP
0012222200
03BEEEEC50
1BFFFFFFD3
1666666662
ENDCHAR
STARTCHAR uni25D7.v_bevel
ENCODING 57708
SWIDTH 1280 0
DWIDTH 10 0
BBX 10 4 0 1
BITMAP
0222222221
2DFFFFFFE4
05DFFFFE80
0035555400
ENDCHAR
STARTCHAR uni25D6.spike
ENCODING 57709
SWIDTH 350 0
DWIDTH 3 0
BBX 4 10 0 -2
BITMAP
1320
1DF2
08F2
07F2
4EF2
6FF2
09F2
07F2
0CF2
2761
ENDCHAR
STARTCHAR uni25D7.spike
ENCODING 57710
SWIDTH 350 0
DWIDTH 3 0
BBX 4 10 -1 -2
BITMAP
1240
4FB0
5F50
5F40
5FD2
5FE3
5F60
5F40
5F90
2670
ENDCHAR
STARTCHAR uni25D6.v_spike
ENCODING 57711
SWIDTH 1280 0
DWIDTH 10 0
BBX 10 4 0 1
BITMAP
0000110000
3822BD3166
3FEEFFEEF6
1888888883
ENDCHAR
STARTCHAR uni25D7.v_spike
ENCODING 57712
SWIDTH 1280 0
DWIDTH 10 0
BBX 10 4 0 1
BITMAP
1444444442
2FFFFFFFF6
4B54DE64A7
0000240000
ENDCHAR
STARTCHAR uni25D6.square
ENCODING 57713
SWIDTH 350 0
DWIDTH 3 0
BBX 4 10 0 -2
BITMAP
0220
2EE2
2EF2
2EF2
2EF2
2EF2
2EF2
2EF2
2EF2
1551
ENDCHAR
STARTCHAR uni25D7.square
ENCODING 57714
SWIDTH 350 0
DWIDTH 3 0
BBX 3 10 -1 -2
BITMAP
1220
4ED0
5FE0
5FE0
5FE0
5FE0
5FE0
5FE0
5FE0
2550
ENDCHAR
STARTCHAR uni25D6.v_square
ENCODING 57715
SWIDTH 1280 0
DWIDTH 10 0
BBX 10 4 0 1
BITMAP
0111111110
2DEEEEEEE5
2EFFFFFFF5
1444444441
ENDCHAR
STARTCHAR uni25D7.v_square
ENCODING 57716
SWIDTH 1280 0
DWIDTH 10 0
BBX 10 4 0 1
BITMAP
0111111110
2EFFFFFFF5
2EFFFFFFF5
0333333331
ENDCHAR
STARTCHAR uni25D6.rounded
ENCODING 57717
SWIDTH 350 0
DWIDTH 3 0
BBX 4 10 0 -2
BITMAP
0020
09E2
2EF2
4FF2
5FF2
5FF2
4FF2
3FF2
0BF2
0151
ENDCHAR
STARTCHAR uni25D7.rounded
ENCODING 57718
SWIDTH 350 0
DWIDTH 3 0
BBX 4 10 -1 -2
BITMAP
1200
4E70
5FD0
5FE2
5FF2
5FF2
5FE2
5FD1
5F80
2410
ENDCHAR
STARTCHAR uni25D6.v_rounded
ENCODING 57719
SWIDTH 1280 0
DWIDTH 10 0
BBX 10 4 0 1
BITMAP
0001221000
06CEEEED80
2EFFFFFFF4
1666666662
ENDCHAR
STARTCHAR uni25D7.v_rounded
ENCODING 57720
SWIDTH 1280 0
DWIDTH 10 0
BBX 10 4 0 1
BITMAP
0222222221
2EFFFFFFF5
09EFFFFEB1
0024554300
ENDCHAR
STARTCHAR uni21AB.arrow
ENCODING 57721
SWIDTH 1000 0
DWIDTH 8 0
BBX 11 16 -1 -8
BITMAP
122210000000
4EEEDA400000
4FFFFFE60000
4FFFFFFE2000
4FFFFFFF8000
4FFFFFFFB000
4FFFFFFFD000
4FFFFFFFE000
4FFFFFFFE000
17FFFFFFE000
4AFFFFFFE930
1AFFFFFFF800
019FFFFF8000
0009FFF70000
00008E600000
000002000000
ENDCHAR
STARTCHAR uni21AC.arrow
ENCODING 57722
SWIDTH 1000 0
DWIDTH 8 0
BBX 11 15 -1 -2
BITMAP
00005D300000
0006EFE40000
006FFFFE5000
07FFFFFFE500
5DFFFFFFEC30
15FFFFFFE000
4FFFFFFFE000
4FFFFFFFE000
4FFFFFFFD000
4FFFFFFFC000
4FFFFFFF9000
4FFFFFFF3000
4FFFFFF90000
4FFFFD700000
155531000000
ENDCHAR
STARTCHAR uni21AB.v_arrow
ENCODING 57723
SWIDTH 1335 0
DWIDTH 11 0
BBX 15 11 -5 -3
BITMAP
0000313333333320
0003D4DFFFFFFF90
003DFEFFFFFFFF90
02DFFFFFFFFFFF90
2DFFFFFFFFFFFF70
9FFFFFFFFFFFFF40
2DFFFFFFFFFFFB00
03DFFFFFFFFFB200
003EFEEEEDB61000
0004D31110000000
0000310000000000
ENDCHAR
STARTCHAR uni21AC.v_arrow
ENCODING 57724
SWIDTH 1335 0
DWIDTH 11 0
BBX 15 11 1 -3
BITMAP
3333333322100000
DFFFFFFFA7B10000
DFFFFFFFFEFB1000
DFFFFFFFFFFFA100
CFFFFFFFFFFFFA10
8FFFFFFFFFFFFF50
2EFFFFFFFFFFFA10
04EFFFFFFFFFA100
0028CEEEEEFB1000
0000001116C10000
0000000003200000
ENDCHAR
STARTCHAR uni25D6.wings
ENCODING 57725
SWIDTH 900 0
DWIDTH 7 0
BBX 8 12 0 -3
BITMAP
04AAA900
27FFFE51
BEFFFFF7
BFFFFFF8
BFFFFFF8
BFFFFFF8
BFFFFFF8
BFFFFFF8
BFFFFFF8
BFFFFFF8
48FFFF93
05DDDC00
ENDCHAR
STARTCHAR uni25D7.wings
ENCODING 57726
SWIDTH 900 0
DWIDTH 7 0
BBX 9 12 -1 -3
BITMAP
007AAA5000
13DFFF9200
4FFFFFFD10
5FFFFFFE10
5FFFFFFE10
5FFFFFFE10
5FFFFFFE10
5FFFFFFE10
5FFFFFFE10
5FFFFFFE10
27EFFFA500
00ADDD7000
ENDCHAR
STARTCHAR uni25D6.v_wings
ENCODING 57727
SWIDTH 1280 0
DWIDTH 10 0
BBX 12 8 -1 -1
BITMAP
017777777730
14EFFFFFFF72
9EFFFFFFFFEC
AFFFFFFFFFFD
AFFFFFFFFFFD
AFFFFFFFFFFD
28FFFFFFFFB3
02CCCCCCCC50
ENDCHAR
STARTCHAR uni25D7.v_wings
ENCODING 57728
SWIDTH 1280 0
DWIDTH 10 0
BBX 12 8 -1 -1
BITMAP
018888888830
06FFFFFFFF90
9FFFFFFFFFFC
AFFFFFFFFFFD
AFFFFFFFFFFD
AFFFFFFFFFFD
36EFFFFFFF84
02ABBBBBBB40
ENDCHAR
STARTCHAR uni2B1B.chevron_e
ENCODING 57729
SWIDTH 1280 0
DWIDTH 10 0
BBX 11 10 0 -2
BITMAP
222222221000
AEEEEEEEB000
5FFFFFFFE300
1DFFFFFFF800
08FFFFFFFD10
07FFFFFFFE10
0CFFFFFFFA00
4FFFFFFFF400
9FFFFFFFC000
555555553000
ENDCHAR
STARTCHAR uni2B1B.chevron_n
ENCODING 57730
SWIDTH 1280 0
DWIDTH 10 0
BBX 10 11 0 -3
BITMAP
0014AB6100
17DFFFFE92
2FFFFFFFF5
2FFFFFFFF5
2FFFFFFFF5
2FFFFFFFF5
2FFFFFFFF5
2FFFFFFFF5
2FFECAEFF5
2D930027C5
0100000001
ENDCHAR
STARTCHAR uni2B1B.chevron_s
ENCODING 57731
SWIDTH 1280 0
DWIDTH 10 0
BBX 10 11 0 -3
BITMAP
2B610014A5
2FFE97DFF5
2FFFFFFFF5
2FFFFFFFF5
2FFFFFFFF5
2FFFFFFFF5
2FFFFFFFF5
2FFFFFFFF5
1AEFFFFEC3
0027DD9300
0000110000
ENDCHAR
STARTCHAR uni2B1B.chevron_w
ENCODING 57732
SWIDTH 1280 0
DWIDTH 10 0
BBX 11 10 0 -2
BITMAP
012222222200
07EEEEEEED10
0DFFFFFFF900
4FFFFFFFF300
AFFFFFFFC000
BFFFFFFFA000
6FFFFFFFE200
1DFFFFFFF700
09FFFFFFFD00
025555555510
ENDCHAR
STARTCHAR uni2B1B.semichevron_e
ENCODING 57733
SWIDTH 650 0
DWIDTH 5 0
BBX 6 10 0 -2
BITMAP
222221
AEEEE8
5FFFF8
1DFFF8
08FFF8
07FFF8
0CFFF8
4FFFF8
9FFFF8
555553
ENDCHAR
STARTCHAR uni2B1B.semichevron_w
ENCODING 57734
SWIDTH 650 0
DWIDTH 5 0
BBX 7 10 -1 -2
BITMAP
12222200
4EEEED10
5FFFF800
5FFFF300
5FFFC000
5FFFA000
5FFFE200
5FFFF700
5FFFFC00
25555510
ENDCHAR
STARTCHAR uni2B1B.semichevron_n
ENCODING 57735
SWIDTH 1000 0
DWIDTH 8 0
BBX 10 6 -1 0
BITMAP
2510000152
4FD8338DF4
4FFFFFFFF4
4FFFFFFFF4
4FFFFFFFF4
3DDDDDDDD3
ENDCHAR
STARTCHAR uni2B1B.semichevron_s
ENCODING 57736
SWIDTH 1000 0
DWIDTH 8 0
BBX 10 6 -1 0
BITMAP
2AAAAAAAA2
4FFFFFFFF4
4FFFFFFFF4
4FFFFFFFF4
4FFC66CFF4
3930000393
ENDCHAR
STARTCHAR space.v
ENCODING 57737
SWIDTH 1000 0
DWIDTH 8 0
BBX 1 1 0 0
BITMAP
00
ENDCHAR
STARTCHAR Agrave.v
ENCODING 57738
SWIDTH 1000 0
DWIDTH 8 0
BBX 6 9 1 -1
BITMAP
011110
2C1111
3E9751
1A1111
561811
B31512
F32522
F22F21
EE5DE5
ENDCHAR
STARTCHAR Aacute.v
ENCODING 57739
SWIDTH 1000 0
DWIDTH 8 0
BBX 6 9 1 -1
BITMAP
001111
181111
4F5770
1B1111
561811
B31512
F32522
F22F21
EE5DE5
ENDCHAR
STARTCHAR Acircumflex.v
ENCODING 57740
SWIDTH 1000 0
DWIDTH 8 0
BBX 6 9 1 -1
BITMAP
001110
081211
4E7871
1B1111
561811
B31512
F32522
F22F21
EE5DE5
ENDCHAR
STARTCHAR Atilde.v
ENCODING 57741
SWIDTH 1000 0
DWIDTH 8 0
BBX 6 9 1 -1
BITMAP
001110
191111
4F7551
1B1111
561811
B31512
F32522
F22F21
EE5DE5
ENDCHAR
STARTCHAR Adieresis.v
ENCODING 57742
SWIDTH 1000 0
DWIDTH 8 0
BBX 6 9 1 -1
BITMAP
011211
390701
7E6761
2B1111
561811
B31512
F32522
F22F21
EE5DE5
ENDCHAR
STARTCHAR Aring.v
ENCODING 57743
SWIDTH 1000 0
DWIDTH 8 0
BBX 6 9 1 -1
BITMAP
001110
082511
5D2811
4B1111
661911
B32622
F21412
F22F22
EE4EE5
ENDCHAR
STARTCHAR Amacron.v
ENCODING 57744
SWIDTH 1000 0
DWIDTH 8 0
BBX 6 9 1 -1
BITMAP
001110
190111
4F6551
1B1111
561811
B31512
F32522
F22F21
EE5DE5
ENDCHAR
STARTCHAR Abreve.v
ENCODING 57745
SWIDTH 1000 0
DWIDTH 8 0
BBX 6 9 1 -1
BITMAP
021311
3D2321
3F7550
1A1111
561811
B31512
F32522
F22F21
EE5DE5
ENDCHAR
STARTCHAR Aogonek.v
ENCODING 57746
SWIDTH 1000 0
DWIDTH 8 0
BBX 6 9 1 -3
BITMAP
031211
2A1211
751B11
D32122
F31822
F64F23
992F12
002FD6
000120
ENDCHAR
STARTCHAR Ccedilla.v
ENCODING 57747
SWIDTH 1000 0
DWIDTH 8 0
BBX 6 8 1 -2
BITMAP
021222
822443
F22BA2
F22000
F32222
DC5134
2BB471
05A300
ENDCHAR
STARTCHAR Cacute.v
ENCODING 57748
SWIDTH 1000 0
DWIDTH 8 0
BBX 6 9 1 -1
BITMAP
001111
090112
3E6672
442111
E22DD4
F22110
F21111
E92111
6DEEE4
ENDCHAR
STARTCHAR Ccircumflex.v
ENCODING 57749
SWIDTH 1000 0
DWIDTH 8 0
BBX 6 9 1 -1
BITMAP
001110
081211
3E7862
442111
E22DD4
F22110
F21111
E92111
6DEEE4
ENDCHAR
STARTCHAR Cdotaccent.v
ENCODING 57750
SWIDTH 1000 0
DWIDTH 8 0
BBX 6 9 1 -1
BITMAP
001110
04A110
069531
432111
E22DD4
F22110
F21111
E92111
6DEEE4
ENDCHAR
STARTCHAR Ccaron.v
ENCODING 57751
SWIDTH 1000 0
DWIDTH 8 0
BBX 6 9 1 -1
BITMAP
031111
2E2111
2D9561
432111
E22DD4
F22110
F21111
E92111
6DEEE4
ENDCHAR
STARTCHAR Dcaron.v
ENCODING 57752
SWIDTH 1000 0
DWIDTH 8 0
BBX 7 9 1 -1
BITMAP
03111100
3D111100
4A855100
C2211200
F22D2210
F22D2210
F2261200
F2112200
EEED7000
ENDCHAR
STARTCHAR Egrave.v
ENCODING 57753
SWIDTH 1000 0
DWIDTH 8 0
BBX 6 9 1 -1
BITMAP
011110
2C1111
4A8752
C22111
F22885
F22321
F22861
F21111
EEEEE4
ENDCHAR
STARTCHAR Eacute.v
ENCODING 57754
SWIDTH 1000 0
DWIDTH 8 0
BBX 6 9 1 -1
BITMAP
001111
181111
495771
C22111
F22885
F22321
F22861
F21111
EEEEE4
ENDCHAR
STARTCHAR Ecircumflex.v
ENCODING 57755
SWIDTH 1000 0
DWIDTH 8 0
BBX 6 9 1 -1
BITMAP
001110
081211
496862
C22111
F22885
F22321
F22861
F21111
EEEEE4
ENDCHAR
STARTCHAR Edieresis.v
ENCODING 57756
SWIDTH 1000 0
DWIDTH 8 0
BBX 6 9 1 -1
BITMAP
011211
390701
795753
C22111
F22885
F22321
F22861
F21111
EEEEE4
ENDCHAR
STARTCHAR Emacron.v
ENCODING 57757
SWIDTH 1000 0
DWIDTH 8 0
BBX 6 9 1 -1
BITMAP
001110
190111
495552
C22111
F22885
F22321
F22861
F21111
EEEEE4
ENDCHAR
STARTCHAR Ebreve.v
ENCODING 57758
SWIDTH 1000 0
DWIDTH 8 0
BBX 6 9 1 -1
BITMAP
021311
3D2321
4A7541
C22111
F22885
F22321
F22861
F21111
EEEEE4
ENDCHAR
STARTCHAR Edotaccent.v
ENCODING 57759
SWIDTH 1000 0
DWIDTH 8 0
BBX 6 9 1 -1
BITMAP
002110
049110
167531
C22111
F22885
F22321
F22861
F21111
EEEEE4
ENDCHAR
STARTCHAR Eogonek.v
ENCODING 57760
SWIDTH 1000 0
DWIDTH 8 0
BBX 6 9 1 -3
BITMAP
422222
E22554
F22542
F21651
F22442
F65413
99BE12
003FD5
000110
ENDCHAR
STARTCHAR Ecaron.v
ENCODING 57761
SWIDTH 1000 0
DWIDTH 8 0
BBX 6 9 1 -1
BITMAP
031111
3D1111
3A8551
C22111
F22885
F22321
F22861
F21111
EEEEE4
ENDCHAR
STARTCHAR Gcircumflex.v
ENCODING 57762
SWIDTH 1000 0
DWIDTH 8 0
BBX 6 9 1 -1
BITMAP
001110
081211
4E7862
542111
E22DA1
F22632
F21712
E82112
5DEEE5
ENDCHAR
STARTCHAR Gbreve.v
ENCODING 57763
SWIDTH 1000 0
DWIDTH 8 0
BBX 6 9 1 -1
BITMAP
021311
3D2321
3E8541
432111
E22DA1
F22632
F21712
E82112
5DEEE5
ENDCHAR
STARTCHAR Gdotaccent.v
ENCODING 57764
SWIDTH 1000 0
DWIDTH 8 0
BBX 6 9 1 -1
BITMAP
002110
049110
078531
432111
E22DA1
F22632
F21712
E82112
5DEEE5
ENDCHAR
STARTCHAR Gcommaaccent.v
ENCODING 57765
SWIDTH 1000 0
DWIDTH 8 0
BBX 6 10 1 -4
BITMAP
021211
822442
F22B91
F22A22
F32422
CC6554
29A262
08C420
06E710
014000
ENDCHAR
STARTCHAR Hcircumflex.v
ENCODING 57766
SWIDTH 1000 0
DWIDTH 8 0
BBX 6 9 1 -1
BITMAP
001110
081211
497F72
C22D22
F22612
F22122
F22E22
F21F22
EE5EE5
ENDCHAR
STARTCHAR Igrave.v
ENCODING 57767
SWIDTH 1000 0
DWIDTH 8 0
BBX 6 9 1 -1
BITMAP
011110
2C1111
4A8752
B31211
EE7164
198110
164111
C31111
DEEEE4
ENDCHAR
STARTCHAR Iacute.v
ENCODING 57768
SWIDTH 1000 0
DWIDTH 8 0
BBX 6 9 1 -1
BITMAP
001111
181111
495771
B31211
EE7164
198110
164111
C31111
DEEEE4
ENDCHAR
STARTCHAR Icircumflex.v
ENCODING 57769
SWIDTH 1000 0
DWIDTH 8 0
BBX 6 9 1 -1
BITMAP
001110
081211
496862
B31211
EE7164
198110
164111
C31111
DEEEE4
ENDCHAR
STARTCHAR Idieresis.v
ENCODING 57770
SWIDTH 1000 0
DWIDTH 8 0
BBX 6 9 1 -1
BITMAP
011211
390701
795753
B31211
EE7164
198110
164111
C31111
DEEEE4
ENDCHAR
STARTCHAR Itilde.v
ENCODING 57771
SWIDTH 1000 0
DWIDTH 8 0
BBX 6 9 1 -1
BITMAP
001110
191111
4A6542
B31211
EE7164
198110
164111
C31111
DEEEE4
ENDCHAR
STARTCHAR Imacron.v
ENCODING 57772
SWIDTH 1000 0
DWIDTH 8 0
BBX 6 9 1 -1
BITMAP
001110
190111
4A5552
B31211
EE7164
198110
164111
C31111
DEEEE4
ENDCHAR
STARTCHAR Ibreve.v
ENCODING 57773
SWIDTH 1000 0
DWIDTH 8 0
BBX 6 9 1 -1
BITMAP
021311
3D2321
4A7541
B31211
EE7164
198110
164111
C31111
DEEEE4
ENDCHAR
STARTCHAR Iogonek.v
ENCODING 57774
SWIDTH 1000 0
DWIDTH 8 0
BBX 6 9 1 -3
BITMAP
332222
D62223
AD8152
088110
442222
E75413
89BE12
003FD5
000110
ENDCHAR
STARTCHAR Idotaccent.v
ENCODING 57775
SWIDTH 1000 0
DWIDTH 8 0
BBX 6 9 1 -1
BITMAP
002110
049110
167531
B31211
EE7164
198110
164111
C31111
DEEEE4
ENDCHAR
STARTCHAR Jcircumflex.v
ENCODING 57776
SWIDTH 1000 0
DWIDTH 8 0
BBX 6 10 1 -2
BITMAP
000111
026121
08DD95
021D22
012F22
822F22
F22811
E81112
6EFD70
001000
ENDCHAR
STARTCHAR Kcommaaccent.v
ENCODING 57777
SWIDTH 1000 0
DWIDTH 8 0
BBX 6 10 1 -4
BITMAP
422312
E22711
F22212
F22421
F22F22
F64F64
9A8262
08C420
06E710
014000
ENDCHAR
STARTCHAR Lacute.v
ENCODING 57778
SWIDTH 1000 0
DWIDTH 8 0
BBX 6 9 1 -1
BITMAP
011110
721110
F67A10
E22000
F22011
F22632
F22712
F21112
EEEEE5
ENDCHAR
STARTCHAR Lcommaaccent.v
ENCODING 57779
SWIDTH 1000 0
DWIDTH 8 0
BBX 6 10 1 -4
BITMAP
422000
E22000
F22021
F22B32
F22422
F65554
9BA262
08C420
06E710
014000
ENDCHAR
STARTCHAR Lcaron.v
ENCODING 57780
SWIDTH 1000 0
DWIDTH 8 0
BBX 7 7 1 -1
BITMAP
42224110
E22B3200
F22E9400
F22C3200
F2271200
F2111200
EEEEE500
ENDCHAR
STARTCHAR Ntilde.v
ENCODING 57781
SWIDTH 1000 0
DWIDTH 8 0
BBX 6 9 1 -1
BITMAP
001110
191111
498C62
C22A22
F21112
F22212
F22C12
F22F32
EE5DE5
ENDCHAR
STARTCHAR Nacute.v
ENCODING 57782
SWIDTH 1000 0
DWIDTH 8 0
BBX 6 9 1 -1
BITMAP
001111
181111
497D82
C22822
F21112
F22212
F22C12
F22F32
EE5DE5
ENDCHAR
STARTCHAR Ncommaaccent.v
ENCODING 57783
SWIDTH 1000 0
DWIDTH 8 0
BBX 6 10 1 -4
BITMAP
421432
E22522
F21202
F22412
F22E22
F64F74
9A8262
08C420
06E710
014000
ENDCHAR
STARTCHAR Ncaron.v
ENCODING 57784
SWIDTH 1000 0
DWIDTH 8 0
BBX 6 9 1 -1
BITMAP
031111
3D1111
4AAB62
C22822
F21112
F22212
F22C12
F22F32
EE5DE5
ENDCHAR
STARTCHAR Ograve.v
ENCODING 57785
SWIDTH 1000 0
DWIDTH 8 0
BBX 6 10 1 -2
BITMAP
011110
2C1111
3D8542
532121
E22F22
F22D22
F22712
E81112
6EFD80
001000
ENDCHAR
STARTCHAR Oacute.v
ENCODING 57786
SWIDTH 1000 0
DWIDTH 8 0
BBX 6 10 1 -2
BITMAP
001111
181111
4D5561
532122
E22F22
F22D22
F22712
E81112
6EFD80
001000
ENDCHAR
STARTCHAR Ocircumflex.v
ENCODING 57787
SWIDTH 1000 0
DWIDTH 8 0
BBX 6 10 1 -2
BITMAP
001110
081211
4D6762
532121
E22F22
F22D22
F22712
E81112
6EFD80
001000
ENDCHAR
STARTCHAR Otilde.v
ENCODING 57788
SWIDTH 1000 0
DWIDTH 8 0
BBX 6 10 1 -2
BITMAP
001110
191111
4D6442
532122
E22F22
F22D22
F22712
E81112
6EFD80
001000
ENDCHAR
STARTCHAR Odieresis.v
ENCODING 57789
SWIDTH 1000 0
DWIDTH 8 0
BBX 6 10 1 -2
BITMAP
011211
390701
7D5552
632121
E22F22
F22D22
F22712
E81112
6EFD80
001000
ENDCHAR
STARTCHAR Omacron.v
ENCODING 57790
SWIDTH 1000 0
DWIDTH 8 0
BBX 6 10 1 -2
BITMAP
001110
190111
4D5342
532121
E22F22
F22D22
F22712
E81112
6EFD80
001000
ENDCHAR
STARTCHAR Obreve.v
ENCODING 57791
SWIDTH 1000 0
DWIDTH 8 0
BBX 6 10 1 -2
BITMAP
021311
3D2321
3D7341
532121
E22F22
F22D22
F22712
E81112
6EFD80
001000
ENDCHAR
STARTCHAR Ohungarumlaut.v
ENCODING 57792
SWIDTH 1000 0
DWIDTH 8 0
BBX 6 11 1 -2
BITMAP
001010
053532
0D1A11
4D5642
532121
E22F22
F22D22
F22712
E81112
6EFD80
001000
ENDCHAR
STARTCHAR Racute.v
ENCODING 57793
SWIDTH 1000 0
DWIDTH 8 0
BBX 7 9 1 -1
BITMAP
00111000
18111100
68576100
C2211100
F22A1100
F2212100
F2291110
F22E3110
EE5DE600
ENDCHAR
STARTCHAR Rcommaaccent.v
ENCODING 57794
SWIDTH 1000 0
DWIDTH 8 0
BBX 7 10 1 -4
BITMAP
42221100
E2242100
F2271200
F2212100
F22E2110
F64E7410
9A827200
08C42000
06E71000
01400000
ENDCHAR
STARTCHAR Rcaron.v
ENCODING 57795
SWIDTH 1000 0
DWIDTH 8 0
BBX 7 9 1 -1
BITMAP
03111100
3D111100
4A855100
C2211100
F22A1100
F2212100
F2291110
F22E3110
EE5DE600
ENDCHAR
STARTCHAR Sacute.v
ENCODING 57796
SWIDTH 1000 0
DWIDTH 8 0
BBX 6 9 1 -1
BITMAP
001111
181111
4D5771
542111
E21784
E71121
9A8712
C21122
EEEE80
ENDCHAR
STARTCHAR Scircumflex.v
ENCODING 57797
SWIDTH 1000 0
DWIDTH 8 0
BBX 6 9 1 -1
BITMAP
001110
081211
4D7862
542111
E21784
E71121
9A8712
C21122
EEEE80
ENDCHAR
STARTCHAR Scedilla.v
ENCODING 57798
SWIDTH 1000 0
DWIDTH 8 0
BBX 6 8 1 -2
BITMAP
021222
832553
E22332
EB5422
865522
E62152
9D8440
089100
ENDCHAR
STARTCHAR Scaron.v
ENCODING 57799
SWIDTH 1000 0
DWIDTH 8 0
BBX 6 9 1 -1
BITMAP
031111
3D1111
3D8551
432111
E21784
E71121
9A8712
C21122
EEEE80
ENDCHAR
STARTCHAR Scommaaccent.v
ENCODING 57800
SWIDTH 1000 0
DWIDTH 8 0
BBX 6 10 1 -4
BITMAP
021222
832553
E22332
EB5422
865522
E65552
9BA230
08C420
06E710
014000
ENDCHAR
STARTCHAR Tcommaaccent.v
ENCODING 57801
SWIDTH 1000 0
DWIDTH 8 0
BBX 6 9 1 -3
BITMAP
432222
E53224
AD8163
088110
089010
08B520
07B320
06D710
037100
ENDCHAR
STARTCHAR Tcaron.v
ENCODING 57802
SWIDTH 1000 0
DWIDTH 8 0
BBX 6 9 1 -1
BITMAP
031111
3D1111
4A8551
C21211
FE8175
198110
088110
089010
07EB10
ENDCHAR
STARTCHAR Ugrave.v
ENCODING 57803
SWIDTH 1000 0
DWIDTH 8 0
BBX 6 10 1 -2
BITMAP
011110
2C1111
4A9D62
C22E22
F22F22
F22F22
F21812
E81112
6EFD70
001000
ENDCHAR
STARTCHAR Uacute.v
ENCODING 57804
SWIDTH 1000 0
DWIDTH 8 0
BBX 6 10 1 -2
BITMAP
001111
091111
2A5D82
C22D22
F22F22
F22F22
F21812
E81112
6EFD70
001000
ENDCHAR
STARTCHAR Ucircumflex.v
ENCODING 57805
SWIDTH 1000 0
DWIDTH 8 0
BBX 6 10 1 -2
BITMAP
001110
081211
497F72
C22D22
F22F22
F22F22
F21812
E81112
6EFD70
001000
ENDCHAR
STARTCHAR Udieresis.v
ENCODING 57806
SWIDTH 1000 0
DWIDTH 8 0
BBX 6 10 1 -2
BITMAP
011211
390701
796E63
C22E22
F22F22
F22F22
F21812
E81112
6EFD70
001000
ENDCHAR
STARTCHAR Utilde.v
ENCODING 57807
SWIDTH 1000 0
DWIDTH 8 0
BBX 6 10 1 -2
BITMAP
001110
191111
496C52
C22E22
F22F22
F22F22
F21812
E81112
6EFD70
001000
ENDCHAR
STARTCHAR Umacron.v
ENCODING 57808
SWIDTH 1000 0
DWIDTH 8 0
BBX 6 10 1 -2
BITMAP
001110
190111
496C62
C22E22
F22F22
F22F22
F21812
E81112
6EFD70
001000
ENDCHAR
STARTCHAR Ubreve.v
ENCODING 57809
SWIDTH 1000 0
DWIDTH 8 0
BBX 6 10 1 -2
BITMAP
021311
3D2321
4A7B51
C22E22
F22F22
F22F22
F21812
E81112
6EFD70
001000
ENDCHAR
STARTCHAR Uring.v
ENCODING 57810
SWIDTH 1000 0
DWIDTH 8 0
BBX 6 11 1 -2
BITMAP
012221
2B2911
5D2311
4A7B61
C22E22
F22F22
F22F22
F21812
E81112
6EFD70
001000
ENDCHAR
STARTCHAR Uhungarumlaut.v
ENCODING 57811
SWIDTH 1000 0
DWIDTH 8 0
BBX 6 11 1 -2
BITMAP
001000
053542
0D1A11
396E62
C22E22
F22F22
F22F22
F21812
E81112
6EFD70
001000
ENDCHAR
STARTCHAR Uogonek.v
ENCODING 57812
SWIDTH 1000 0
DWIDTH 8 0
BBX 6 9 1 -3
BITMAP
422422
E22F22
F22F22
F22F22
F32421
DB4242
3BB120
06FC30
002100
ENDCHAR
STARTCHAR Wcircumflex.v
ENCODING 57813
SWIDTH 1000 0
DWIDTH 8 0
BBX 8 9 0 -1
BITMAP
00011100
00812110
0488FA21
1D118711
2E132411
2F102011
2F214121
0E61D220
0AE7EC20
ENDCHAR
STARTCHAR Wgrave.v
ENCODING 57814
SWIDTH 1000 0
DWIDTH 8 0
BBX 8 9 0 -1
BITMAP
00111100
02C11110
049AD821
1D129711
2E132411
2F102011
2F214121
0E61D220
0AE7EC20
ENDCHAR
STARTCHAR Wacute.v
ENCODING 57815
SWIDTH 1000 0
DWIDTH 8 0
BBX 8 9 0 -1
BITMAP
00011110
00901120
0387CA11
1D117711
2E132411
2F102011
2F214121
0E61D220
0AE7EC20
ENDCHAR
STARTCHAR Wdieresis.v
ENCODING 57816
SWIDTH 1000 0
DWIDTH 8 0
BBX 8 9 0 -1
BITMAP
00111110
03A06010
0687E831
1D129711
2E132411
2F102011
2F214121
0E61D220
0AE7EC20
ENDCHAR
STARTCHAR Yacute.v
ENCODING 57817
SWIDTH 1000 0
DWIDTH 8 0
BBX 6 9 1 -1
BITMAP
001111
091111
296D92
D22C22
F31B12
EA1111
5F6110
0A9010
07EB10
ENDCHAR
STARTCHAR Ycircumflex.v
ENCODING 57818
SWIDTH 1000 0
DWIDTH 8 0
BBX 6 9 1 -1
BITMAP
001110
081211
497F72
D22C22
F31B12
EA1111
5F6110
0A9010
07EB10
ENDCHAR
STARTCHAR Ydieresis.v
ENCODING 57819
SWIDTH 1000 0
DWIDTH 8 0
BBX 6 9 1 -1
BITMAP
011211
390701
696E63
D22D22
F31B12
EA1111
5F6110
0A9010
07EB10
ENDCHAR
STARTCHAR Ygrave.v
ENCODING 57820
SWIDTH 1000 0
DWIDTH 8 0
BBX 6 9 1 -1
BITMAP
011110
2C1111
499D62
D22D22
F31B12
EA1111
5F6110
0A9010
07EB10
ENDCHAR
STARTCHAR Zacute.v
ENCODING 57821
SWIDTH 1000 0
DWIDTH 8 0
BBX 6 9 1 -1
BITMAP
001111
091111
2A5672
B31112
EEC321
122120
431112
E21112
EEEEE5
ENDCHAR
STARTCHAR Zdotaccent.v
ENCODING 57822
SWIDTH 1000 0
DWIDTH 8 0
BBX 6 9 1 -1
BITMAP
002110
049110
167531
B31112
EEC321
122120
431112
E21112
EEEEE5
ENDCHAR
STARTCHAR Zcaron.v
ENCODING 57823
SWIDTH 1000 0
DWIDTH 8 0
BBX 6 9 1 -1
BITMAP
031111
2D2111
3A8551
B31112
EEC321
122120
431112
E21112
EEEEE5
ENDCHAR
STARTCHAR AE.v
ENCODING 57824
SWIDTH 1000 0
DWIDTH 8 0
BBX 8 7 0 -1
BITMAP
00312211
04721241
0A334241
1D222331
3D132240
4D084111
3EBCEE60
ENDCHAR
STARTCHAR Eth.v
ENCODING 57825
SWIDTH 1000 0
DWIDTH 8 0
BBX 7 7 0 -1
BITMAP
04222110
0E224210
0C12B220
5B128220
5F227220
0F211220
0EEED700
ENDCHAR
STARTCHAR Oslash.v
ENCODING 57826
SWIDTH 1000 0
DWIDTH 8 0
BBX 6 9 1 -2
BITMAP
000021
022311
832322
F24502
F22342
F22522
F72112
AB8D70
571000
ENDCHAR
STARTCHAR Thorn.v
ENCODING 57827
SWIDTH 1000 0
DWIDTH 8 0
BBX 6 7 1 -1
BITMAP
422000
E22222
F22622
F22B22
F22112
F21D81
EE6100
ENDCHAR
STARTCHAR Dcroat.v
ENCODING 57828
SWIDTH 1000 0
DWIDTH 8 0
BBX 7 7 0 -1
BITMAP
04222110
0E224210
0C12B220
5B128220
5F227220
0F211220
0EEED700
ENDCHAR
STARTCHAR Hbar.v
ENCODING 57829
SWIDTH 1000 0
DWIDTH 8 0
BBX 8 7 0 -1
BITMAP
04224220
0C125221
5D116111
3F214120
0F224120
0F22F220
0EE5EE50
ENDCHAR
STARTCHAR IJ.v
ENCODING 57830
SWIDTH 1000 0
DWIDTH 8 0
BBX 6 7 1 -1
BITMAP
422422
E22F22
F22F22
FB6F22
661611
D21122
EEEE70
ENDCHAR
STARTCHAR Ldot.v
ENCODING 57831
SWIDTH 1000 0
DWIDTH 8 0
BBX 6 9 1 -3
BITMAP
422000
E22000
F22021
F22B32
F22422
F65554
9AC362
05C420
04B800
ENDCHAR
STARTCHAR Lslash.v
ENCODING 57832
SWIDTH 1000 0
DWIDTH 8 0
BBX 7 7 0 -1
BITMAP
04220000
0E222000
0E121110
3E12A320
2F227120
0F211120
0EEEEE50
ENDCHAR
STARTCHAR Eng.v
ENCODING 57833
SWIDTH 1000 0
DWIDTH 8 0
BBX 6 8 1 -2
BITMAP
012321
632211
E22F22
F22F22
F22F22
F22721
EEE852
008930
ENDCHAR
STARTCHAR OE.v
ENCODING 57834
SWIDTH 1000 0
DWIDTH 8 0
BBX 8 7 0 -1
BITMAP
00212211
09122241
2E165141
2E165231
2F133151
1F721101
07DEEE70
ENDCHAR
STARTCHAR Tbar.v
ENCODING 57835
SWIDTH 1000 0
DWIDTH 8 0
BBX 6 7 1 -1
BITMAP
631112
F95156
7A5141
4A1211
6E7141
1A9010
08FB10
ENDCHAR
STARTCHAR Germandbls.v
ENCODING 57836
SWIDTH 1000 0
DWIDTH 8 0
BBX 7 7 1 -1
BITMAP
42221100
E2231100
F2281200
F2292110
F22B2110
F2252200
EEDE9100
ENDCHAR
STARTCHAR A.salt_v
ENCODING 57837
SWIDTH 1000 0
DWIDTH 8 0
BBX 6 7 1 -1
BITMAP
022221
832521
E32F22
F32212
F32712
F22F22
EE4DE5
ENDCHAR
STARTCHAR Agrave.salt_v
ENCODING 57838
SWIDTH 1000 0
DWIDTH 8 0
BBX 6 9 1 -1
BITMAP
011110
2C1111
3D8542
432121
E22F22
F22422
F21512
F22F22
EE4DE5
ENDCHAR
STARTCHAR Aacute.salt_v
ENCODING 57839
SWIDTH 1000 0
DWIDTH 8 0
BBX 6 9 1 -1
BITMAP
001111
181111
4D4561
542122
E22F22
F22422
F21512
F22F22
EE4DE5
ENDCHAR
STARTCHAR Acircumflex.salt_v
ENCODING 57840
SWIDTH 1000 0
DWIDTH 8 0
BBX 6 9 1 -1
BITMAP
001110
081211
4D6762
542121
E22F22
F22422
F21512
F22F22
EE4DE5
ENDCHAR
STARTCHAR Atilde.salt_v
ENCODING 57841
SWIDTH 1000 0
DWIDTH 8 0
BBX 6 9 1 -1
BITMAP
001110
191111
4D5442
542121
E22F22
F22422
F21512
F22F22
EE4DE5
ENDCHAR
STARTCHAR Adieresis.salt_v
ENCODING 57842
SWIDTH 1000 0
DWIDTH 8 0
BBX 6 9 1 -1
BITMAP
011211
390701
7D5552
542121
E22F22
F22422
F21512
F22F22
EE4DE5
ENDCHAR
STARTCHAR Aring.salt_v
ENCODING 57843
SWIDTH 1000 0
DWIDTH 8 0
BBX 6 9 1 -1
BITMAP
001110
182611
5B2812
742221
E22F22
F32422
F31512
F22F22
EE5EE5
ENDCHAR
STARTCHAR Amacron.salt_v
ENCODING 57844
SWIDTH 1000 0
DWIDTH 8 0
BBX 6 9 1 -1
BITMAP
001110
190111
4D5342
542121
E22F22
F22422
F21512
F22F22
EE4DE5
ENDCHAR
STARTCHAR Abreve.salt_v
ENCODING 57845
SWIDTH 1000 0
DWIDTH 8 0
BBX 6 9 1 -1
BITMAP
021311
3D2321
3D6341
432122
E22F22
F22422
F21512
F22F22
EE4DE5
ENDCHAR
STARTCHAR Aogonek.salt_v
ENCODING 57846
SWIDTH 1000 0
DWIDTH 8 0
BBX 6 9 1 -3
BITMAP
011111
432121
E23F22
F22422
F21512
F22F32
EE5F13
002F95
000661
ENDCHAR
STARTCHAR E.salt_v
ENCODING 57847
SWIDTH 1000 0
DWIDTH 8 0
BBX 6 7 1 -1
BITMAP
021222
822444
F21663
F22441
F22751
E92111
5DEEE4
ENDCHAR
STARTCHAR Egrave.salt_v
ENCODING 57848
SWIDTH 1000 0
DWIDTH 8 0
BBX 6 9 1 -1
BITMAP
011110
2C1111
3E9752
432111
E22885
F22321
F22761
E92111
6DEEE4
ENDCHAR
STARTCHAR Eacute.salt_v
ENCODING 57849
SWIDTH 1000 0
DWIDTH 8 0
BBX 6 9 1 -1
BITMAP
001111
181111
4E6771
442111
E22885
F22321
F22761
E92111
6DEEE4
ENDCHAR
STARTCHAR Ecircumflex.salt_v
ENCODING 57850
SWIDTH 1000 0
DWIDTH 8 0
BBX 6 9 1 -1
BITMAP
001110
081211
4E7862
542111
E22885
F22321
F22761
E92111
6DEEE4
ENDCHAR
STARTCHAR Edieresis.salt_v
ENCODING 57851
SWIDTH 1000 0
DWIDTH 8 0
BBX 6 9 1 -1
BITMAP
011211
390701
7D6753
542111
E22885
F22321
F22761
E92111
6DEEE4
ENDCHAR
STARTCHAR Emacron.salt_v
ENCODING 57852
SWIDTH 1000 0
DWIDTH 8 0
BBX 6 9 1 -1
BITMAP
001110
190111
4E6552
442111
E22885
F22321
F22761
E92111
6DEEE4
ENDCHAR
STARTCHAR Ebreve.salt_v
ENCODING 57853
SWIDTH 1000 0
DWIDTH 8 0
BBX 6 9 1 -1
BITMAP
021311
3D2321
3E8541
432111
E22885
F22321
F22761
E92111
6DEEE4
ENDCHAR
STARTCHAR Edotaccent.salt_v
ENCODING 57854
SWIDTH 1000 0
DWIDTH 8 0
BBX 6 9 1 -1
BITMAP
002110
049110
078531
432111
E22885
F22321
F22761
E92111
6DEEE4
ENDCHAR
STARTCHAR Eogonek.salt_v
ENCODING 57855
SWIDTH 1000 0
DWIDTH 8 0
BBX 6 9 1 -3
BITMAP
021222
822554
F22542
F22651
F32442
DC6413
28BE12
003FD5
000110
ENDCHAR
STARTCHAR Ecaron.salt_v
ENCODING 57856
SWIDTH 1000 0
DWIDTH 8 0
BBX 6 9 1 -1
BITMAP
031111
3D1111
3D9551
432111
E22885
F22321
F22761
E92111
6DEEE4
ENDCHAR
STARTCHAR I.salt_v
ENCODING 57857
SWIDTH 1000 0
DWIDTH 8 0
BBX 4 7 2 -1
BITMAP
0511
7911
8911
8911
8911
8901
7EB1
ENDCHAR
STARTCHAR I_I.salt_v
ENCODING 57858
SWIDTH 1000 0
DWIDTH 8 0
BBX 6 7 1 -1
BITMAP
422422
E22F22
F22F22
F22F22
F22F22
F21F22
EE5EE5
ENDCHAR
STARTCHAR Igrave.salt_v
ENCODING 57859
SWIDTH 1000 0
DWIDTH 8 0
BBX 6 9 1 -1
BITMAP
011110
2C1111
3EC761
059110
089110
089110
089110
089010
07EB10
ENDCHAR
STARTCHAR Iacute.salt_v
ENCODING 57860
SWIDTH 1000 0
DWIDTH 8 0
BBX 6 9 1 -1
BITMAP
001111
181111
4F9770
189110
089110
089110
089110
089010
07EB10
ENDCHAR
STARTCHAR Icircumflex.salt_v
ENCODING 57861
SWIDTH 1000 0
DWIDTH 8 0
BBX 6 9 1 -1
BITMAP
001110
081211
4EA881
179110
089110
089110
089110
089010
07EB10
ENDCHAR
STARTCHAR Idieresis.salt_v
ENCODING 57862
SWIDTH 1000 0
DWIDTH 8 0
BBX 6 9 1 -1
BITMAP
011211
390701
7E9771
189110
089110
089110
089110
089010
07EB10
ENDCHAR
STARTCHAR Itilde.salt_v
ENCODING 57863
SWIDTH 1000 0
DWIDTH 8 0
BBX 6 9 1 -1
BITMAP
001110
191111
4FA550
179110
089110
089110
089110
089010
07EB10
ENDCHAR
STARTCHAR Imacron.salt_v
ENCODING 57864
SWIDTH 1000 0
DWIDTH 8 0
BBX 6 9 1 -1
BITMAP
001110
190111
4F9561
089110
089110
089110
089110
089010
07EB10
ENDCHAR
STARTCHAR Ibreve.salt_v
ENCODING 57865
SWIDTH 1000 0
DWIDTH 8 0
BBX 6 9 1 -1
BITMAP
021311
3D2321
3FB540
079110
089110
089110
089110
089010
07EB10
ENDCHAR
STARTCHAR Iogonek.salt_v
ENCODING 57866
SWIDTH 1000 0
DWIDTH 8 0
BBX 4 9 2 -3
BITMAP
0211
5A11
7A11
7A11
7A11
7A11
7823
9D82
2640
ENDCHAR
STARTCHAR Idotaccent.salt_v
ENCODING 57867
SWIDTH 1000 0
DWIDTH 8 0
BBX 4 9 2 -1
BITMAP
0211
4911
7C52
6911
8911
8911
8911
8901
7EB1
ENDCHAR
STARTCHAR L.salt_v
ENCODING 57868
SWIDTH 1000 0
DWIDTH 8 0
BBX 6 7 1 -1
BITMAP
422000
E22000
F22000
F22000
F22111
F21111
EEEEE4
ENDCHAR
STARTCHAR Lacute.salt_v
ENCODING 57869
SWIDTH 1000 0
DWIDTH 8 0
BBX 6 9 1 -1
BITMAP
011110
721110
F67A10
E22000
F22000
F22000
F22111
F21111
EEEEE4
ENDCHAR
STARTCHAR Lcommaaccent.salt_v
ENCODING 57870
SWIDTH 1000 0
DWIDTH 8 0
BBX 6 10 1 -4
BITMAP
422000
E22000
F22000
F22000
F22222
F65554
9BA261
08C420
06E710
014000
ENDCHAR
STARTCHAR Lcaron.salt_v
ENCODING 57871
SWIDTH 1000 0
DWIDTH 8 0
BBX 7 7 1 -1
BITMAP
42205110
E2259110
F228D610
F2235100
F2211100
F2111100
EEEEE400
ENDCHAR
STARTCHAR Ldot.salt_v
ENCODING 57872
SWIDTH 1000 0
DWIDTH 8 0
BBX 6 9 1 -3
BITMAP
422000
E22000
F22000
F22000
F22222
F65554
9C6391
0D6310
09B300
ENDCHAR
STARTCHAR Lslash.salt_v
ENCODING 57873
SWIDTH 1000 0
DWIDTH 8 0
BBX 7 7 0 -1
BITMAP
04220000
0E221000
0B121000
6C123000
4F221110
0F211110
0EEEEE40
ENDCHAR
STARTCHAR L.salt_s_v
ENCODING 57874
SWIDTH 1000 0
DWIDTH 8 0
BBX 6 7 1 -1
BITMAP
121000
C22000
F22000
F22000
F22111
F21111
EEEEE4
ENDCHAR
STARTCHAR M.salt_v
ENCODING 57875
SWIDTH 1000 0
DWIDTH 8 0
BBX 8 7 0 -1
BITMAP
02221211
2A123211
5B181811
6B181811
6B181811
6B080801
5ECECEA0
ENDCHAR
STARTCHAR N.salt_v
ENCODING 57876
SWIDTH 1000 0
DWIDTH 8 0
BBX 6 7 1 -1
BITMAP
022221
832421
E22F22
F22F22
F22F22
F22F21
EE5EE5
ENDCHAR
STARTCHAR Ntilde.salt_v
ENCODING 57877
SWIDTH 1000 0
DWIDTH 8 0
BBX 6 9 1 -1
BITMAP
001110
191111
4D6441
542121
E22E22
F22F22
F22F22
F22F22
EE5EE5
ENDCHAR
STARTCHAR Nacute.salt_v
ENCODING 57878
SWIDTH 1000 0
DWIDTH 8 0
BBX 6 9 1 -1
BITMAP
001111
181111
4D4561
542121
E22E22
F22F22
F22F22
F22F22
EE5EE5
ENDCHAR
STARTCHAR Ncommaaccent.salt_v
ENCODING 57879
SWIDTH 1000 0
DWIDTH 8 0
BBX 6 9 1 -3
BITMAP
022221
732321
E22F22
F22F22
F22F21
EEA5A5
07B320
06D710
037100
ENDCHAR
STARTCHAR Ncaron.salt_v
ENCODING 57880
SWIDTH 1000 0
DWIDTH 8 0
BBX 6 9 1 -1
BITMAP
031111
3D1111
3D8351
432121
E22E22
F22F22
F22F22
F22F22
EE5EE5
ENDCHAR
STARTCHAR W.salt_v
ENCODING 57881
SWIDTH 1000 0
DWIDTH 8 0
BBX 8 8 0 -2
BITMAP
05151511
5B181811
6B181811
6B181811
6B142411
5E212111
1DFCFC30
00101000
ENDCHAR
STARTCHAR Wcircumflex.salt_v
ENCODING 57882
SWIDTH 1000 0
DWIDTH 8 0
BBX 8 10 0 -2
BITMAP
00011100
00812110
048A8A21
4B181811
6B181811
6B181811
6B142411
5E212111
1DFCFC30
00101000
ENDCHAR
STARTCHAR Wgrave.salt_v
ENCODING 57883
SWIDTH 1000 0
DWIDTH 8 0
BBX 8 10 0 -2
BITMAP
00111100
02C11110
048C7921
4B181811
6B181811
6B181811
6B142411
5E212111
1DFCFC30
00101000
ENDCHAR
STARTCHAR Wacute.salt_v
ENCODING 57884
SWIDTH 1000 0
DWIDTH 8 0
BBX 8 10 0 -2
BITMAP
00011110
01811110
04897911
4B181811
6B181811
6B181811
6B142411
5E212111
1DFCFC30
00101000
ENDCHAR
STARTCHAR Wdieresis.salt_v
ENCODING 57885
SWIDTH 1000 0
DWIDTH 8 0
BBX 8 10 0 -2
BITMAP
00112110
03907010
06797921
4B181811
6B181811
6B181811
6B142411
5E212111
1DFCFC30
00101000
ENDCHAR
STARTCHAR X.salt_v
ENCODING 57886
SWIDTH 1100 0
DWIDTH 9 0
BBX 7 7 1 -1
BITMAP
16124110
6E164210
3D122110
57122110
A71B9110
A7099010
9E98EB10
ENDCHAR
STARTCHAR Y.salt_v
ENCODING 57887
SWIDTH 1000 0
DWIDTH 8 0
BBX 6 7 1 -1
BITMAP
422422
E22F22
F22C22
F51211
AF6131
099010
07EB10
ENDCHAR
STARTCHAR Yacute.salt_v
ENCODING 57888
SWIDTH 1000 0
DWIDTH 8 0
BBX 6 9 1 -1
BITMAP
001111
181111
495D82
C22D22
F22E22
F42121
CD5131
1B9010
07EB10
ENDCHAR
STARTCHAR Ycircumflex.salt_v
ENCODING 57889
SWIDTH 1000 0
DWIDTH 8 0
BBX 6 9 1 -1
BITMAP
001110
081211
497F72
C22D22
F22E22
F42121
CD5131
1B9010
07EB10
ENDCHAR
STARTCHAR Ydieresis.salt_v
ENCODING 57890
SWIDTH 1000 0
DWIDTH 8 0
BBX 6 9 1 -1
BITMAP
011211
390701
796E63
C22E22
F22E22
F42121
CD5131
1B9010
07EB10
ENDCHAR
STARTCHAR Ygrave.salt_v
ENCODING 57891
SWIDTH 1000 0
DWIDTH 8 0
BBX 6 9 1 -1
BITMAP
011110
2C1111
4A9D62
C22E22
F22E22
F42121
CD5131
1B9010
07EB10
ENDCHAR
STARTCHAR AE.salt_v
ENCODING 57892
SWIDTH 1000 0
DWIDTH 8 0
BBX 8 7 0 -1
BITMAP
00212211
09232241
2E165141
2E121231
2E133151
2E076101
2ECCEE70
ENDCHAR
STARTCHAR IJ.salt_v
ENCODING 57893
SWIDTH 1000 0
DWIDTH 8 0
BBX 6 14 1 -5
BITMAP
002110
059110
089110
089110
089110
089010
07EC31
000D22
012F22
822F22
F32811
E81112
6EFD80
001000
ENDCHAR
STARTCHAR IJ.stack_v
ENCODING 57894
SWIDTH 1000 0
DWIDTH 8 0
BBX 6 13 1 -4
BITMAP
331112
D52223
AD8162
088110
443222
E74444
9AAB83
000D22
012F22
922F22
F22711
E82122
5EFD70
ENDCHAR
STARTCHAR commaaccent.v
ENCODING 57895
SWIDTH 1000 0
DWIDTH 8 0
BBX 4 4 2 -4
BITMAP
0421
7B42
6C61
3820
ENDCHAR
STARTCHAR hyphen.v
ENCODING 57896
SWIDTH 1000 0
DWIDTH 8 0
BBX 4 5 2 0
BITMAP
0111
3911
6B11
6D71
2730
ENDCHAR
STARTCHAR endash.v
ENCODING 57897
SWIDTH 1000 0
DWIDTH 8 0
BBX 4 7 2 -1
BITMAP
0111
3911
6B11
6B11
6B11
6D71
2730
ENDCHAR
STARTCHAR emdash.v
ENCODING 57898
SWIDTH 1000 0
DWIDTH 8 0
BBX 4 10 2 -3
BITMAP
1611
6B11
6B11
6B11
6B11
6B11
6B11
6B01
6FA1
0100
ENDCHAR
STARTCHAR parenleft.v
ENCODING 57899
SWIDTH 1000 0
DWIDTH 8 0
BBX 10 5 -1 0
BITMAP
0001111110
0331111120
0D12666311
1F8688DC61
0640003610
ENDCHAR
STARTCHAR parenright.v
ENCODING 57900
SWIDTH 1000 0
DWIDTH 8 0
BBX 10 5 -1 0
BITMAP
0011000110
0B11112411
1F31111110
0DD8888720
0266666200
ENDCHAR
STARTCHAR bracketleft.v
ENCODING 57901
SWIDTH 1000 0
DWIDTH 8 0
BBX 10 5 -1 0
BITMAP
0011111110
0B11111111
2F13666311
2F8688CC61
0640003610
ENDCHAR
STARTCHAR bracketright.v
ENCODING 57902
SWIDTH 1000 0
DWIDTH 8 0
BBX 10 5 -1 0
BITMAP
0011000110
0B11112411
2F11111111
2F88888861
0666666610
ENDCHAR
STARTCHAR braceleft.v
ENCODING 57903
SWIDTH 1000 0
DWIDTH 8 0
BBX 10 5 -1 0
BITMAP
0000111000
0032212220
0B21262121
1F58BDEA41
1970005920
ENDCHAR
STARTCHAR braceright.v
ENCODING 57904
SWIDTH 1000 0
DWIDTH 8 0
BBX 10 5 -1 0
BITMAP
0211000210
1D21132211
1F51111120
0AFDB5B910
0013941000
ENDCHAR
STARTCHAR quoteleft.v
ENCODING 57905
SWIDTH 1000 0
DWIDTH 8 0
BBX 4 4 2 1
BITMAP
0322
8743
A721
AFD3
ENDCHAR
STARTCHAR quoteright.v
ENCODING 57906
SWIDTH 1000 0
DWIDTH 8 0
BBX 4 5 2 0
BITMAP
3532
A612
8932
8F80
0100
ENDCHAR
STARTCHAR quotedblleft.v
ENCODING 57907
SWIDTH 1000 0
DWIDTH 8 0
BBX 6 4 1 1
BITMAP
132322
C34824
F31622
EFDFE6
ENDCHAR
STARTCHAR quotedblright.v
ENCODING 57908
SWIDTH 1000 0
DWIDTH 8 0
BBX 6 5 1 0
BITMAP
633623
F21602
D62A33
DE9FB1
100100
ENDCHAR
STARTCHAR quotesinglbase.v
ENCODING 57909
SWIDTH 1000 0
DWIDTH 8 0
BBX 4 5 2 0
BITMAP
0211
7612
AB32
8811
8E60
ENDCHAR
STARTCHAR quotedblbase.v
ENCODING 57910
SWIDTH 1000 0
DWIDTH 8 0
BBX 6 5 1 0
BITMAP
633623
F21602
D62A33
DE9FB1
100100
ENDCHAR
STARTCHAR guilsinglleft.v
ENCODING 57911
SWIDTH 1000 0
DWIDTH 8 0
BBX 6 5 1 0
BITMAP
002120
0A1111
2C1611
5B4C42
5A6A80
ENDCHAR
STARTCHAR guilsinglright.v
ENCODING 57912
SWIDTH 1000 0
DWIDTH 8 0
BBX 6 5 1 0
BITMAP
031311
6B1711
6E1111
2F6320
09DA10
ENDCHAR
STARTCHAR guillemotleft.v
ENCODING 57913
SWIDTH 1000 0
DWIDTH 8 0
BBX 6 7 1 -1
BITMAP
002120
0A2211
3B0911
6E8472
0A2211
3B2B22
5D8CA1
ENDCHAR
STARTCHAR guillemotright.v
ENCODING 57914
SWIDTH 1000 0
DWIDTH 8 0
BBX 6 7 1 -1
BITMAP
051411
6D1311
3F5120
1A4C21
7D1211
3F5220
0AEB10
ENDCHAR
STARTCHAR period.v
ENCODING 57915
SWIDTH 1000 0
DWIDTH 8 0
BBX 4 4 2 1
BITMAP
0211
7611
A601
AFC2
ENDCHAR
STARTCHAR comma.v
ENCODING 57916
SWIDTH 1000 0
DWIDTH 8 0
BBX 4 5 2 0
BITMAP
0211
7612
AB32
8811
8E60
ENDCHAR
STARTCHAR ellipsis.v
ENCODING 57917
SWIDTH 1000 0
DWIDTH 8 0
BBX 10 4 -1 1
BITMAP
0212312311
6814616511
9805606501
8FDCFCCFB1
ENDCHAR
STARTCHAR exclamdown.v
ENCODING 57918
SWIDTH 1000 0
DWIDTH 8 0
BBX 4 7 2 -1
BITMAP
1612
9801
8C83
6911
8811
9801
9FC2
ENDCHAR
STARTCHAR questiondown.v
ENCODING 57919
SWIDTH 1000 0
DWIDTH 8 0
BBX 6 7 1 -1
BITMAP
005211
00F101
008301
331121
C41761
D92111
7EFED4
ENDCHAR
STARTCHAR dagger.v
ENCODING 57920
SWIDTH 1000 0
DWIDTH 8 0
BBX 8 7 0 -1
BITMAP
00171200
01571220
0D112101
1FB91870
047B1300
006A0100
007FB100
ENDCHAR
STARTCHAR daggerdbl.v
ENCODING 57921
SWIDTH 1000 0
DWIDTH 8 0
BBX 8 7 0 -1
BITMAP
00271210
09112101
1FA71781
08871630
0D112101
1FC80860
017FB200
ENDCHAR
STARTCHAR perthousand.v
ENCODING 57922
SWIDTH 1000 0
DWIDTH 8 0
BBX 8 7 0 -1
BITMAP
03223210
87414200
B7212000
8FA21322
06525252
183A1312
8C7EDEA1
ENDCHAR
STARTCHAR ampersand.salt_v
ENCODING 57923
SWIDTH 1000 0
DWIDTH 8 0
BBX 6 9 1 -2
BITMAP
002110
024112
392344
7B1363
732442
E22762
F71212
8EF475
01A910
ENDCHAR
STARTCHAR quoteleft.salt_v
ENCODING 57924
SWIDTH 1000 0
DWIDTH 8 0
BBX 3 5 1 0
BITMAP
0010
3540
E320
FD40
1100
ENDCHAR
STARTCHAR quoteright.salt_v
ENCODING 57925
SWIDTH 1000 0
DWIDTH 8 0
BBX 3 4 1 0
BITMAP
6330
F630
DA20
2100
ENDCHAR
STARTCHAR A.s_v
ENCODING 57926
SWIDTH 1000 0
DWIDTH 8 0
BBX 6 7 1 -1
BITMAP
011110
1A1111
561811
B31512
F32522
F22F21
EE5DE5
ENDCHAR
STARTCHAR C.s_v
ENCODING 57927
SWIDTH 1000 0
DWIDTH 8 0
BBX 6 7 1 -1
BITMAP
011111
432111
E22DD4
F22110
F21111
E92111
6DEEE4
ENDCHAR
STARTCHAR D.s_v
ENCODING 57928
SWIDTH 1000 0
DWIDTH 8 0
BBX 7 7 1 -1
BITMAP
12111100
C2211200
F22D2210
F22D2210
F2261200
F2112200
EEED7000
ENDCHAR
STARTCHAR E.s_v
ENCODING 57929
SWIDTH 1000 0
DWIDTH 8 0
BBX 6 7 1 -1
BITMAP
121111
C22111
F22885
F22321
F22861
F21111
EEEEE4
ENDCHAR
STARTCHAR G.s_v
ENCODING 57930
SWIDTH 1000 0
DWIDTH 8 0
BBX 6 7 1 -1
BITMAP
011111
432111
E22DA1
F22632
F21712
E82112
5DEEE5
ENDCHAR
STARTCHAR H.s_v
ENCODING 57931
SWIDTH 1000 0
DWIDTH 8 0
BBX 6 7 1 -1
BITMAP
121121
C22D22
F22612
F22122
F22E22
F21F22
EE5EE5
ENDCHAR
STARTCHAR I.s_v
ENCODING 57932
SWIDTH 1000 0
DWIDTH 8 0
BBX 6 7 1 -1
BITMAP
121111
B31211
EE7164
198110
164111
C31111
DEEEE4
ENDCHAR
STARTCHAR J.s_v
ENCODING 57933
SWIDTH 1000 0
DWIDTH 8 0
BBX 6 8 1 -2
BITMAP
000121
000D22
012F22
822F22
F22811
E81112
6EFD70
001000
ENDCHAR
STARTCHAR K.s_v
ENCODING 57934
SWIDTH 1000 0
DWIDTH 8 0
BBX 6 7 1 -1
BITMAP
121111
C22811
F22211
F22111
F22E22
F21F22
EE5EE5
ENDCHAR
STARTCHAR L.s_v
ENCODING 57935
SWIDTH 1000 0
DWIDTH 8 0
BBX 6 7 1 -1
BITMAP
121000
C22000
F22011
F22632
F22712
F21112
EEEEE5
ENDCHAR
STARTCHAR N.s_v
ENCODING 57936
SWIDTH 1000 0
DWIDTH 8 0
BBX 6 7 1 -1
BITMAP
121122
C22822
F21112
F22212
F22C12
F22F32
EE5DE5
ENDCHAR
STARTCHAR O.s_v
ENCODING 57937
SWIDTH 1000 0
DWIDTH 8 0
BBX 6 8 1 -2
BITMAP
011111
532121
E22F22
F22D22
F22712
E81112
6EFD80
001000
ENDCHAR
STARTCHAR R.s_v
ENCODING 57938
SWIDTH 1000 0
DWIDTH 8 0
BBX 7 7 1 -1
BITMAP
12111000
C2211100
F22A1100
F2212100
F2291110
F22E3110
EE5DE600
ENDCHAR
STARTCHAR S.s_v
ENCODING 57939
SWIDTH 1000 0
DWIDTH 8 0
BBX 6 7 1 -1
BITMAP
011111
432111
E21784
E71121
9A8712
C21122
EEEE80
ENDCHAR
STARTCHAR T.s_v
ENCODING 57940
SWIDTH 1000 0
DWIDTH 8 0
BBX 6 7 1 -1
BITMAP
121111
C21211
FE8175
198110
088110
089010
07EB10
ENDCHAR
STARTCHAR U.s_v
ENCODING 57941
SWIDTH 1000 0
DWIDTH 8 0
BBX 6 8 1 -2
BITMAP
121121
C22D22
F22F22
F22F22
F21812
E81112
6EFD70
001000
ENDCHAR
STARTCHAR W.s_v
ENCODING 57942
SWIDTH 1000 0
DWIDTH 8 0
BBX 8 7 0 -1
BITMAP
02110211
1D117711
2E132411
2F102011
2F214121
0E61D220
0AE7EC20
ENDCHAR
STARTCHAR Y.s_v
ENCODING 57943
SWIDTH 1000 0
DWIDTH 8 0
BBX 6 7 1 -1
BITMAP
121122
D22C22
F31B12
EA1111
5F6110
0A9010
07EB10
ENDCHAR
STARTCHAR Z.s_v
ENCODING 57944
SWIDTH 1000 0
DWIDTH 8 0
BBX 6 7 1 -1
BITMAP
121111
B31112
EEC321
122120
431112
E21112
EEEEE5
ENDCHAR
STARTCHAR A.salt_s_v
ENCODING 57945
SWIDTH 1000 0
DWIDTH 8 0
BBX 6 7 1 -1
BITMAP
011111
432121
E22F22
F22422
F21512
F22F22
EE4DE5
ENDCHAR
STARTCHAR E.salt_s_v
ENCODING 57946
SWIDTH 1000 0
DWIDTH 8 0
BBX 6 7 1 -1
BITMAP
011111
432111
E22885
F22321
F22761
E92111
6DEEE4
ENDCHAR
STARTCHAR I.salt_s_v
ENCODING 57947
SWIDTH 1000 0
DWIDTH 8 0
BBX 4 7 2 -1
BITMAP
0211
5911
8911
8911
8911
8901
7EB1
ENDCHAR
STARTCHAR N.salt_s_v
ENCODING 57948
SWIDTH 1000 0
DWIDTH 8 0
BBX 6 7 1 -1
BITMAP
011111
432121
E22E22
F22F22
F22F22
F22F22
EE5EE5
ENDCHAR
STARTCHAR W.salt_s_v
ENCODING 57949
SWIDTH 1000 0
DWIDTH 8 0
BBX 8 8 0 -2
BITMAP
02131311
4B181811
6B181811
6B181811
6B142411
5E212111
1DFCFC30
00101000
ENDCHAR
STARTCHAR Y.salt_s_v
ENCODING 57950
SWIDTH 1000 0
DWIDTH 8 0
BBX 6 7 1 -1
BITMAP
121121
C22D22
F22E22
F42121
CD5131
1B9010
07EB10
ENDCHAR
STARTCHAR uniF6C3
ENCODING 63171
SWIDTH 600 0
DWIDTH 5 0
BBX 4 4 0 -4
BITMAP
0222
1E52
1F52
0740
ENDCHAR
STARTCHAR fi
ENCODING 64257
SWIDTH 1423 0
DWIDTH 11 0
BBX 12 7 0 -1
BITMAP
261112521111
971111F52231
A719C2BF3150
A721110E3110
A71A70181121
A70100D21201
9F9000FEEE70
ENDCHAR
STARTCHAR fl
ENCODING 64258
SWIDTH 1513 0
DWIDTH 12 0
BBX 12 7 0 -1
BITMAP
261112442100
971111D31100
A719C2D31221
A72111D31C21
A71A70D31822
A70100D32111
9F9000DEEED4
ENDCHAR
STARTCHAR exclam.v
ENCODING 65281
SWIDTH 1000 0
DWIDTH 8 0
BBX 4 7 2 -1
BITMAP
1612
9811
9811
8901
8C72
7801
9FC2
ENDCHAR
STARTCHAR quotedbl.v
ENCODING 65282
SWIDTH 1000 0
DWIDTH 8 0
BBX 6 4 1 1
BITMAP
451612
C51911
B61A11
AFBFD3
ENDCHAR
STARTCHAR percent.v
ENCODING 65285
SWIDTH 1000 0
DWIDTH 8 0
BBX 8 7 0 -1
BITMAP
02222320
1D145310
3F221300
1EE71221
01934511
04579221
0CA8ED30
ENDCHAR
STARTCHAR ampersand.v
ENCODING 65286
SWIDTH 1000 0
DWIDTH 8 0
BBX 8 7 0 -1
BITMAP
00212200
04824400
08A25311
08225511
1F127221
1F611120
09EEE900
ENDCHAR
STARTCHAR quotesingle.v
ENCODING 65287
SWIDTH 1000 0
DWIDTH 8 0
BBX 4 4 2 1
BITMAP
2712
8911
8A11
7FB1
ENDCHAR
STARTCHAR asterisk.v
ENCODING 65290
SWIDTH 1000 0
DWIDTH 8 0
BBX 6 6 1 -1
BITMAP
018120
355122
C93335
6B1412
4F7E41
062600
ENDCHAR
STARTCHAR zero.v
ENCODING 65296
SWIDTH 1000 0
DWIDTH 8 0
BBX 6 8 1 -2
BITMAP
022221
832421
E22F22
F22F22
F22822
E81112
6EFD70
001000
ENDCHAR
STARTCHAR one.v
ENCODING 65297
SWIDTH 1000 0
DWIDTH 8 0
BBX 6 7 1 -1
BITMAP
232210
C63210
9DA110
07A110
245112
D21111
EEEEE5
ENDCHAR
STARTCHAR two.v
ENCODING 65298
SWIDTH 1000 0
DWIDTH 8 0
BBX 6 7 1 -1
BITMAP
242211
C74421
9C8421
432242
D21752
F21112
EEEEE5
ENDCHAR
STARTCHAR three.v
ENCODING 65299
SWIDTH 1000 0
DWIDTH 8 0
BBX 6 7 1 -1
BITMAP
432211
E54321
AC6312
4C4421
597722
D21112
EEEE90
ENDCHAR
STARTCHAR four.v
ENCODING 65300
SWIDTH 1000 0
DWIDTH 8 0
BBX 6 7 1 -1
BITMAP
422422
E22F22
F22F22
F22122
DB5512
499F22
000EE5
ENDCHAR
STARTCHAR five.v
ENCODING 65301
SWIDTH 1000 0
DWIDTH 8 0
BBX 6 7 1 -1
BITMAP
332222
D32443
E31442
E64421
B97712
D21122
EEEE80
ENDCHAR
STARTCHAR six.v
ENCODING 65302
SWIDTH 1000 0
DWIDTH 8 0
BBX 6 8 1 -2
BITMAP
021221
832442
F21652
F22622
F22912
F71112
6EFD70
001000
ENDCHAR
STARTCHAR seven.v
ENCODING 65303
SWIDTH 1000 0
DWIDTH 8 0
BBX 6 7 1 -1
BITMAP
432222
E54412
ABC912
061111
2D1281
3E0100
3ED400
ENDCHAR
STARTCHAR eight.v
ENCODING 65304
SWIDTH 1000 0
DWIDTH 8 0
BBX 7 8 1 -2
BITMAP
02222100
67161100
A9161200
93262100
E22B2210
F7211200
7EED8000
00100000
ENDCHAR
STARTCHAR nine.v
ENCODING 65305
SWIDTH 1000 0
DWIDTH 8 0
BBX 7 7 1 -1
BITMAP
02222100
92262200
F2292210
F8332210
7C771200
5B112200
6EED7000
ENDCHAR
STARTCHAR colon.v
ENCODING 65306
SWIDTH 1000 0
DWIDTH 8 0
BBX 4 7 2 -1
BITMAP
0211
8601
A832
8B82
8611
A601
AFC2
ENDCHAR
STARTCHAR semicolon.v
ENCODING 65307
SWIDTH 1000 0
DWIDTH 8 0
BBX 4 7 2 -1
BITMAP
1412
A611
AB83
7722
A822
9A32
8E70
ENDCHAR
STARTCHAR question.v
ENCODING 65311
SWIDTH 1000 0
DWIDTH 8 0
BBX 6 7 1 -1
BITMAP
341112
D41121
CEA711
1C0111
2F6880
2D0100
3FE600
ENDCHAR
STARTCHAR A.v
ENCODING 65313
SWIDTH 1000 0
DWIDTH 8 0
BBX 6 7 1 -1
BITMAP
031210
2A1211
751B11
C22322
F21612
F22F22
EE4EE5
ENDCHAR
STARTCHAR B.v
ENCODING 65314
SWIDTH 1000 0
DWIDTH 8 0
BBX 7 7 1 -1
BITMAP
43221100
E2262100
F2251200
F2362100
F2292210
F2212200
DEEE9000
ENDCHAR
STARTCHAR C.v
ENCODING 65315
SWIDTH 1000 0
DWIDTH 8 0
BBX 6 7 1 -1
BITMAP
021222
832443
F22BA2
F22000
F21111
E92111
6DEEE4
ENDCHAR
STARTCHAR D.v
ENCODING 65316
SWIDTH 1000 0
DWIDTH 8 0
BBX 7 7 1 -1
BITMAP
42221100
E2242200
F22F2210
F22D2210
F2261200
F2112200
EEED7000
ENDCHAR
STARTCHAR E.v
ENCODING 65317
SWIDTH 1000 0
DWIDTH 8 0
BBX 6 7 1 -1
BITMAP
422222
E22444
F21663
F22441
F21751
F21111
EEEEE4
ENDCHAR
STARTCHAR F.v
ENCODING 65318
SWIDTH 1000 0
DWIDTH 8 0
BBX 6 7 1 -1
BITMAP
432222
E22443
F22992
F22111
F22D80
F21100
EE5000
ENDCHAR
STARTCHAR G.v
ENCODING 65319
SWIDTH 1000 0
DWIDTH 8 0
BBX 6 7 1 -1
BITMAP
021221
822442
F22B81
F22821
F21712
E82112
5DEEE5
ENDCHAR
STARTCHAR H.v
ENCODING 65320
SWIDTH 1000 0
DWIDTH 8 0
BBX 6 7 1 -1
BITMAP
422422
E22F22
F21412
F22222
F22F22
F21F22
EE5EE5
ENDCHAR
STARTCHAR I.v
ENCODING 65321
SWIDTH 1000 0
DWIDTH 8 0
BBX 6 7 1 -1
BITMAP
332222
D62223
AD8152
088110
164111
C31111
DEEEE4
ENDCHAR
STARTCHAR J.v
ENCODING 65322
SWIDTH 1000 0
DWIDTH 8 0
BBX 6 8 1 -2
BITMAP
000422
001F22
012F22
822F22
F22811
E81112
6EFD70
001000
ENDCHAR
STARTCHAR K.v
ENCODING 65323
SWIDTH 1000 0
DWIDTH 8 0
BBX 6 7 1 -1
BITMAP
422412
E22811
F22211
F22321
F22F22
F21F22
EE5EE5
ENDCHAR
STARTCHAR L.v
ENCODING 65324
SWIDTH 1000 0
DWIDTH 8 0
BBX 6 7 1 -1
BITMAP
422000
E22000
F22011
F22732
F22712
F21112
EEEEE5
ENDCHAR
STARTCHAR M.v
ENCODING 65325
SWIDTH 1000 0
DWIDTH 8 0
BBX 8 7 0 -1
BITMAP
05122211
2F127211
2F111111
2F131211
2E16D411
2E02C501
2EC2BE70
ENDCHAR
STARTCHAR N.v
ENCODING 65326
SWIDTH 1000 0
DWIDTH 8 0
BBX 6 7 1 -1
BITMAP
421432
E22722
F21102
F22412
F22D12
F22F32
EE5DE5
ENDCHAR
STARTCHAR O.v
ENCODING 65327
SWIDTH 1000 0
DWIDTH 8 0
BBX 6 8 1 -2
BITMAP
022221
922411
F22F22
F22D22
F22712
E81112
6EFD80
001000
ENDCHAR
STARTCHAR P.v
ENCODING 65328
SWIDTH 1000 0
DWIDTH 8 0
BBX 6 7 1 -1
BITMAP
422211
E22522
F22E32
F22112
F22981
F21410
EE5000
ENDCHAR
STARTCHAR Q.v
ENCODING 65329
SWIDTH 1000 0
DWIDTH 8 0
BBX 6 8 1 -2
BITMAP
022221
922411
F22F22
F22D22
F22812
E82222
6EB440
05A700
ENDCHAR
STARTCHAR R.v
ENCODING 65330
SWIDTH 1000 0
DWIDTH 8 0
BBX 7 7 1 -1
BITMAP
42221100
E2242100
F2281200
F2212100
F22D2110
F22E3110
EE5CE600
ENDCHAR
STARTCHAR S.v
ENCODING 65331
SWIDTH 1000 0
DWIDTH 8 0
BBX 6 7 1 -1
BITMAP
021222
832443
E22462
E93222
797712
D21122
EEEE80
ENDCHAR
STARTCHAR T.v
ENCODING 65332
SWIDTH 1000 0
DWIDTH 8 0
BBX 6 7 1 -1
BITMAP
432222
E53224
AD8163
088110
088110
089010
07EB10
ENDCHAR
STARTCHAR U.v
ENCODING 65333
SWIDTH 1000 0
DWIDTH 8 0
BBX 6 8 1 -2
BITMAP
422422
E22F22
F22F22
F22F22
F21812
E81112
6EFD70
001000
ENDCHAR
STARTCHAR V.v
ENCODING 65334
SWIDTH 1000 0
DWIDTH 8 0
BBX 6 7 1 -1
BITMAP
422332
F22D32
F22E32
F41C11
CA1211
7E1111
1EEE50
ENDCHAR
STARTCHAR W.v
ENCODING 65335
SWIDTH 1000 0
DWIDTH 8 0
BBX 8 7 0 -1
BITMAP
05121511
2E119711
2E132411
2F102011
2F214121
0E61D220
0AE7EC20
ENDCHAR
STARTCHAR X.v
ENCODING 65336
SWIDTH 1100 0
DWIDTH 9 0
BBX 7 7 1 -1
BITMAP
15125110
89176110
8E212100
1D212100
28186110
880A8010
8EA9EA10
ENDCHAR
STARTCHAR Y.v
ENCODING 65337
SWIDTH 1000 0
DWIDTH 8 0
BBX 6 7 1 -1
BITMAP
422332
F22E22
F31A12
DB1111
5F6110
0A9010
07EB10
ENDCHAR
STARTCHAR Z.v
ENCODING 65338
SWIDTH 1000 0
DWIDTH 8 0
BBX 6 7 1 -1
BITMAP
332222
D64212
ABB212
032120
531112
E21112
EEEEE5
ENDCHAR
STARTCHAR uni2B24.salt_v
ENCODING 65339
SWIDTH 1280 0
DWIDTH 10 0
BBX 10 10 0 -2
BITMAP
0022222200
03DEEEEE50
0BFFFFFFD1
2EFFFFFFF5
5FFFFFFFF8
5FFFFFFFF9
3FFFFFFFF6
0CFFFFFFE2
04EFFFFF70
0045555500
ENDCHAR
STARTCHAR uni25DD.curve_v
ENCODING 65340
SWIDTH 1280 0
DWIDTH 10 0
BBX 10 10 0 -2
BITMAP
0001222221
018DEEEEE5
08FFFFFFF5
1EFFFFFFF5
2EFFFFFFF5
2EFFFFFFF5
2EFFFFFFF5
2EFFFFFFF5
2EFFFFFFF5
1555555552
ENDCHAR
STARTCHAR uni2B1B.trapezoid_e_v
ENCODING 65341
SWIDTH 1280 0
DWIDTH 10 0
BBX 10 10 0 -2
BITMAP
2CA7420000
2EFFFEDA72
2EFFFFFFF5
2EFFFFFFF5
2EFFFFFFF5
2EFFFFFFF5
2EFFFFFFF5
2EFFFFFFF5
2EFFFFFFF5
1555555552
ENDCHAR
STARTCHAR uni2B1B.trapezoid_w_v
ENCODING 65342
SWIDTH 1280 0
DWIDTH 10 0
BBX 10 11 0 -3
BITMAP
0222222221
2EFFFFFFF5
2EFFFFFFF5
2EFFFFFFF5
2EFFFFFFF5
2EFFFFFFF5
2EFFFFFFF5
2EFFFFFFF5
2EFFFFEDA3
2DDA742000
0200000000
ENDCHAR
STARTCHAR .notdef
ENCODING -1
SWIDTH 1100 0
DWIDTH 9 0
BBX 9 9 0 -2
BITMAP
0011111100
29ACCCCA10
6C44448C10
6C10006C10
6C10006C10
6C10006C10
6C21116B10
6ECCCCC810
1444444000
ENDCHAR
STARTCHAR one.sups
ENCODING -1
SWIDTH 557 0
DWIDTH 4 0
BBX 5 5 0 1
BITMAP
253200
AA2100
5F3100
392110
CEEB20
ENDCHAR
STARTCHAR two.sups
ENCODING -1
SWIDTH 585 0
DWIDTH 5 0
BBX 5 5 0 1
BITMAP
262210
AD7210
551220
C43510
CEEC30
ENDCHAR
STARTCHAR three.sups
ENCODING -1
SWIDTH 584 0
DWIDTH 5 0
BBX 5 5 0 1
BITMAP
452300
CB5110
5C5020
751220
BEE700
ENDCHAR
STARTCHAR four.sups
ENCODING -1
SWIDTH 620 0
DWIDTH 5 0
BBX 5 5 0 1
BITMAP
644420
E47410
E61210
BFF510
00CC20
ENDCHAR
ENDFONT
